<svg width="24" height="24" viewBox="0 0 24 24" fill="none" xmlns="http://www.w3.org/2000/svg">
<g clip-path="url(#clip0_2941_28524)">
<path d="M6.78283 22.8093C8.36046 23.5721 10.1303 24 12.0002 24C13.8701 24 15.64 23.5721 17.2176 22.8093L18.2611 12L17.2176 1.19072C15.64 0.427875 13.8701 0 12.0002 0C10.1303 0 8.36046 0.427875 6.78283 1.19072L5.73935 12L6.78283 22.8093Z" fill="#FFDA44"/>
<path d="M17.2169 22.8091C21.2309 20.8682 23.9995 16.7577 23.9995 12.0003C23.9995 7.24278 21.2309 3.13231 17.2169 1.19141V22.8091Z" fill="#D80027"/>
<path d="M6.78232 22.8091V1.19141C2.76837 3.13231 -0.000305176 7.24273 -0.000305176 12.0003C-0.000305176 16.7578 2.76837 20.8682 6.78232 22.8091Z" fill="#0052B4"/>
<path d="M12 16.1739C12 14.259 12 12 12 12H15.1304V13.5652C15.1304 13.8371 14.6087 14.8335 13.3209 15.6522C12.8332 15.9623 12.3283 16.062 12 16.1739Z" fill="#D80027"/>
<path d="M11.9998 8.86914H8.86932V11.9996H11.9998V8.86914Z" fill="#D80027"/>
<path d="M13.5654 7.82571C13.5654 7.24938 13.0982 6.78223 12.5219 6.78223C12.3316 6.78223 12.1537 6.83398 12.0002 6.92295C11.8465 6.83398 11.6687 6.78223 11.4784 6.78223C10.9022 6.78223 10.435 7.24938 10.435 7.82571H7.82626V13.043C7.82626 14.9854 9.36873 16.1086 10.5783 16.6909C10.4878 16.8455 10.435 17.0249 10.435 17.217C10.435 17.7934 10.9022 18.2605 11.4784 18.2605C11.6687 18.2605 11.8466 18.2088 12.0002 18.1198C12.1538 18.2088 12.3316 18.2605 12.5219 18.2605C13.0982 18.2605 13.5654 17.7934 13.5654 17.217C13.5654 17.0249 13.5125 16.8455 13.4219 16.6909C14.6315 16.1086 16.174 14.9854 16.174 13.043V7.82571H13.5654ZM14.6088 13.043C14.6088 13.315 14.6088 14.1424 13.3211 14.9611C12.8333 15.2712 12.3285 15.4723 12.0002 15.5841C11.6718 15.4723 11.167 15.2712 10.6792 14.9611C9.39147 14.1424 9.39147 13.315 9.39147 13.043V9.39092H14.6088V13.043Z" fill="#FF9811"/>
</g>
<defs>
<clipPath id="clip0_2941_28524">
<rect width="24" height="24" fill="white"/>
</clipPath>
</defs>
</svg>
