<svg width="24" height="24" viewBox="0 0 24 24" fill="none" xmlns="http://www.w3.org/2000/svg">
<g clip-path="url(#clip0_2941_30299)">
<path d="M12 24C18.6274 24 24 18.6274 24 12C24 5.37258 18.6274 0 12 0C5.37258 0 0 5.37258 0 12C0 18.6274 5.37258 24 12 24Z" fill="#F0F0F0"/>
<path d="M6.78265 16.1729L7.82614 23.2527C9.12608 23.7351 10.5322 23.999 12 23.999C17.1596 23.999 21.5581 20.7425 23.2536 16.1729H6.78265Z" fill="black"/>
<path d="M6.78265 7.82709L7.82614 0.747273C9.12608 0.264883 10.5322 0.000976562 12 0.000976562C17.1596 0.000976562 21.5581 3.25748 23.2536 7.82709H6.78265Z" fill="#6DA544"/>
<path d="M0.000427246 11.9997C0.000427246 17.1593 3.25697 21.5578 7.82654 23.2533V0.746094C3.25697 2.44161 0.000427246 6.84013 0.000427246 11.9997Z" fill="#A2001D"/>
</g>
<defs>
<clipPath id="clip0_2941_30299">
<rect width="24" height="24" fill="white"/>
</clipPath>
</defs>
</svg>
