<svg width="24" height="24" viewBox="0 0 24 24" fill="none" xmlns="http://www.w3.org/2000/svg">
<g clip-path="url(#clip0_2941_28492)">
<path d="M17.2172 1.19072C15.6396 0.427875 13.8697 0 11.9998 0C10.13 0 8.36009 0.427875 6.78247 1.19072L5.73898 12L6.78247 22.8093C8.36009 23.5721 10.13 24 11.9998 24C13.8697 24 15.6396 23.5721 17.2172 22.8093L18.2607 12L17.2172 1.19072Z" fill="#D80027"/>
<path d="M6.78275 1.19141C2.76884 3.13236 0.00012207 7.24278 0.00012207 12.0003C0.00012207 16.7577 2.76884 20.8682 6.78275 22.8091V1.19141Z" fill="black"/>
<path d="M17.2175 1.19141V22.8091C21.2314 20.8682 24.0002 16.7577 24.0002 12.0003C24.0002 7.24278 21.2314 3.13236 17.2175 1.19141Z" fill="#496E2D"/>
<path d="M11.9997 7.82715C9.69445 7.82715 7.82578 9.69587 7.82578 12.001C7.82578 14.3062 9.69449 16.1749 11.9997 16.1749C14.3048 16.1749 16.1736 14.3062 16.1736 12.001C16.1736 9.69587 14.3049 7.82715 11.9997 7.82715ZM11.9997 14.6097C10.5589 14.6097 9.39098 13.4417 9.39098 12.001C9.39098 10.5603 10.559 9.39235 11.9997 9.39235C13.4404 9.39235 14.6084 10.5603 14.6084 12.001C14.6084 13.4417 13.4404 14.6097 11.9997 14.6097Z" fill="#FFDA44"/>
<path d="M12 10.4365C11.4237 10.4365 10.9565 10.9037 10.9565 11.48V13.0452H13.0435V11.48C13.0435 10.9037 12.5764 10.4365 12 10.4365Z" fill="#FFDA44"/>
</g>
<defs>
<clipPath id="clip0_2941_28492">
<rect width="24" height="24" fill="white"/>
</clipPath>
</defs>
</svg>
