<svg width="24" height="24" viewBox="0 0 24 24" fill="none" xmlns="http://www.w3.org/2000/svg">
<g clip-path="url(#clip0_2941_28554)">
<path d="M3.05176e-05 11.9996C3.05176e-05 12.8215 0.0829055 13.6241 0.240359 14.3996L12 15.13L23.7597 14.3996C23.9172 13.6241 24 12.8215 24 11.9996C24 11.1776 23.9172 10.375 23.7597 9.59959L12 8.86914L0.240359 9.59959C0.0829055 10.375 3.05176e-05 11.1776 3.05176e-05 11.9996Z" fill="#0052B4"/>
<path d="M23.7595 14.3994H0.240082C1.35191 19.8768 6.19433 23.9994 11.9998 23.9994C17.8052 23.9994 22.6476 19.8768 23.7595 14.3994Z" fill="#F0F0F0"/>
<path d="M0.240082 9.6H23.7595C22.6476 4.12266 17.8053 0 11.9998 0C6.19424 0 1.35191 4.12266 0.240082 9.6Z" fill="black"/>
<path d="M17.2176 9.59901H6.78287L8.91474 8.59616L7.77948 6.53155L10.0944 6.97429L10.3878 4.63574L12.0002 6.35577L13.6127 4.63574L13.906 6.97429L16.221 6.53155L15.0858 8.59626L17.2176 9.59901Z" fill="#FFDA44"/>
<path d="M3.05176e-05 12.0012C3.05176e-05 18.6286 5.37266 24.0012 12 24.0012L2.39984 4.80078C0.893093 6.80652 3.05176e-05 9.29947 3.05176e-05 12.0012Z" fill="#A2001D"/>
<path d="M11.9996 24.0002C18.627 24.0002 23.9996 18.6276 23.9996 12.0002C23.9996 9.29849 23.1066 6.80554 21.5998 4.7998L11.9996 24.0002Z" fill="#A2001D"/>
</g>
<defs>
<clipPath id="clip0_2941_28554">
<rect width="24" height="24" fill="white"/>
</clipPath>
</defs>
</svg>
