<svg width="24" height="24" viewBox="0 0 24 24" fill="none" xmlns="http://www.w3.org/2000/svg">
<g clip-path="url(#clip0_2941_28539)">
<path d="M24 12C24 18.6274 18.6274 24 12 24C5.37262 24 0 18.6274 0 12C0 12.0029 12 0.0013125 12 0C18.6274 0 24 5.37262 24 12Z" fill="#0052B4"/>
<path d="M11.9674 12.0009H11.9996C11.9996 11.9901 11.9996 11.9796 11.9996 11.9688C11.9889 11.9795 11.9782 11.9902 11.9674 12.0009Z" fill="#F0F0F0"/>
<path d="M12 6.26086C12 4.14937 12 2.76586 12 0H11.998C5.37145 0.001125 0 5.37323 0 12H6.26086V8.47448L9.78637 12H11.9679C11.9786 11.9893 11.9893 11.9786 12 11.9679C12 11.1594 12 10.4381 12 9.78647L8.47443 6.26086H12Z" fill="#F0F0F0"/>
<path d="M6.07072 1.56543C4.1939 2.63413 2.63357 4.19442 1.56491 6.07125V12.0002H4.69536V4.69598V4.69589H11.9997C11.9997 3.70856 11.9997 2.76796 11.9997 1.56543H6.07072Z" fill="#D80027"/>
<path d="M11.9995 10.5251L7.736 6.26172H6.26038V6.26181L11.9994 12.0008H11.9995C11.9995 12.0008 11.9995 10.9833 11.9995 10.5251Z" fill="#D80027"/>
<path d="M20.2942 13.7574C20.6392 13.2826 20.8697 12.7029 20.8697 12.0008V6.78339C20.4337 7.11095 19.8918 7.30511 19.3045 7.30511C18.4511 7.30511 17.6935 6.89528 17.2175 6.26172C16.7416 6.89528 15.9839 7.30511 15.1306 7.30511C14.5432 7.30511 14.0014 7.11091 13.5654 6.78348V12.0008C13.5654 12.7029 13.7959 13.2826 14.1409 13.7574H20.2942Z" fill="#F3F3F3"/>
<path d="M19.2084 11.0329C19.3745 10.6276 19.5037 10.0352 19.5037 9.74044C19.5037 9.26677 18.8862 8.88281 18.8862 8.88281C18.8862 8.88281 18.2686 9.26677 18.2686 9.74044C18.2686 10.0353 18.3979 10.6276 18.5639 11.0329L18.2074 11.8378C18.417 11.923 18.646 11.9703 18.8862 11.9703C19.1265 11.9703 19.3554 11.9229 19.565 11.8378L19.2084 11.0329Z" fill="#FF9811"/>
<path d="M16.7952 8.42696C16.3614 8.48574 15.7837 8.6702 15.5284 8.81757C15.1182 9.05443 15.0944 9.78113 15.0944 9.78113C15.0944 9.78113 15.7358 10.1239 16.1459 9.88712C16.4013 9.7397 16.8496 9.3317 17.1174 8.9852L17.9928 8.89145C17.9619 8.66748 17.8882 8.44543 17.7682 8.23745C17.648 8.02946 17.4926 7.85471 17.314 7.71582L16.7952 8.42696Z" fill="#FF9811"/>
<path d="M15.7446 11.8212C16.0124 12.1675 16.4609 12.5754 16.7162 12.7229C17.1265 12.9597 17.7678 12.617 17.7678 12.617C17.7678 12.617 17.7438 11.8902 17.3337 11.6534C17.0783 11.5059 16.5008 11.3217 16.0668 11.263L15.548 10.5518C15.3695 10.6906 15.214 10.8654 15.0939 11.0732C14.9739 11.2813 14.9004 11.5033 14.8692 11.7274L15.7446 11.8212Z" fill="#FF9811"/>
<path d="M14.0114 13.5654C14.9858 15.1289 17.2171 15.6523 17.2171 15.6523C17.2171 15.6523 19.4484 15.1289 20.4229 13.5654H14.0114Z" fill="#338AF3"/>
</g>
<defs>
<clipPath id="clip0_2941_28539">
<rect width="24" height="24" fill="white"/>
</clipPath>
</defs>
</svg>
