<svg width="24" height="24" viewBox="0 0 24 24" fill="none" xmlns="http://www.w3.org/2000/svg">
<g clip-path="url(#clip0_2941_28532)">
<path d="M0 12C0 5.37262 5.37262 0 12 0C18.6274 0 24 5.37262 24 12C23.4783 12 12 13.5652 12 13.5652L0 12Z" fill="#D80027"/>
<path d="M23.9998 12C23.9998 18.6274 18.6272 24 11.9998 24C5.37244 24 -0.000183105 18.6274 -0.000183105 12" fill="black"/>
<path d="M10.354 9.54316L11.3713 10.2814L10.9836 11.4771L12.0001 10.7376L13.0175 11.4759L12.6283 10.2806L13.6448 9.5412L12.3878 9.54195L11.9986 8.34668L11.6109 9.54237L10.354 9.54316Z" fill="#FFDA44"/>
<path d="M14.9998 6.80283C14.0541 6.25688 13.0202 5.9992 11.9998 6.00099V7.56586C12.754 7.5645 13.5182 7.75481 14.2171 8.15841C16.3348 9.38109 17.063 12.0987 15.8403 14.2164C14.6177 16.3342 11.9001 17.0624 9.78233 15.8397C9.16536 15.4835 8.66731 14.9998 8.30019 14.4417L6.9935 15.3044C7.49023 16.0595 8.16505 16.7132 8.99975 17.1951C11.8649 18.8493 15.5417 17.8642 17.1958 14.999C18.8501 12.1338 17.8649 8.45705 14.9998 6.80283Z" fill="#FFDA44"/>
<path d="M8.53956 10.9551C8.12472 11.7135 8.40325 12.6646 9.16159 13.0795L14.2451 15.8573C13.8994 16.4892 14.083 17.2584 14.715 17.6041L16.0882 18.3552C16.7201 18.701 17.5128 18.4689 17.8585 17.8369L18.6097 16.4637L8.53956 10.9551Z" fill="#FFDA44"/>
</g>
<defs>
<clipPath id="clip0_2941_28532">
<rect width="24" height="24" fill="white"/>
</clipPath>
</defs>
</svg>
