<svg width="24" height="24" viewBox="0 0 24 24" fill="none" xmlns="http://www.w3.org/2000/svg">
<g clip-path="url(#clip0_2941_28562)">
<path d="M12 24C18.6274 24 24 18.6274 24 12C24 5.37258 18.6274 0 12 0C5.37258 0 0 5.37258 0 12C0 18.6274 5.37258 24 12 24Z" fill="#F0F0F0"/>
<path d="M12.0002 -0.000976562C7.24267 -0.000976562 3.13192 2.7677 1.19092 6.78165H22.8094C20.8685 2.7677 16.7577 -0.000976562 12.0002 -0.000976562Z" fill="#338AF3"/>
<path d="M12.0005 23.9984C16.758 23.9984 20.8688 21.2298 22.8098 17.2158H1.19119C3.13219 21.2298 7.24294 23.9984 12.0005 23.9984Z" fill="#338AF3"/>
<path d="M15.5865 11.9998L14.121 12.6892L14.9014 14.1085L13.31 13.804L13.1083 15.4117L11.9999 14.2293L10.8914 15.4117L10.6898 13.804L9.09836 14.1084L9.87874 12.6891L8.41324 11.9998L9.87879 11.3104L9.09836 9.89111L10.6897 10.1955L10.8914 8.58789L11.9999 9.77026L13.1084 8.58789L13.31 10.1955L14.9014 9.89111L14.121 11.3104L15.5865 11.9998Z" fill="#FFDA44"/>
</g>
<defs>
<clipPath id="clip0_2941_28562">
<rect width="24" height="24" fill="white"/>
</clipPath>
</defs>
</svg>
