<svg width="24" height="24" viewBox="0 0 24 24" fill="none" xmlns="http://www.w3.org/2000/svg">
<g clip-path="url(#clip0_2941_28516)">
<path d="M12 24C18.6274 24 24 18.6274 24 12C24 5.37258 18.6274 0 12 0C5.37258 0 0 5.37258 0 12C0 18.6274 5.37258 24 12 24Z" fill="#F0F0F0"/>
<path d="M17.8217 1.50525C16.0974 0.54675 14.1127 0 12 0C5.37309 0 0.00084375 5.37178 0 11.9986L8.34783 7.82611L17.8217 1.50525Z" fill="#0052B4"/>
<path d="M-0.000305176 12.002C0.000538574 18.6288 5.37279 24.0005 11.9997 24.0005C14.1123 24.0005 16.0971 23.4539 17.8214 22.4953L8.34752 16.1744L-0.000305176 12.002Z" fill="#0052B4"/>
<path d="M18.8213 2.12673C18.499 1.90365 18.165 1.69618 17.8209 1.50488L-0.000396729 11.998C-0.000396729 11.9985 -0.000396729 11.999 -0.000396729 11.9994C-0.000396729 11.9999 -0.000396729 12.0004 -0.000396729 12.0009L17.8209 22.494C18.1651 22.3026 18.499 22.0952 18.8214 21.8721L2.05376 11.9994L18.8213 2.12673Z" fill="#D80027"/>
<path d="M20.8692 11.5526H19.4398C19.8114 11.1063 19.7885 10.4424 19.3698 10.0238C19.8133 9.58029 19.8133 8.86118 19.3698 8.4176L19.3431 8.44441C19.7865 8.00093 19.8133 7.25501 19.3698 6.81152L12.9453 13.236C13.3888 13.6796 14.0953 13.6743 14.5388 13.2308L14.6625 13.1178L17.7388 12.8381V14.1612H18.7823V12.7432L20.3475 12.601L20.8692 11.5526Z" fill="#A2001D"/>
<path d="M13.0439 14.6089L12 14.0872L13.0439 13.5654H19.8265V14.6089H13.0439Z" fill="#FFDA44"/>
</g>
<defs>
<clipPath id="clip0_2941_28516">
<rect width="24" height="24" fill="white"/>
</clipPath>
</defs>
</svg>
