<svg width="24" height="24" viewBox="0 0 24 24" fill="none" xmlns="http://www.w3.org/2000/svg">
<g clip-path="url(#clip0_2941_28596)">
<path d="M23.2541 16.1735C23.7365 14.8735 24.0005 13.4674 24.0005 11.9996C24.0005 10.5318 23.7365 9.12574 23.2541 7.82571L12.0005 6.78223L0.746848 7.82571C0.264505 9.12574 0.000457764 10.5318 0.000457764 11.9996C0.000457764 13.4674 0.264505 14.8735 0.746848 16.1735L12.0005 17.217L23.2541 16.1735Z" fill="#F0F0F0"/>
<path d="M12.0006 23.9999C17.1601 23.9999 21.5587 20.7434 23.2541 16.1738H0.746918C2.44248 20.7434 6.84095 23.9999 12.0006 23.9999Z" fill="#D80027"/>
<path d="M12.0002 0C6.84058 0 2.44211 3.2565 0.746552 7.82611H23.2538C21.5583 3.2565 17.1597 0 12.0002 0Z" fill="#D80027"/>
</g>
<defs>
<clipPath id="clip0_2941_28596">
<rect width="24" height="24" fill="white"/>
</clipPath>
</defs>
</svg>
