<svg width="24" height="24" viewBox="0 0 24 24" fill="none" xmlns="http://www.w3.org/2000/svg">
<g clip-path="url(#clip0_2941_28499)">
<path d="M23.5864 15.1297C23.8554 14.1316 23.9998 13.0824 23.9998 11.9993C23.9998 10.9161 23.8554 9.86697 23.5864 8.86881L10.9563 0.0449219C8.61154 0.246953 6.45983 1.12305 4.69541 2.47872L0.413146 8.86881C0.144131 9.86697 -0.000244141 10.9161 -0.000244141 11.9993C-0.000244141 13.0761 0.142396 14.1195 0.408412 15.1124L4.69536 21.5198C6.45979 22.8755 8.61149 23.7516 10.9562 23.9536L23.5864 15.1297Z" fill="#FFDA44"/>
<path d="M0.412933 15.1309C1.10725 17.7071 2.63748 19.9399 4.6952 21.521V15.1309H0.412933Z" fill="#0052B4"/>
<path d="M10.9559 23.9548C11.2998 23.9844 11.6477 24.0004 11.9994 24.0004C17.5437 24.0004 22.209 20.2401 23.586 15.1309H10.9559V23.9548Z" fill="#0052B4"/>
<path d="M23.586 8.86955C22.209 3.76036 17.5437 0 11.9994 0C11.6477 0 11.2998 0.0160312 10.9559 0.0456562V8.86955H23.586Z" fill="#0052B4"/>
<path d="M4.6952 2.47949C2.63748 4.06059 1.10725 6.29338 0.412933 8.86959H4.6952V2.47949Z" fill="#0052B4"/>
<path d="M23.8987 10.4347H9.39163H9.39159V0.285156C8.28262 0.531063 7.23126 0.929641 6.26113 1.459V10.4347H0.101853C0.0350559 10.9471 0.000274658 11.4694 0.000274658 11.9999C0.000274658 12.5304 0.0350559 13.0528 0.101853 13.5651H6.26109H6.26113V22.5408C7.23126 23.0701 8.28262 23.4688 9.39159 23.7146V13.5653V13.5652H23.8987C23.9654 13.0528 24.0003 12.5304 24.0003 11.9999C24.0003 11.4694 23.9654 10.9471 23.8987 10.4347Z" fill="#D80027"/>
</g>
<defs>
<clipPath id="clip0_2941_28499">
<rect width="24" height="24" fill="white"/>
</clipPath>
</defs>
</svg>
