<svg width="24" height="24" viewBox="0 0 24 24" fill="none" xmlns="http://www.w3.org/2000/svg">
<g clip-path="url(#clip0_2941_28601)">
<path d="M23.9996 12.0003C23.9996 10.5325 23.7356 9.12639 23.2532 7.82645L11.9996 7.30469L0.745994 7.82641C0.26365 9.12639 -0.000396729 10.5325 -0.000396729 12.0003C-0.000396729 13.4682 0.26365 14.8743 0.745994 16.1742L11.9996 16.696L23.2532 16.1743C23.7356 14.8743 23.9996 13.4682 23.9996 12.0003Z" fill="#D80027"/>
<path d="M12.0003 23.9999C17.1599 23.9999 21.5584 20.7434 23.254 16.1738H0.746735C2.44225 20.7434 6.84077 23.9999 12.0003 23.9999Z" fill="#6DA544"/>
<path d="M0.746735 7.82513H23.254C21.5584 3.25552 17.1599 -0.000976562 12.0003 -0.000976562C6.84077 -0.000976562 2.44225 3.25552 0.746735 7.82513Z" fill="#338AF3"/>
<path d="M12.2605 15.3914C10.3876 15.3914 8.86921 13.873 8.86921 12.0001C8.86921 10.1272 10.3876 8.6088 12.2605 8.6088C12.8445 8.6088 13.394 8.75645 13.8737 9.01642C13.1211 8.28044 12.0919 7.82617 10.9562 7.82617C8.65096 7.82617 6.78229 9.69489 6.78229 12.0001C6.78229 14.3052 8.651 16.174 10.9562 16.174C12.092 16.174 13.1211 15.7197 13.8737 14.9837C13.394 15.2438 12.8445 15.3914 12.2605 15.3914Z" fill="#F0F0F0"/>
<path d="M14.8695 9.65137L15.3187 10.9147L16.5297 10.339L15.954 11.5499L17.2173 11.9992L15.954 12.4484L16.5297 13.6594L15.3187 13.0837L14.8695 14.347L14.4203 13.0837L13.2093 13.6594L13.785 12.4484L12.5217 11.9992L13.785 11.5499L13.2093 10.339L14.4203 10.9147L14.8695 9.65137Z" fill="#F0F0F0"/>
</g>
<defs>
<clipPath id="clip0_2941_28601">
<rect width="24" height="24" fill="white"/>
</clipPath>
</defs>
</svg>
