<svg width="24" height="24" viewBox="0 0 24 24" fill="none" xmlns="http://www.w3.org/2000/svg">
<g clip-path="url(#clip0_2941_28620)">
<path d="M17.2172 1.19072C15.6396 0.427875 13.8697 0 11.9998 0C10.13 0 8.36009 0.427875 6.78247 1.19072L5.73898 12L6.78247 22.8093C8.36009 23.5721 10.13 24 11.9998 24C13.8697 24 15.6396 23.5721 17.2172 22.8093L18.2607 12L17.2172 1.19072Z" fill="#FFDA44"/>
<path d="M6.78275 1.19141C2.76884 3.13231 0.00012207 7.24273 0.00012207 12.0003C0.00012207 16.7578 2.76884 20.8682 6.78275 22.8091V1.19141Z" fill="#0052B4"/>
<path d="M17.2177 1.19141V22.8091C21.2316 20.8682 24.0003 16.7577 24.0003 12.0003C24.0003 7.24278 21.2316 3.13231 17.2177 1.19141Z" fill="#0052B4"/>
<path d="M15.6522 7.30325L16.3522 7.65322L15.6522 7.30325L14.9522 6.95328C14.91 7.0377 13.996 8.89738 13.8467 11.738H12.7827V7.30325L12 6.25977L11.2174 7.30325V11.738H10.1534C10.0041 8.89738 9.09009 7.0377 9.04786 6.95328L7.64789 7.65327C7.65754 7.67248 8.60878 9.60866 8.60878 12.5207V13.3033H11.2175V17.7381H12.7827V13.3033H15.3914V12.5206C15.3914 11.0151 15.6518 9.77366 15.8704 8.99731C16.1087 8.15075 16.3507 7.65636 16.3531 7.65144L15.6522 7.30325Z" fill="black"/>
</g>
<defs>
<clipPath id="clip0_2941_28620">
<rect width="24" height="24" fill="white"/>
</clipPath>
</defs>
</svg>
