<svg width="24" height="24" viewBox="0 0 24 24" fill="none" xmlns="http://www.w3.org/2000/svg">
<g clip-path="url(#clip0_2941_28859)">
<path d="M24 12.0003C24 10.5325 23.736 9.12639 23.2536 7.82645L12 7.30469L0.746421 7.82641C0.264077 9.12639 3.05176e-05 10.5325 3.05176e-05 12.0003C3.05176e-05 13.4682 0.264077 14.8743 0.746421 16.1742L12 16.696L23.2536 16.1743C23.736 14.8743 24 13.4682 24 12.0003Z" fill="#496E2D"/>
<path d="M11.9999 23.9999C17.1595 23.9999 21.558 20.7434 23.2535 16.1738H0.746307C2.44182 20.7434 6.84034 23.9999 11.9999 23.9999Z" fill="#D80027"/>
<path d="M0.746307 7.82513H23.2536C21.558 3.25552 17.1595 -0.000976562 11.9999 -0.000976562C6.84034 -0.000976562 2.44182 3.25552 0.746307 7.82513Z" fill="#F0F0F0"/>
</g>
<defs>
<clipPath id="clip0_2941_28859">
<rect width="24" height="24" fill="white"/>
</clipPath>
</defs>
</svg>
