<svg width="24" height="24" viewBox="0 0 24 24" fill="none" xmlns="http://www.w3.org/2000/svg">
<g clip-path="url(#clip0_2941_28867)">
<path d="M12 24C18.6274 24 24 18.6274 24 12C24 5.37258 18.6274 0 12 0C5.37258 0 0 5.37258 0 12C0 18.6274 5.37258 24 12 24Z" fill="#F0F0F0"/>
<path d="M19.307 2.48041C15.0108 -0.825494 8.98979 -0.825494 4.6936 2.48037L12.0003 9.78705L19.307 2.48041Z" fill="#D80027"/>
<path d="M12.0004 14.214L4.69385 21.5206C8.99004 24.8265 15.011 24.8265 19.3072 21.5206L12.0005 14.2139L12.0004 14.214Z" fill="#D80027"/>
<path d="M9.7868 12L2.48016 4.69336C-0.825744 8.98955 -0.825744 15.0105 2.48016 19.3067L9.7868 12Z" fill="#6DA544"/>
<path d="M14.2143 12L21.5209 19.3067C24.8268 15.0105 24.8268 8.98955 21.5209 4.69336L14.2143 12Z" fill="#6DA544"/>
<path d="M12.0003 17.2179C14.8818 17.2179 17.2177 14.882 17.2177 12.0006C17.2177 9.1191 14.8818 6.7832 12.0003 6.7832C9.11883 6.7832 6.78293 9.1191 6.78293 12.0006C6.78293 14.882 9.11883 17.2179 12.0003 17.2179Z" fill="#F0F0F0"/>
<path d="M11.9999 8.34863L12.4517 9.13126H13.3554L12.9035 9.91384L13.3554 10.6965H12.4517L11.9999 11.4791L11.5481 10.6965H10.6444L11.0962 9.91384L10.6444 9.13126H11.5481L11.9999 8.34863Z" fill="#D80027"/>
<path d="M9.70352 12.001L10.1554 12.7836H11.059L10.6072 13.5662L11.059 14.3488H10.1554L9.70352 15.1314L9.25165 14.3488H8.34799L8.79982 13.5662L8.34799 12.7836H9.25165L9.70352 12.001Z" fill="#D80027"/>
<path d="M14.297 12.001L14.7489 12.7836H15.6525L15.2007 13.5662L15.6525 14.3488H14.7489L14.297 15.1314L13.8452 14.3488H12.9415L13.3933 13.5662L12.9415 12.7836H13.8452L14.297 12.001Z" fill="#D80027"/>
</g>
<defs>
<clipPath id="clip0_2941_28867">
<rect width="24" height="24" fill="white"/>
</clipPath>
</defs>
</svg>
