<svg width="24" height="24" viewBox="0 0 24 24" fill="none" xmlns="http://www.w3.org/2000/svg">
<g clip-path="url(#clip0_2941_30090)">
<path d="M12 24C18.6274 24 24 18.6274 24 12C24 5.37258 18.6274 0 12 0C5.37258 0 0 5.37258 0 12C0 18.6274 5.37258 24 12 24Z" fill="#F0F0F0"/>
<path d="M21.4264 9.65199H17.4786C17.4786 8.93164 16.8946 8.34766 16.1743 8.34766L15.1308 10.4346C15.1308 10.4346 16.2439 13.565 16.2091 13.565H17.5134C18.2338 13.565 18.8177 12.9811 18.8177 12.2607C19.5381 12.2607 20.1221 11.6768 20.1221 10.9564H20.0786C20.799 10.9563 21.4264 10.3724 21.4264 9.65199Z" fill="#ACABB1"/>
<path d="M2.57416 9.65199H6.52197C6.52197 8.93164 7.10595 8.34766 7.82631 8.34766L8.86981 10.4346C8.86981 10.4346 7.75674 13.565 7.79155 13.565H6.48721C5.76681 13.565 5.18288 12.9811 5.18288 12.2607C4.46247 12.2607 3.87854 11.6768 3.87854 10.9564H3.92198C3.20158 10.9563 2.57416 10.3724 2.57416 9.65199Z" fill="#ACABB1"/>
<path d="M16.1737 16.6953V17.217H7.82584V16.6953H5.73889V18.7823H7.82584V19.304H16.1737V18.7823H18.2606V16.6953H16.1737Z" fill="#FFDA44"/>
<path d="M7.82587 8.34887V13.5662C7.82587 16.7612 11.9998 17.7402 11.9998 17.7402C11.9998 17.7402 16.1736 16.7612 16.1736 13.5662V8.34887L11.9998 7.82715L7.82587 8.34887Z" fill="#0052B4"/>
<path d="M16.1736 10.4346H7.82587V13.565H16.1736V10.4346Z" fill="#D80027"/>
<path d="M14.0867 5.73881V6.52142L13.565 6.78231L13.0433 6.26054V4.69531H10.9563V6.26054L10.4346 6.78231L9.91281 6.52142V5.73881H7.82587V8.34748H16.1737V5.73881H14.0867Z" fill="#FFDA44"/>
</g>
<defs>
<clipPath id="clip0_2941_30090">
<rect width="24" height="24" fill="white"/>
</clipPath>
</defs>
</svg>
