<svg width="24" height="24" viewBox="0 0 24 24" fill="none" xmlns="http://www.w3.org/2000/svg">
<g clip-path="url(#clip0_2941_28655)">
<path d="M24 12C24 18.6274 18.6274 24 12 24C5.37262 24 0 18.6274 0 12C0 12.0029 12 0.0013125 12 0C18.6274 0 24 5.37262 24 12Z" fill="#D80027"/>
<path d="M11.9998 5.73926V9.78659L7.82596 5.73926H11.9998Z" fill="#0052B4"/>
<path d="M6.26076 12.0003H9.78628L6.26076 7.30469L5.73904 10.9569L6.26076 12.0003Z" fill="#0052B4"/>
<path d="M11.9683 12.0019H12.0005C12.0005 11.9911 12.0005 11.9806 12.0005 11.9697C11.9898 11.9805 11.9791 11.9912 11.9683 12.0019Z" fill="#F0F0F0"/>
<path d="M11.9991 6.26184C11.9991 4.15035 11.9991 2.76684 11.9991 0.000976562H11.9971C5.37054 0.00210156 -0.000915527 5.37421 -0.000915527 12.001H6.25994V8.47546L9.78546 12.001H11.967C11.9777 11.9903 11.9884 11.9796 11.9991 11.9689C11.9991 11.1604 11.9991 10.4391 11.9991 9.78745L8.47352 6.26184H11.9991Z" fill="#F0F0F0"/>
<path d="M6.0706 1.56543C4.19377 2.63413 2.63345 4.19442 1.56479 6.07125V12.522H4.69524V4.69598V4.69589H12.5213C12.5213 3.70856 12.5213 2.76796 12.5213 1.56543H6.0706Z" fill="#D80027"/>
<path d="M12.4764 11.0002L7.73579 6.25977H6.26016V6.25986L12.4762 12.4759H12.4763C12.4764 12.476 12.4764 11.4584 12.4764 11.0002Z" fill="#D80027"/>
<path d="M13.5652 6.25977V11.9989C13.5652 14.7945 20.8696 14.7945 20.8696 11.9989V6.25977H13.5652Z" fill="#F3F3F3"/>
<path d="M13.5652 12.001V12.001C13.5652 14.7966 17.2174 15.6532 17.2174 15.6532C17.2174 15.6532 20.8696 14.7966 20.8696 12.001V12.001H13.5652Z" fill="#6DA544"/>
<path d="M17.2175 9.7041L15.5218 10.4346V11.9998L17.2175 13.0432L18.9131 11.9998V10.4346L17.2175 9.7041Z" fill="#A2001D"/>
<path d="M18.9131 8.86816H15.5218V10.4334H18.9131V8.86816Z" fill="#338AF3"/>
</g>
<defs>
<clipPath id="clip0_2941_28655">
<rect width="24" height="24" fill="white"/>
</clipPath>
</defs>
</svg>
