<svg width="24" height="24" viewBox="0 0 24 24" fill="none" xmlns="http://www.w3.org/2000/svg">
<g clip-path="url(#clip0_2941_28846)">
<path d="M12.0004 23.9975C18.6269 23.9975 23.9987 18.6257 23.9987 11.9992C23.9987 5.37277 18.6269 0.000976562 12.0004 0.000976562C5.37399 0.000976562 0.00219727 5.37277 0.00219727 11.9992C0.00219727 18.6257 5.37399 23.9975 12.0004 23.9975Z" fill="#F0F0F0"/>
<path d="M1.60952 6.00098C1.06796 6.93887 0.668487 7.91942 0.402466 8.91821L20.4681 20.5032C21.2001 19.7734 21.8496 18.9371 22.391 17.9992L1.60952 6.00098Z" fill="black"/>
<path d="M17.9988 1.6092C13.1979 -1.16253 7.27843 -0.238742 3.53177 3.4969L23.5974 15.0818C24.9593 9.9694 22.7995 4.38098 17.9988 1.6092Z" fill="#FFDA44"/>
<path d="M6.00067 22.3897C10.8014 25.1614 16.7211 24.2376 20.4676 20.502L0.40194 8.91699C-0.959855 14.0295 1.19982 19.6179 6.00067 22.3897Z" fill="#FFDA44"/>
<path d="M15.3909 10.696C15.3909 12.5687 13.8728 14.0868 12.0001 14.0868C10.1274 14.0868 8.60925 12.5687 8.60925 10.696C8.60925 10.1121 8.75687 9.56269 9.01684 9.08301C8.28103 9.83551 7.82675 10.8645 7.82675 12.0001C7.82675 14.305 9.69518 16.1735 12.0001 16.1735C14.305 16.1735 16.1734 14.305 16.1734 12.0001C16.1734 10.8645 15.7192 9.83551 14.9833 9.08301C15.2433 9.56278 15.3909 10.1121 15.3909 10.696Z" fill="#D80027"/>
<path d="M12.7828 6.7832H11.2178V14.6082H12.7828V6.7832Z" fill="#D80027"/>
<path d="M14.6081 8.34766H9.39148C9.39148 8.7078 9.70522 8.99975 10.0653 8.99975H10.0436C10.0436 9.3599 10.3356 9.65184 10.6957 9.65184C10.6957 10.012 10.9877 10.3039 11.3478 10.3039H12.6519C13.012 10.3039 13.304 10.012 13.304 9.65184C13.6641 9.65184 13.9561 9.3599 13.9561 8.99975H13.9344C14.2944 8.9997 14.6081 8.70785 14.6081 8.34766Z" fill="#D80027"/>
<path d="M15.6521 15.1299H8.34879V16.6949H15.6521V15.1299Z" fill="#D80027"/>
<path d="M16.6947 15.6504H13.5648V17.2154H16.6947V15.6504Z" fill="#D80027"/>
<path d="M10.435 15.6504H7.30502V17.2154H10.435V15.6504Z" fill="#D80027"/>
</g>
<defs>
<clipPath id="clip0_2941_28846">
<rect width="24" height="24" fill="white"/>
</clipPath>
</defs>
</svg>
