<svg width="24" height="24" viewBox="0 0 24 24" fill="none" xmlns="http://www.w3.org/2000/svg">
<g clip-path="url(#clip0_2941_29896)">
<path d="M12 24C18.6274 24 24 18.6274 24 12C24 5.37258 18.6274 0 12 0C5.37258 0 0 5.37258 0 12C0 18.6274 5.37258 24 12 24Z" fill="#F0F0F0"/>
<path d="M11.9998 0.000981008C11.9886 -0.00745649 -0.00336997 11.9978 -0.00018247 12.001C-0.00018247 5.37361 5.37244 0.000981008 11.9998 0.000981008Z" fill="#D80027"/>
<path d="M11.9998 4.44543e-06C12.011 -0.00843305 24.003 11.9968 23.9998 12C23.9998 5.37263 18.6271 4.44543e-06 11.9998 4.44543e-06Z" fill="#D80027"/>
<path d="M11.9995 23.999C11.9883 24.0075 -0.00367515 12.0022 -0.000487646 11.999C-0.000487646 18.6264 5.37214 23.999 11.9995 23.999Z" fill="#0052B4"/>
<path d="M11.9995 23.999C12.0107 24.0075 24.0027 12.0022 23.9995 11.999C23.9995 18.6264 18.6269 23.999 11.9995 23.999Z" fill="#0052B4"/>
<path d="M12 6.26074L13.295 10.2465H17.4859L14.0954 12.7098L15.3904 16.6956L12 14.2322L8.6095 16.6956L9.90457 12.7098L6.5141 10.2465H10.7049L12 6.26074Z" fill="#FFDA44"/>
</g>
<defs>
<clipPath id="clip0_2941_29896">
<rect width="24" height="24" fill="white"/>
</clipPath>
</defs>
</svg>
