<svg width="24" height="24" viewBox="0 0 24 24" fill="none" xmlns="http://www.w3.org/2000/svg">
<g clip-path="url(#clip0_2941_29991)">
<path d="M5.23688 21.9126C7.16278 23.2291 9.49139 23.9996 12.0003 23.9996C14.5093 23.9996 16.8379 23.2291 18.7638 21.9126L12.0003 20.8691L5.23688 21.9126Z" fill="#D80027"/>
<path d="M18.7638 2.08697C16.8379 0.770484 14.5093 0 12.0003 0C9.49139 0 7.16269 0.770484 5.23688 2.08697L12.0003 3.13045L18.7638 2.08697Z" fill="#D80027"/>
<path d="M5.23688 21.9126C7.16278 23.2291 9.49139 23.9996 12.0003 23.9996C14.5093 23.9996 16.8379 23.2291 18.7638 21.9126L12.0003 20.8691L5.23688 21.9126Z" fill="#D80027"/>
<path d="M18.7638 2.08697C16.8379 0.770484 14.5093 0 12.0003 0C9.49139 0 7.16269 0.770484 5.23688 2.08697L12.0003 3.13045L18.7638 2.08697Z" fill="#D80027"/>
<path d="M23.9703 11.2164C23.686 7.5128 21.4357 3.91205 18.7643 2.08594H5.23739C2.27789 4.10911 0.270375 7.42261 0.026062 11.2164L12.0008 11.999L23.9703 11.2164Z" fill="#0052B4"/>
<path d="M0.0250854 12.7816C0.269398 16.5755 2.27687 19.8889 5.23637 21.9121H18.7633C21.7229 19.889 23.7303 16.5755 23.9746 12.7816L11.9999 11.999L0.0250854 12.7816Z" fill="#0052B4"/>
<path d="M23.9695 11.2176H12.7827V1.56543H11.2175V11.2176H0.0253267C0.00868603 11.4763 6.10352e-05 11.7373 6.10352e-05 12.0002C6.10352e-05 12.2632 0.00863916 12.5241 0.0252798 12.7828H11.2175V22.435H12.7827V12.7828H23.9749C23.9915 12.5241 24.0001 12.2632 24.0001 12.0002C24.0001 11.7392 23.9895 11.4781 23.9695 11.2176Z" fill="#D80027"/>
<path d="M4.69586 11.9992L12.0002 7.4082L19.3045 11.9992L12.0002 16.5903L4.69586 11.9992Z" fill="#F0F0F0"/>
<path d="M7.82593 14.0875H17.2172L15.1303 10.957L14.0868 12.0005L13.0433 11.4788L11.9998 13.044H9.91285L8.86937 12.0005L7.82593 14.0875Z" fill="#6DA544"/>
<path d="M12.0003 8.86914L12.2593 9.66625H13.0974L12.4194 10.159L12.6784 10.9561L12.0003 10.4635L11.3222 10.9561L11.5812 10.159L10.9032 9.66625H11.7413L12.0003 8.86914Z" fill="#FFDA44"/>
<path d="M12.0002 6.09668L2.60895 11.9995L12.0002 17.9022L21.3916 11.9995L12.0002 6.09668ZM5.55026 11.9995L12.0002 7.94538L18.4503 11.9995L12.0002 16.0535L5.55026 11.9995Z" fill="#D80027"/>
</g>
<defs>
<clipPath id="clip0_2941_29991">
<rect width="24" height="24" fill="white"/>
</clipPath>
</defs>
</svg>
