<svg width="24" height="24" viewBox="0 0 24 24" fill="none" xmlns="http://www.w3.org/2000/svg">
<g clip-path="url(#clip0_2941_28770)">
<path d="M12 24C18.6274 24 24 18.6274 24 12C24 5.37258 18.6274 0 12 0C5.37258 0 0 5.37258 0 12C0 18.6274 5.37258 24 12 24Z" fill="#F0F0F0"/>
<path d="M3.51494 3.51432C0.943141 6.08612 -0.216875 9.5349 0.0340473 12.898L12.8986 0.0334789C9.53547 -0.21749 6.08674 0.942526 3.51494 3.51432Z" fill="#FFDA44"/>
<path d="M4.28491 21.1902C8.99965 25.1568 16.0477 24.9222 20.4854 20.4846C24.923 16.047 25.1576 8.99887 21.1909 4.28418L4.28491 21.1902Z" fill="#0052B4"/>
<path d="M11.9569 11.5172L12.991 10.957L11.9569 10.3969C11.7155 8.82837 10.4762 7.58904 8.90771 7.34763L8.34751 6.31348L7.78735 7.34759C6.21892 7.58899 4.97963 8.82832 4.73813 10.3968L3.70398 10.957L4.73809 11.5172C4.97954 13.0857 6.21882 14.325 7.7873 14.5664L8.34751 15.6005L8.90766 14.5664C10.4762 14.325 11.7155 13.0857 11.9569 11.5172ZM8.34755 13.044C7.19495 13.044 6.26059 12.1097 6.26059 10.957C6.26059 9.80435 7.1949 8.87004 8.34755 8.87004C9.50021 8.87004 10.4345 9.80435 10.4345 10.957C10.4345 12.1097 9.50016 13.044 8.34755 13.044Z" fill="black"/>
<path d="M8.34773 9.39062L8.79956 10.1732H9.70326L9.25139 10.9558L9.70326 11.7385H8.79956L8.34773 12.521L7.8959 11.7385H6.99225L7.44408 10.9558L6.99225 10.1732H7.8959L8.34773 9.39062Z" fill="#D80027"/>
</g>
<defs>
<clipPath id="clip0_2941_28770">
<rect width="24" height="24" fill="white"/>
</clipPath>
</defs>
</svg>
