<svg width="24" height="24" viewBox="0 0 24 24" fill="none" xmlns="http://www.w3.org/2000/svg">
<g clip-path="url(#clip0_2941_28608)">
<path d="M12 24C18.6274 24 24 18.6274 24 12C24 5.37258 18.6274 0 12 0C5.37258 0 0 5.37258 0 12C0 18.6274 5.37258 24 12 24Z" fill="#FFDA44"/>
<path d="M7.30568 7.82513H23.2549C21.5594 3.25552 17.1609 -0.000976562 12.0013 -0.000976562C8.68756 -0.000976562 5.68789 1.34241 3.51645 3.51413L7.30568 7.82513Z" fill="#338AF3"/>
<path d="M7.30468 16.1729H23.2539C21.5584 20.7425 17.1599 23.999 12.0003 23.999C8.68655 23.999 5.68688 22.6556 3.51544 20.4839L7.30468 16.1729Z" fill="#338AF3"/>
<path d="M3.51444 3.51465C-1.17184 8.20093 -1.17184 15.7989 3.51444 20.4853C5.45098 18.5487 7.31347 16.6862 11.9997 12L3.51444 3.51465Z" fill="black"/>
</g>
<defs>
<clipPath id="clip0_2941_28608">
<rect width="24" height="24" fill="white"/>
</clipPath>
</defs>
</svg>
