<svg width="24" height="24" viewBox="0 0 24 24" fill="none" xmlns="http://www.w3.org/2000/svg">
<g clip-path="url(#clip0_2941_28782)">
<path d="M0.567052 8.34789C0.199458 9.49956 0.000380379 10.7264 0.000427254 12.0001C0.000380379 13.2736 0.199459 14.5005 0.567099 15.6522L12.0004 16.174L23.4337 15.6522C23.8013 14.5005 24.0004 13.2736 24.0004 12.0001C24.0004 10.7265 23.8013 9.49956 23.4337 8.34789L12.0004 7.82617L0.567052 8.34789Z" fill="#F0F0F0"/>
<path d="M24.0003 12.0001C24.0003 11.2882 23.938 10.5909 23.8191 9.91309H0.181648C0.0626794 10.5909 0.000335693 11.2881 0.000335693 12.0001C0.000335693 12.712 0.0627263 13.4092 0.181648 14.087H23.8191C23.9379 13.4092 24.0003 12.7119 24.0003 12.0001Z" fill="black"/>
<path d="M11.9999 23.9992C17.3537 23.9992 21.888 20.4929 23.4331 15.6514H0.566528C2.11176 20.4928 6.64603 23.9991 11.9999 23.9992Z" fill="#338AF3"/>
<path d="M12.0004 -0.000976561C6.64653 -0.000976561 2.11231 3.50541 0.566986 8.34676L23.4335 8.34681C21.8884 3.50541 17.3541 -0.00107031 12.0004 -0.000976561Z" fill="#338AF3"/>
</g>
<defs>
<clipPath id="clip0_2941_28782">
<rect width="24" height="24" fill="white"/>
</clipPath>
</defs>
</svg>
