<svg width="24" height="24" viewBox="0 0 24 24" fill="none" xmlns="http://www.w3.org/2000/svg">
<g clip-path="url(#clip0_2941_28626)">
<path d="M12 24C18.6274 24 24 18.6274 24 12C24 5.37258 18.6274 0 12 0C5.37258 0 0 5.37258 0 12C0 18.6274 5.37258 24 12 24Z" fill="#FCFCFC"/>
<path d="M4.95669 11.1283L3.65234 8.76188L4.95669 6.43262L6.26103 8.76188L4.95669 11.1283Z" fill="#A2001D"/>
<path d="M2.34777 11.1283L1.04343 8.76188L2.34777 6.43262L3.65211 8.76188L2.34777 11.1283Z" fill="#A2001D"/>
<path d="M4.95669 17.5638L3.65234 15.1974L4.95669 12.8682L6.26103 15.1974L4.95669 17.5638Z" fill="#A2001D"/>
<path d="M2.34777 17.5638L1.04343 15.1974L2.34777 12.8682L3.65211 15.1974L2.34777 17.5638Z" fill="#A2001D"/>
<path d="M6.26053 2.32838L5.89125 1.66895C5.2289 2.06138 4.60767 2.51574 4.03528 3.02406L4.95619 4.69473L6.26053 2.32838Z" fill="#A2001D"/>
<path d="M4.95617 19.3037L4.02551 20.9657C4.59739 21.4747 5.2182 21.9297 5.88026 22.323L6.26056 21.633L4.95617 19.3037Z" fill="#A2001D"/>
<path d="M7.3042 15.1309V23.0463C8.7465 23.6602 10.3334 24.0004 11.9999 24.0004C17.1594 24.0004 21.5579 20.7439 23.2535 16.1743L7.3042 15.1309Z" fill="#6DA544"/>
<path d="M23.2535 16.1739C23.7359 14.8739 23.9999 13.4678 23.9999 12C23.9999 5.37263 18.6272 0 11.9999 0C10.3335 0 8.7465 0.339984 7.3042 0.953813V16.1739H23.2535V16.1739Z" fill="#A2001D"/>
</g>
<defs>
<clipPath id="clip0_2941_28626">
<rect width="24" height="24" fill="white"/>
</clipPath>
</defs>
</svg>
