<svg width="24" height="24" viewBox="0 0 24 24" fill="none" xmlns="http://www.w3.org/2000/svg">
<g clip-path="url(#clip0_2941_28641)">
<path d="M23.9996 12.0002C23.9996 7.88174 21.9245 4.24832 18.7631 2.0872L11.9996 1.56543L5.23615 2.08715C2.07476 4.24832 -0.000396729 7.88179 -0.000396729 12.0002C-0.000396729 16.1188 2.07476 19.7521 5.23615 21.9133L11.9996 22.435L18.7631 21.9133C21.9245 19.7521 23.9996 16.1188 23.9996 12.0002Z" fill="#0052B4"/>
<path d="M18.7639 2.08697C16.8381 0.770438 14.5094 0 12.0005 0C9.49159 0 7.16289 0.770438 5.23703 2.08697H18.7639Z" fill="#A2001D"/>
<path d="M5.2363 21.9131C7.16211 23.2296 9.49086 24.0001 11.9998 24.0001C14.5087 24.0001 16.8373 23.2296 18.7632 21.9131H5.2363Z" fill="#A2001D"/>
<path d="M12.0004 17.7381C15.17 17.7381 17.7396 15.1686 17.7396 11.9989C17.7396 8.82927 15.17 6.25977 12.0004 6.25977C8.83076 6.25977 6.26126 8.82927 6.26126 11.9989C6.26126 15.1686 8.83076 17.7381 12.0004 17.7381Z" fill="#F0F0F0"/>
<path d="M11.9999 16.695C14.5932 16.695 16.6956 14.5927 16.6956 11.9994C16.6956 9.40603 14.5932 7.30371 11.9999 7.30371C9.40655 7.30371 7.30423 9.40603 7.30423 11.9994C7.30423 14.5927 9.40655 16.695 11.9999 16.695Z" fill="#6DA544"/>
<path d="M11.9997 15.1291C13.7286 15.1291 15.1301 13.7275 15.1301 11.9986C15.1301 10.2697 13.7286 8.86816 11.9997 8.86816C10.2708 8.86816 8.8692 10.2697 8.8692 11.9986C8.8692 13.7275 10.2708 15.1291 11.9997 15.1291Z" fill="#F0F0F0"/>
<path d="M11.9995 11.2168L10.3039 11.9994V13.3038L11.9995 14.3473L13.6952 13.3038V11.9994L11.9995 11.2168Z" fill="#0052B4"/>
<path d="M13.6952 10.4355H10.3039V12.0008H13.6952V10.4355Z" fill="#FFDA44"/>
</g>
<defs>
<clipPath id="clip0_2941_28641">
<rect width="24" height="24" fill="white"/>
</clipPath>
</defs>
</svg>
