<svg width="24" height="24" viewBox="0 0 24 24" fill="none" xmlns="http://www.w3.org/2000/svg">
<g clip-path="url(#clip0_2941_28960)">
<path d="M12 24C18.6274 24 24 18.6274 24 12C24 5.37258 18.6274 0 12 0C5.37258 0 0 5.37258 0 12C0 18.6274 5.37258 24 12 24Z" fill="#6DA544"/>
<path d="M18.4213 17.2178L18.7506 17.9063L19.4942 17.7345L19.1612 18.4212L19.7592 18.8954L19.0146 19.0632L19.0167 19.8265L18.4213 19.349L17.8259 19.8265L17.8279 19.0632L17.0834 18.8954L17.6814 18.4212L17.3484 17.7345L18.092 17.9063L18.4213 17.2178Z" fill="#FFDA44"/>
<path d="M15.3579 9.91211L15.6872 10.6007L16.4309 10.4288L16.0978 11.1156L16.6958 11.5898L15.9513 11.7576L15.9534 12.5208L15.3579 12.0433L14.7625 12.5208L14.7645 11.7576L14.0201 11.5898L14.618 11.1156L14.285 10.4288L15.0287 10.6007L15.3579 9.91211Z" fill="#FFDA44"/>
<path d="M18.4213 5.73828L18.7506 6.42683L19.4942 6.25489L19.1613 6.9417L19.7592 7.41594L19.0146 7.5837L19.0167 8.34697L18.4213 7.86945L17.8259 8.34697L17.828 7.5837L17.0835 7.41594L17.6814 6.9417L17.3484 6.25489L18.092 6.42683L18.4213 5.73828Z" fill="#FFDA44"/>
<path d="M21.0972 8.87012L21.4265 9.55866L22.1702 9.38677L21.8371 10.0736L22.4351 10.5478L21.6906 10.7156L21.6927 11.4788L21.0972 11.0013L20.5018 11.4788L20.5038 10.7156L19.7593 10.5478L20.3573 10.0736L20.0243 9.38677L20.7679 9.55866L21.0972 8.87012Z" fill="#FFDA44"/>
<path d="M19.1841 12.5215L19.4432 13.3187H20.2814L19.6032 13.8113L19.8623 14.6085L19.1841 14.1158L18.5061 14.6085L18.7651 13.8113L18.087 13.3187H18.9251L19.1841 12.5215Z" fill="#FFDA44"/>
<path d="M13.3046 15.3914C11.4316 15.3914 9.91319 13.873 9.91319 12.0001C9.91319 10.1272 11.4315 8.6088 13.3046 8.6088C13.8885 8.6088 14.438 8.7565 14.9178 9.01642C14.1652 8.28039 13.136 7.82617 12.0001 7.82617C9.69498 7.82617 7.82626 9.69489 7.82626 12.0001C7.82626 14.3052 9.69498 16.174 12.0001 16.174C13.136 16.174 14.1652 15.7197 14.9177 14.9837C14.438 15.2437 13.8885 15.3914 13.3046 15.3914Z" fill="#FFDA44"/>
<path d="M7.5469 4.69583C7.18596 4.0722 6.51213 3.65234 5.73982 3.65234C4.96751 3.65234 4.29368 4.0722 3.93274 4.69583H7.5469Z" fill="#FFDA44"/>
<path d="M7.55322 4.70801L5.7392 6.52202L3.92519 4.70801C3.7518 5.01227 3.65228 5.36416 3.65228 5.73944C3.65228 6.89205 4.58664 7.82641 5.73925 7.82641C6.89186 7.82641 7.82622 6.8921 7.82622 5.73944C7.82617 5.36416 7.72661 5.01227 7.55322 4.70801Z" fill="#FFDA44"/>
<path d="M5.21735 6.00098V7.76132C5.38408 7.80421 5.55893 7.82704 5.73907 7.82704C5.91921 7.82704 6.09405 7.80416 6.26079 7.76132V6.00098H5.21735Z" fill="#A2001D"/>
</g>
<defs>
<clipPath id="clip0_2941_28960">
<rect width="24" height="24" fill="white"/>
</clipPath>
</defs>
</svg>
