<svg width="24" height="24" viewBox="0 0 24 24" fill="none" xmlns="http://www.w3.org/2000/svg">
<g clip-path="url(#clip0_2941_29062)">
<path d="M22.6672 6.49812C22.1127 5.42379 21.3859 4.41541 20.4853 3.51485C19.5847 2.61424 18.5763 1.88745 17.502 1.33301L9.04817 9.04891L1.33221 17.5028C1.8867 18.5771 2.6135 19.5855 3.51406 20.4861C4.41462 21.3866 5.42304 22.1134 6.49732 22.6679L14.9512 14.952L22.6672 6.49812Z" fill="#FFDA44"/>
<path d="M3.51462 20.4858C4.01801 20.9892 4.55515 21.4382 5.11854 21.8334L21.8334 5.11848C21.4382 4.55509 20.9892 4.01795 20.4858 3.51455C19.9824 3.01116 19.4453 2.56224 18.8819 2.16699L2.16705 18.8819C2.56226 19.4452 3.01118 19.9824 3.51462 20.4858Z" fill="#D80027"/>
<path d="M3.51429 3.51431C-0.271664 7.30026 -0.99846 12.9861 1.33245 17.5023L17.5023 1.33251C12.986 -0.998347 7.3002 -0.271457 3.51429 3.51431Z" fill="#338AF3"/>
<path d="M20.4855 20.485C24.2714 16.6991 24.9981 11.0132 22.6674 6.49707L6.49756 22.6669C11.0137 24.9977 16.6996 24.271 20.4855 20.485Z" fill="#338AF3"/>
<path d="M6.39516 3.65137L7.04269 5.64435H9.13819L7.44291 6.87604L8.09044 8.86898L6.39516 7.63724L4.69979 8.86898L5.34741 6.87604L3.65204 5.64435H5.74754L6.39516 3.65137Z" fill="#FFDA44"/>
</g>
<defs>
<clipPath id="clip0_2941_29062">
<rect width="24" height="24" fill="white"/>
</clipPath>
</defs>
</svg>
