<svg width="24" height="24" viewBox="0 0 24 24" fill="none" xmlns="http://www.w3.org/2000/svg">
<g clip-path="url(#clip0_2941_28988)">
<path d="M24 12C24 18.6274 18.6274 24 12 24C5.37262 24 0 18.6274 0 12C0 12.0029 12 0.0013125 12 0C18.6274 0 24 5.37262 24 12Z" fill="#0052B4"/>
<path d="M11.9679 12.0009H12C12 11.9901 12 11.9796 12 11.9688C11.9893 11.9795 11.9786 11.9902 11.9679 12.0009Z" fill="#F0F0F0"/>
<path d="M11.9997 6.26184C11.9997 4.15035 11.9997 2.76684 11.9997 0.000976562H11.9977C5.37121 0.00210156 -0.000244141 5.37421 -0.000244141 12.001H6.26061V8.47546L9.78613 12.001H11.9677C11.9784 11.9903 11.9891 11.9796 11.9998 11.9689C11.9998 11.1604 11.9998 10.4391 11.9998 9.78745L8.47419 6.26184H11.9997Z" fill="#F0F0F0"/>
<path d="M6.07133 1.56445C4.19451 2.63316 2.63418 4.19344 1.56552 6.07027V11.9993H4.69597V4.695V4.69491H12.0003C12.0003 3.70758 12.0003 2.76699 12.0003 1.56445H6.07133Z" fill="#D80027"/>
<path d="M12.0001 10.5232L7.73655 6.25977H6.26093V6.25986L12 11.9989H12.0001C12.0001 11.9989 12.0001 10.9813 12.0001 10.5232Z" fill="#D80027"/>
<path d="M16.1738 12L16.3959 12.6833H17.1142L16.5331 13.1055L16.7551 13.7888L16.1738 13.3665L15.5926 13.7888L15.8146 13.1055L15.2334 12.6833H15.9518L16.1738 12Z" fill="#F0F0F0"/>
<path d="M13.2225 13.2229L13.8626 13.549L14.3706 13.041L14.2582 13.7506L14.8983 14.0768L14.1887 14.1891L14.0764 14.8988L13.7502 14.2586L13.0406 14.371L13.5487 13.863L13.2225 13.2229Z" fill="#F0F0F0"/>
<path d="M11.9995 16.1727L12.6828 15.9507L12.6829 15.2324L13.105 15.8135L13.7883 15.5915L13.366 16.1727L13.7883 16.754L13.105 16.532L12.6829 17.1132V16.3948L11.9995 16.1727Z" fill="#F0F0F0"/>
<path d="M13.2225 19.125L13.5486 18.4849L13.0406 17.977L13.7502 18.0893L14.0764 17.4492L14.1887 18.1588L14.8983 18.2711L14.2582 18.5973L14.3706 19.307L13.8626 18.7988L13.2225 19.125Z" fill="#F0F0F0"/>
<path d="M16.1737 20.3484L15.9517 19.6651H15.2333L15.8145 19.2428L15.5925 18.5596L16.1737 18.9818L16.755 18.5596L16.533 19.2428L17.1142 19.6651H16.3958L16.1737 20.3484Z" fill="#F0F0F0"/>
<path d="M19.1248 19.125L18.4847 18.799L17.9768 19.307L18.0891 18.5973L17.449 18.2712L18.1586 18.1588L18.271 17.4492L18.5971 18.0893L19.3067 17.977L18.7986 18.485L19.1248 19.125Z" fill="#F0F0F0"/>
<path d="M20.3478 16.1727L19.6645 16.3948V17.1132L19.2422 16.532L18.559 16.754L18.9813 16.1727L18.559 15.5915L19.2422 15.8135L19.6645 15.2324V15.9507L20.3478 16.1727Z" fill="#F0F0F0"/>
<path d="M19.1248 13.2229L18.7988 13.863L19.3067 14.371L18.5971 14.2585L18.271 14.8987L18.1586 14.189L17.449 14.0767L18.0891 13.7506L17.9768 13.041L18.4848 13.549L19.1248 13.2229Z" fill="#F0F0F0"/>
</g>
<defs>
<clipPath id="clip0_2941_28988">
<rect width="24" height="24" fill="white"/>
</clipPath>
</defs>
</svg>
