<svg width="24" height="24" viewBox="0 0 24 24" fill="none" xmlns="http://www.w3.org/2000/svg">
<g clip-path="url(#clip0_2941_28886)">
<path d="M17.2173 1.19072C15.6397 0.427875 13.8698 0 12 0C10.1301 0 8.36021 0.427875 6.78259 1.19072L5.73911 12L6.78259 22.8093C8.36021 23.5721 10.1301 24 12 24C13.8698 24 15.6397 23.5721 17.2173 22.8093L18.2608 12L17.2173 1.19072Z" fill="#D80027"/>
<path d="M12.0002 7.8252L13.0361 11.0136H16.389L13.6766 12.9844L14.7126 16.173L12.0002 14.2023L9.28775 16.173L10.3239 12.9844L7.61154 11.0136H10.9642L12.0002 7.8252Z" fill="#FFDA44"/>
<path d="M6.78296 1.19141C2.76905 3.13231 0.000335693 7.24273 0.000335693 12.0003C0.000335693 16.7578 2.76905 20.8682 6.78296 22.8091V1.19141Z" fill="#496E2D"/>
<path d="M17.2177 1.19141V22.8091C21.2316 20.8682 24.0004 16.7578 24.0004 12.0003C24.0004 7.24278 21.2316 3.13231 17.2177 1.19141Z" fill="#FFDA44"/>
</g>
<defs>
<clipPath id="clip0_2941_28886">
<rect width="24" height="24" fill="white"/>
</clipPath>
</defs>
</svg>
