<svg width="24" height="24" viewBox="0 0 24 24" fill="none" xmlns="http://www.w3.org/2000/svg">
<g clip-path="url(#clip0_2941_29037)">
<path d="M0.000168945 2.08691H0.00012207V21.913H0.000168945V12V2.08691Z" fill="#FF9811"/>
<path d="M12 23.9999C18.6274 23.9999 24 18.6273 24 12C24 5.37256 18.6274 0 12 0C5.37262 0 6.10352e-05 5.37256 6.10352e-05 12C6.10352e-05 18.6273 5.37262 23.9999 12 23.9999Z" fill="#F0F0F0"/>
<path d="M11.9996 0C8.07369 0 4.58834 1.88545 2.39905 4.8H21.6C19.4108 1.88541 15.9254 0 11.9996 0Z" fill="#0052B4"/>
<path d="M11.9996 24.0002C15.9254 24.0002 19.4108 22.1147 21.6001 19.2002H2.39905C4.5883 22.1148 8.07369 24.0002 11.9996 24.0002Z" fill="#0052B4"/>
<path d="M6.10352e-05 11.9996C6.10352e-05 12.8216 0.082936 13.6242 0.240389 14.3996H23.7598C23.9172 13.6242 24 12.8216 24 11.9996C24 11.1777 23.9172 10.3751 23.7598 9.59961H0.240389C0.082936 10.3751 6.10352e-05 11.1777 6.10352e-05 11.9996Z" fill="#0052B4"/>
<path d="M3.5148 3.51465C-1.17144 8.20088 -1.17144 15.7989 3.5148 20.4852C5.45134 18.5487 7.31378 16.6862 12.0001 12L3.5148 3.51465Z" fill="#D80027"/>
<path d="M4.85658 8.86914L5.63349 11.2605H8.14814L6.11391 12.7385L6.89081 15.1299L4.85658 13.6519L2.82225 15.1299L3.59934 12.7385L1.56506 11.2605H4.07953L4.85658 8.86914Z" fill="#F0F0F0"/>
</g>
<defs>
<clipPath id="clip0_2941_29037">
<rect width="24" height="24" fill="white"/>
</clipPath>
</defs>
</svg>
