<svg width="24" height="24" viewBox="0 0 24 24" fill="none" xmlns="http://www.w3.org/2000/svg">
<g clip-path="url(#clip0_2941_29046)">
<path d="M12 24C18.6274 24 24 18.6274 24 12C24 5.37258 18.6274 0 12 0C5.37258 0 0 5.37258 0 12C0 18.6274 5.37258 24 12 24Z" fill="#FFDA44"/>
<path d="M11.9999 24.0005C15.9374 24.0005 19.4319 22.1041 21.62 19.1748H2.37976C4.56789 22.1041 8.06237 24.0005 11.9999 24.0005Z" fill="#0052B4"/>
<path d="M24 12C24 5.37263 18.6274 0 12 0C5.37262 0 0 5.37263 0 12C0 13.419 0.246984 14.7803 0.699188 16.0439H23.3008C23.753 14.7803 24 13.419 24 12Z" fill="#0052B4"/>
<path d="M8.21365 7.69629L8.86114 9.68904H10.9566L9.2614 10.9208L9.90889 12.9137L8.21365 11.682L6.51842 12.9137L7.166 10.9208L5.47076 9.68904H7.56617L8.21365 7.69629Z" fill="#F0F0F0"/>
<path d="M4.61493 5.60938L5.00343 6.80506H6.26075L5.24361 7.5441L5.63211 8.73983L4.61493 8.0008L3.59779 8.73983L3.98633 7.5441L2.96924 6.80506H4.22652L4.61493 5.60938Z" fill="#F0F0F0"/>
</g>
<defs>
<clipPath id="clip0_2941_29046">
<rect width="24" height="24" fill="white"/>
</clipPath>
</defs>
</svg>
