<svg width="24" height="24" viewBox="0 0 24 24" fill="none" xmlns="http://www.w3.org/2000/svg">
<g clip-path="url(#clip0_2941_28948)">
<path d="M20.4857 20.4853C15.7994 25.1715 8.20138 25.1715 3.51506 20.4853C-1.17126 15.799 -1.17122 8.20097 3.51506 3.51465C3.88396 3.88351 13.1071 10.8931 13.1071 10.8931L20.4857 20.4853Z" fill="#0052B4"/>
<path d="M3.51508 3.5147C8.20135 -1.17157 15.7994 -1.17157 20.4857 3.5147C25.172 8.20098 25.172 15.799 20.4857 20.4853" fill="#6DA544"/>
<path d="M12.0004 15.131C13.7293 15.131 15.1308 13.7295 15.1308 12.0006C15.1308 10.2717 13.7293 8.87012 12.0004 8.87012C10.2715 8.87012 8.86993 10.2717 8.86993 12.0006C8.86993 13.7295 10.2715 15.131 12.0004 15.131Z" fill="#FFDA44"/>
<path d="M4.46831 17.2178L4.7976 17.9063L5.54118 17.7344L5.20818 18.4212L5.80621 18.8954L5.06165 19.0632L5.06371 19.8265L4.46831 19.3489L3.8729 19.8265L3.87496 19.0632L3.1304 18.8954L3.72843 18.4212L3.39539 17.7344L4.13901 17.9063L4.46831 17.2178Z" fill="#F0F0F0"/>
<path d="M2.31436 11.4775L2.64365 12.1661L3.38723 11.9941L3.05428 12.681L3.65222 13.1552L2.9077 13.323L2.90976 14.0862L2.31436 13.6088L1.719 14.0862L1.72102 13.323L0.976501 13.1552L1.57448 12.681L1.24149 11.9941L1.98506 12.1661L2.31436 11.4775Z" fill="#F0F0F0"/>
<path d="M4.46826 6.78223L4.79756 7.47077L5.54113 7.29883L5.20818 7.98565L5.80616 8.45988L5.0616 8.62764L5.06366 9.39091L4.46826 8.91344L3.87285 9.39091L3.87492 8.62764L3.1304 8.45988L3.72834 7.98565L3.39534 7.29883L4.13896 7.47077L4.46826 6.78223Z" fill="#F0F0F0"/>
<path d="M7.14419 10.4346L7.47349 11.1231L8.21711 10.9512L7.88407 11.638L8.48205 12.1122L7.73754 12.28L7.73955 13.0432L7.14419 12.5658L6.54879 13.0432L6.55085 12.28L5.80634 12.1122L6.40427 11.638L6.07132 10.9512L6.8149 11.1231L7.14419 10.4346Z" fill="#F0F0F0"/>
<path d="M5.23122 13.5645L5.49025 14.3616H6.32837L5.65028 14.8543L5.90931 15.6514L5.23122 15.1588L4.55313 15.6514L4.81216 14.8543L4.13406 14.3616H4.97219L5.23122 13.5645Z" fill="#F0F0F0"/>
<path d="M12 14.0867H13.0434C13.0434 14.0867 13.4956 13.2868 13.0434 12.5215L14.0869 11.4781L13.5652 10.4346H13.0435C13.0435 10.4346 12.7826 11.2172 11.7391 11.2172C10.6957 11.2172 10.4348 10.4346 10.4348 10.4346H9.91309L10.4348 11.4781L9.91309 12.5215L10.4348 13.0433C10.4348 13.0433 10.9565 11.9998 12 12.5215C12 12.5215 12.4434 13.1737 12 14.0867Z" fill="#6DA544"/>
<path d="M19.7889 6.5727C19.8135 6.4445 19.8266 6.31226 19.8266 6.17689C19.8266 5.24876 19.2206 4.46262 18.3828 4.19141C18.6388 4.71172 18.7831 5.2969 18.7831 5.91603C18.7831 6.12481 18.7663 6.32965 18.7348 6.52957C18.6087 6.32647 18.4467 6.14089 18.2489 5.98343C17.5035 5.39037 16.4849 5.37467 15.7319 5.87412C16.3133 6.00106 16.8754 6.25911 17.3726 6.65468C17.7619 6.96443 18.0764 7.3834 18.3172 7.78784L15.1309 8.78557C18.2614 9.30729 20.87 7.22037 20.87 7.22037C20.581 6.64231 20.1321 6.54481 19.7889 6.5727Z" fill="#FFDA44"/>
</g>
<defs>
<clipPath id="clip0_2941_28948">
<rect width="24" height="24" fill="white"/>
</clipPath>
</defs>
</svg>
