<svg width="24" height="24" viewBox="0 0 24 24" fill="none" xmlns="http://www.w3.org/2000/svg">
<g clip-path="url(#clip0_2941_29058)">
<path d="M12 24C18.6274 24 24 18.6274 24 12C24 5.37258 18.6274 0 12 0C5.37258 0 0 5.37258 0 12C0 18.6274 5.37258 24 12 24Z" fill="#F0F0F0"/>
<path d="M10.9569 11.999C10.9569 11.999 3.52211 20.486 3.51508 20.4843C5.68661 22.6559 8.68665 23.999 12.0004 23.999C18.6278 23.999 24.0004 18.6264 24.0004 11.999H10.9569Z" fill="#D80027"/>
<path d="M3.51514 3.51465C-1.17114 8.20093 -1.17114 15.7989 3.51514 20.4853C5.45169 18.5487 7.31417 16.6862 12.0005 12L3.51514 3.51465Z" fill="#0052B4"/>
</g>
<defs>
<clipPath id="clip0_2941_29058">
<rect width="24" height="24" fill="white"/>
</clipPath>
</defs>
</svg>
