<svg width="24" height="24" viewBox="0 0 24 24" fill="none" xmlns="http://www.w3.org/2000/svg">
<g clip-path="url(#clip0_2941_29076)">
<path d="M10.9563 13.0445C10.9563 13.0445 3.5215 3.51402 3.51447 3.51571C5.686 1.34413 8.68604 0.000976562 11.9998 0.000976562C18.6272 0.000976562 23.9998 5.3736 23.9998 12.001L10.9563 13.0445Z" fill="#338AF3"/>
<path d="M10.9563 11.999C10.9563 11.999 3.5215 20.486 3.51447 20.4843C5.686 22.6559 8.68604 23.999 11.9998 23.999C18.6272 23.999 23.9998 18.6264 23.9998 11.999H10.9563Z" fill="#6DA544"/>
<path d="M3.51441 3.51465C-1.17188 8.20093 -1.17188 15.7989 3.51441 20.4853C5.45095 18.5487 7.31344 16.6862 11.9997 12L3.51441 3.51465Z" fill="#F0F0F0"/>
<path d="M4.85633 8.86914L5.63329 11.2605H8.14794L6.11366 12.7386L6.89057 15.13L4.85633 13.652L2.82201 15.13L3.5991 12.7386L1.56482 11.2605H4.07929L4.85633 8.86914Z" fill="#D80027"/>
</g>
<defs>
<clipPath id="clip0_2941_29076">
<rect width="24" height="24" fill="white"/>
</clipPath>
</defs>
</svg>
