<svg width="24" height="24" viewBox="0 0 24 24" fill="none" xmlns="http://www.w3.org/2000/svg">
<g clip-path="url(#clip0_2941_29069)">
<path d="M12 24C18.6274 24 24 18.6274 24 12C24 5.37258 18.6274 0 12 0C5.37258 0 0 5.37258 0 12C0 18.6274 5.37258 24 12 24Z" fill="#F0F0F0"/>
<path d="M9.39201 10.4348H23.8991C23.1321 4.54697 18.0975 0 12.0007 0C11.1046 0 10.232 0.0990469 9.39197 0.285234V10.4348H9.39201Z" fill="#D80027"/>
<path d="M6.26146 10.4356V1.45996C2.96647 3.2578 0.607626 6.55551 0.102173 10.4357H6.26146V10.4356Z" fill="#D80027"/>
<path d="M6.26098 13.5654H0.101746C0.607199 17.4456 2.96604 20.7433 6.26103 22.5411L6.26098 13.5654Z" fill="#D80027"/>
<path d="M9.39197 13.5655V23.715C10.232 23.9012 11.1046 24.0002 12.0007 24.0002C18.0975 24.0002 23.1321 19.4533 23.8991 13.5654H9.39197V13.5655Z" fill="#D80027"/>
</g>
<defs>
<clipPath id="clip0_2941_29069">
<rect width="24" height="24" fill="white"/>
</clipPath>
</defs>
</svg>
