<svg width="24" height="24" viewBox="0 0 24 24" fill="none" xmlns="http://www.w3.org/2000/svg">
<g clip-path="url(#clip0_2941_29081)">
<path d="M12 24C18.6274 24 24 18.6274 24 12C24 5.37258 18.6274 0 12 0C5.37258 0 0 5.37258 0 12C0 18.6274 5.37258 24 12 24Z" fill="#F0F0F0"/>
<path d="M14.3481 23.7695C19.092 22.8285 22.829 19.0915 23.77 14.3477H14.3481V23.7695Z" fill="#496E2D"/>
<path d="M0.230164 14.3477C1.17118 19.0915 4.90815 22.8285 9.65204 23.7695V14.3477H0.230164Z" fill="#496E2D"/>
<path d="M23.77 9.65234C22.829 4.9085 19.092 1.17153 14.3481 0.230469V9.65234H23.77Z" fill="#496E2D"/>
<path d="M9.6524 0.230469C4.90851 1.17153 1.17155 4.9085 0.23053 9.65234H9.6524V0.230469Z" fill="#496E2D"/>
<path d="M11.2171 14.3477H9.65186V23.7695C10.1627 23.8708 10.6852 23.9395 11.2171 23.9737V14.3477Z" fill="#FFDA44"/>
<path d="M11.2176 9.65243V0.0263672C10.6857 0.0605859 10.1632 0.129258 9.6524 0.230555V9.65243H11.2176Z" fill="#FFDA44"/>
<path d="M12.7823 0.0270859C12.5234 0.0103516 12.2627 0.000976562 11.9997 0.000976562C11.7366 0.000976562 11.4759 0.0103516 11.217 0.0270859V9.6532H12.7822V0.0270859H12.7823Z" fill="black"/>
<path d="M11.217 23.9737C11.4759 23.9905 11.7366 23.9998 11.9997 23.9998C12.2627 23.9998 12.5234 23.9905 12.7823 23.9737V14.3477H11.2171V23.9737H11.217Z" fill="black"/>
<path d="M9.65206 11.2175V9.65234H0.230188C0.128845 10.1632 0.0602197 10.6857 0.026001 11.2175H9.65206Z" fill="#FFDA44"/>
<path d="M14.3478 11.2185H23.9739C23.9397 10.6866 23.8711 10.1642 23.7698 9.65332H14.3479V11.2185H14.3478Z" fill="#FFDA44"/>
<path d="M14.348 12.783H23.9741C23.9908 12.5242 24.0002 12.2634 24.0002 12.0004C24.0002 11.7374 23.9908 11.4766 23.9741 11.2178H14.348V12.783Z" fill="black"/>
<path d="M0.0260483 11.2178C0.00936084 11.4766 -6.10352e-05 11.7374 -6.10352e-05 12.0004C-6.10352e-05 12.2634 0.00936084 12.5242 0.0260483 12.783H9.65216V11.2178H0.0260483V11.2178Z" fill="black"/>
<path d="M11.9999 17.739C15.1695 17.739 17.739 15.1695 17.739 11.9999C17.739 8.83024 15.1695 6.26074 11.9999 6.26074C8.83024 6.26074 6.26074 8.83024 6.26074 11.9999C6.26074 15.1695 8.83024 17.739 11.9999 17.739Z" fill="#D80027"/>
<path d="M13.307 12.6414C12.8801 11.7877 12.3252 10.9224 12.3252 10.9224C12.3252 10.9224 12.339 10.5284 12.339 10.2936C12.339 9.94001 12.0523 9.65332 11.6987 9.65332C11.3637 9.65332 11.0892 9.91071 11.0612 10.2384C10.7977 10.2556 10.5893 10.4741 10.5893 10.7419C10.5893 10.9366 10.6996 11.1053 10.861 11.1896C10.9413 11.0019 11.0984 10.8554 11.2927 10.7886C11.3244 10.8145 11.3585 10.8377 11.3948 10.8573L11.4768 10.8966C11.4768 10.8966 11.1727 11.754 11.1727 12.2146C11.1727 13.5094 12.0264 13.9088 12.0264 13.9088V13.9221L11.5995 14.349H12.4533V13.4952L12.8802 13.9221C12.8839 13.9141 13.6888 13.4051 13.307 12.6414Z" fill="#496E2D"/>
<path d="M11.9996 7.30469L12.1938 7.90253H12.8224L12.3139 8.27205L12.5082 8.86989L11.9996 8.50042L11.491 8.86989L11.6853 8.27205L11.1768 7.90253H11.8054L11.9996 7.30469Z" fill="#496E2D"/>
<path d="M9.23994 8.20219L9.74844 8.57171L10.257 8.20215L10.0628 8.80009L10.5714 9.16951L9.94274 9.16956L9.74849 9.7674L9.55419 9.16956L8.9256 9.16951L9.43414 8.79999L9.23994 8.20219Z" fill="#496E2D"/>
<path d="M7.53406 10.549H8.1626L8.3569 9.95117L8.55115 10.549L9.17979 10.549L8.67124 10.9185L8.86554 11.5164L8.3569 11.1469L7.84835 11.5163L8.04256 10.9185L7.53406 10.549Z" fill="#496E2D"/>
<path d="M7.53406 13.4517L8.04256 13.0823L7.84831 12.4844L8.3569 12.8539L8.86549 12.4844L8.67124 13.0822L9.17984 13.4517L8.55115 13.4518L8.3569 14.0496L8.1626 13.4517H7.53406Z" fill="#496E2D"/>
<path d="M9.23987 15.7995L9.43407 15.2018L8.92548 14.8323H9.55412L9.74841 14.2344L9.94266 14.8322H10.5713L10.0627 15.2018L10.257 15.7996L9.74836 15.4301L9.23987 15.7995Z" fill="#496E2D"/>
<path d="M11.9996 16.697L11.8054 16.0993H11.1768L11.6853 15.7297L11.491 15.1319L11.9996 15.5013L12.5081 15.1318L12.3139 15.7297L12.8224 16.0992L12.1938 16.0993L11.9996 16.697Z" fill="#496E2D"/>
<path d="M14.7602 15.7995L14.2517 15.4301L13.7432 15.7996L13.9374 15.2018L13.4288 14.8323L14.0574 14.8322L14.2516 14.2344L14.446 14.8323H15.0746L14.566 15.2018L14.7602 15.7995Z" fill="#496E2D"/>
<path d="M16.466 13.4516H15.8375L15.6432 14.0495L15.4489 13.4517H14.8203L15.3288 13.0822L15.1345 12.4844L15.6432 12.8538L16.1517 12.4844L15.9575 13.0822L16.466 13.4516Z" fill="#496E2D"/>
<path d="M16.466 10.549L15.9575 10.9184L16.1517 11.5163L15.6432 11.1468L15.1346 11.5164L15.3288 10.9185L14.8203 10.549L15.4489 10.5489L15.6431 9.95117L15.8375 10.549H16.466Z" fill="#496E2D"/>
<path d="M14.7602 8.20215L14.566 8.79995L15.0746 9.16946H14.446L14.2517 9.76736L14.0574 9.16951L13.4288 9.16956L13.9374 8.79995L13.7431 8.2022L14.2517 8.57162L14.7602 8.20215Z" fill="#496E2D"/>
</g>
<defs>
<clipPath id="clip0_2941_29081">
<rect width="24" height="24" fill="white"/>
</clipPath>
</defs>
</svg>
