<svg width="24" height="24" viewBox="0 0 24 24" fill="none" xmlns="http://www.w3.org/2000/svg">
<g clip-path="url(#clip0_2941_30112)">
<path d="M1.19115 6.78274C0.428302 8.36037 0.000427246 10.1302 0.000427246 12.0001C0.000427246 13.87 0.428302 15.6399 1.19115 17.2175L12.0004 18.261L22.8097 17.2175C23.5726 15.6399 24.0004 13.87 24.0004 12.0001C24.0004 10.1302 23.5726 8.36037 22.8097 6.78274L12.0004 5.73926L1.19115 6.78274Z" fill="#F0F0F0"/>
<path d="M1.19098 17.2168C3.13189 21.2307 7.24231 23.9994 11.9998 23.9994C16.7574 23.9994 20.8678 21.2307 22.8087 17.2168H1.19098Z" fill="black"/>
<path d="M1.19098 6.78262H22.8087C20.8678 2.76867 16.7574 0 11.9998 0C7.24231 0 3.13189 2.76867 1.19098 6.78262Z" fill="#D80027"/>
<path d="M3.51514 3.51367C-1.17114 8.19995 -1.17114 15.798 3.51514 20.4843C5.45169 18.5478 7.31417 16.6853 12.0005 11.999L3.51514 3.51367Z" fill="#496E2D"/>
</g>
<defs>
<clipPath id="clip0_2941_30112">
<rect width="24" height="24" fill="white"/>
</clipPath>
</defs>
</svg>
