<svg width="24" height="24" viewBox="0 0 24 24" fill="none" xmlns="http://www.w3.org/2000/svg">
<g clip-path="url(#clip0_2941_28510)">
<path d="M12.0004 0C18.6277 0 24.0004 5.37262 24.0004 12C24.0004 18.6274 18.6277 24 12.0004 24C12.0004 23.4783 10.4352 12 10.4352 12L12.0004 0Z" fill="#F0F0F0"/>
<path d="M12 24C5.37262 24 0 18.6274 0 12C0 5.37262 5.37262 0 12 0" fill="#496E2D"/>
<path d="M14.578 9.69922L13.5934 11.056L11.9989 10.5389L12.9851 11.8945L12.0006 13.2513L13.5945 12.7324L14.5807 14.0879L14.5797 12.4116L16.1736 11.8926L14.5791 11.3756L14.578 9.69922Z" fill="#D80027"/>
<path d="M12.9952 15.3924C11.1222 15.3924 9.60386 13.874 9.60386 12.0011C9.60386 10.1281 11.1222 8.60977 12.9952 8.60977C13.5791 8.60977 14.1287 8.75743 14.6084 9.0174C13.8558 8.28141 12.8266 7.82715 11.6908 7.82715C9.38561 7.82715 7.51694 9.69587 7.51694 12.001C7.51694 14.3062 9.38566 16.1749 11.6908 16.1749C12.8266 16.1749 13.8558 15.7207 14.6084 14.9847C14.1287 15.2447 13.5791 15.3924 12.9952 15.3924Z" fill="#D80027"/>
</g>
<defs>
<clipPath id="clip0_2941_28510">
<rect width="24" height="24" fill="white"/>
</clipPath>
</defs>
</svg>
