<svg width="24" height="24" viewBox="0 0 24 24" fill="none" xmlns="http://www.w3.org/2000/svg">
<g clip-path="url(#clip0_2941_29153)">
<path d="M-0.000305176 11.9994C-0.000305176 13.4672 0.263742 14.8733 0.746085 16.1733L11.9997 16.695L23.2533 16.1733C23.7357 14.8733 23.9997 13.4672 23.9997 11.9994C23.9997 10.5315 23.7357 9.12546 23.2533 7.82548L11.9997 7.30371L0.746085 7.82543C0.263742 9.12546 -0.000305176 10.5315 -0.000305176 11.9994Z" fill="black"/>
<path d="M11.9996 0C6.84006 0 2.44155 3.2565 0.746033 7.82611H23.2533C21.5577 3.2565 17.1592 0 11.9996 0Z" fill="#0052B4"/>
<path d="M23.2533 16.1738H0.746033C2.44155 20.7434 6.84006 23.9999 11.9996 23.9999C17.1592 23.9999 21.5577 20.7434 23.2533 16.1738Z" fill="#F0F0F0"/>
</g>
<defs>
<clipPath id="clip0_2941_29153">
<rect width="24" height="24" fill="white"/>
</clipPath>
</defs>
</svg>
