<svg width="24" height="24" viewBox="0 0 24 24" fill="none" xmlns="http://www.w3.org/2000/svg">
<g clip-path="url(#clip0_2941_30078)">
<path d="M0 11.9996C0 13.4674 0.264047 14.8735 0.746391 16.1735L12 17.217L23.2536 16.1735C23.736 14.8735 24 13.4674 24 11.9996C24 10.5318 23.736 9.12569 23.2536 7.82571L12 6.78223L0.746391 7.82571C0.264047 9.12569 0 10.5318 0 11.9996Z" fill="#FFDA44"/>
<path d="M23.2551 7.82611C21.5596 3.25655 17.161 0 12.0015 0C6.84189 0 2.44338 3.25655 0.747864 7.82611H23.2551Z" fill="#D80027"/>
<path d="M0.746887 16.1748C2.4424 20.7444 6.84092 24.0009 12.0005 24.0009C17.1601 24.0009 21.5586 20.7444 23.2541 16.1748H0.746887Z" fill="#D80027"/>
</g>
<defs>
<clipPath id="clip0_2941_30078">
<rect width="24" height="24" fill="white"/>
</clipPath>
</defs>
</svg>
