<svg width="24" height="24" viewBox="0 0 24 24" fill="none" xmlns="http://www.w3.org/2000/svg">
<g clip-path="url(#clip0_2941_29157)">
<path d="M-0.000183105 11.9996C-0.000183105 13.4675 0.263864 14.8736 0.746254 16.1736L11.9998 17.217L23.2534 16.1736C23.7358 14.8736 23.9998 13.4675 23.9998 11.9996C23.9998 10.5519 23.7434 9.16404 23.2735 7.87905L11.9998 6.78223L0.726098 7.8791C0.25627 9.16404 -0.000183105 10.5519 -0.000183105 11.9996Z" fill="#FFDA44"/>
<path d="M11.9999 23.9999C17.1595 23.9999 21.558 20.7434 23.2535 16.1738H0.746277C2.44179 20.7434 6.84031 23.9999 11.9999 23.9999Z" fill="#D80027"/>
<path d="M11.9999 0C6.84037 0 2.44185 3.2565 0.746338 7.82611H23.2536C21.558 3.2565 17.1595 0 11.9999 0Z" fill="#6DA544"/>
<path d="M11.9998 17.74C15.1694 17.74 17.7389 15.1705 17.7389 12.0009C17.7389 8.83122 15.1694 6.26172 11.9998 6.26172C8.83012 6.26172 6.26062 8.83122 6.26062 12.0009C6.26062 15.1705 8.83012 17.74 11.9998 17.74Z" fill="#0052B4"/>
<path d="M11.9986 7.55664L13.0346 10.7452H16.3926L13.6749 12.7158L14.7191 15.9138L11.9986 13.9338L9.28226 15.9102L10.3222 12.7158L7.60699 10.7452H10.9625L11.9986 7.55664Z" fill="#FFDA44"/>
<path d="M16.1308 12.7944L12.8441 11.7264L14.8753 8.93079L14.0312 8.31738L11.9999 11.1132L9.96872 8.31743L9.1245 8.93074L11.1557 11.7266L7.86914 12.7944L8.19155 13.7869L11.4782 12.719V16.1747H12.5217V12.7189L15.8082 13.7869L16.1308 12.7944Z" fill="#FFDA44"/>
</g>
<defs>
<clipPath id="clip0_2941_29157">
<rect width="24" height="24" fill="white"/>
</clipPath>
</defs>
</svg>
