<svg width="24" height="24" viewBox="0 0 24 24" fill="none" xmlns="http://www.w3.org/2000/svg">
<g clip-path="url(#clip0_2941_29183)">
<path d="M24 12C24 18.6274 18.6274 24 12 24C5.37262 24 0 18.6274 0 12C0 12.0029 12 0.0013125 12 0C18.6274 0 24 5.37262 24 12Z" fill="#338AF3"/>
<path d="M11.9993 5.74023V9.78756L7.82544 5.74023H11.9993Z" fill="#0052B4"/>
<path d="M6.26049 12.0023H9.78605L6.26049 7.30664L5.73877 10.9588L6.26049 12.0023Z" fill="#0052B4"/>
<path d="M11.9673 12.0009H11.9995C11.9995 11.9901 11.9995 11.9796 11.9995 11.9688C11.9888 11.9795 11.9781 11.9902 11.9673 12.0009Z" fill="#F0F0F0"/>
<path d="M11.9997 6.26184C11.9997 4.15035 11.9997 2.76684 11.9997 0.000976562H11.9977C5.37125 0.00210156 -0.000244141 5.37421 -0.000244141 12.001H6.26061V8.47546L9.78617 12.001H11.9677C11.9784 11.9903 11.9891 11.9796 11.9998 11.9689C11.9998 11.1604 11.9998 10.4391 11.9998 9.78745L8.47419 6.26184H11.9997Z" fill="#F0F0F0"/>
<path d="M6.07082 1.56543C4.19399 2.63413 2.63371 4.19442 1.565 6.07125V12.0002H4.69546V4.69598V4.69589H11.9998C11.9998 3.70856 11.9998 2.76796 11.9998 1.56543H6.07082Z" fill="#D80027"/>
<path d="M11.9998 10.5242L7.73641 6.26074H6.26074V6.26084L11.9997 11.9998H11.9998C11.9998 11.9998 11.9998 10.9823 11.9998 10.5242Z" fill="#D80027"/>
<path d="M13.5656 7.82669V12.0005C13.5656 14.7962 17.2177 15.6527 17.2177 15.6527C17.2177 15.6527 20.8699 14.7962 20.8699 12.0005V7.82669L17.2177 6.7832L13.5656 7.82669Z" fill="#F3F3F3"/>
<path d="M20.8699 7.82594V6.26074H13.5656V7.82594H16.6959V10.9564H13.5656V11.9998C13.5656 11.9999 13.5656 11.9999 13.5656 11.9999L16.6959 12V15.492C17.0108 15.6034 17.2177 15.652 17.2177 15.652C17.2177 15.652 17.4245 15.6035 17.7394 15.492V11.9999H20.8699V11.9998V10.9564H17.7394V7.8259H20.8699V7.82594Z" fill="#D80027"/>
</g>
<defs>
<clipPath id="clip0_2941_29183">
<rect width="24" height="24" fill="white"/>
</clipPath>
</defs>
</svg>
