<svg width="24" height="24" viewBox="0 0 24 24" fill="none" xmlns="http://www.w3.org/2000/svg">
<g clip-path="url(#clip0_2941_29165)">
<path d="M24 12C24 18.6274 18.6274 24 12 24C5.37262 24 0 18.6274 0 12C0 12.0029 12 0.0013125 12 0C18.6274 0 24 5.37262 24 12Z" fill="#0052B4"/>
<path d="M11.9672 12.0009H11.9994C11.9994 11.9901 11.9994 11.9796 11.9994 11.9688C11.9887 11.9795 11.978 11.9902 11.9672 12.0009Z" fill="#F0F0F0"/>
<path d="M11.9997 6.26086C11.9997 4.14937 11.9997 2.76586 11.9997 0H11.9977C5.37119 0.001125 -0.000305176 5.37323 -0.000305176 12H6.26055V8.47448L9.78611 12H11.9676C11.9783 11.9893 11.989 11.9786 11.9997 11.9679C11.9997 11.1594 11.9997 10.4381 11.9997 9.78647L8.47413 6.26086H11.9997Z" fill="#F0F0F0"/>
<path d="M6.07063 1.56543C4.1938 2.63413 2.63352 4.19441 1.56482 6.07124V12.0002H4.69527V4.69598V4.69588H11.9996C11.9996 3.70855 11.9996 2.76796 11.9996 1.56543H6.07063Z" fill="#D80027"/>
<path d="M11.9997 10.5251L7.73629 6.26172H6.26062V6.26181L11.9996 12.0008H11.9997C11.9997 12.0008 11.9997 10.9833 11.9997 10.5251Z" fill="#D80027"/>
<path d="M19.3046 14.0859V14.6077H15.1307V14.0859H13.5655V16.1729H14.609V16.6946H19.8264V16.1729H20.8698V14.0859H19.3046Z" fill="#FFDA44"/>
<path d="M13.5655 6.26172V12.0009C13.5655 14.7964 17.2177 15.653 17.2177 15.653C17.2177 15.653 20.8698 14.7964 20.8698 12.0009V6.26172H13.5655Z" fill="#338AF3"/>
<path d="M17.2179 10.543C16.3049 10.543 16.3049 11.3778 15.3919 11.3778C14.479 11.3778 14.479 10.543 13.566 10.543V12.0038C14.479 12.0038 14.479 12.8386 15.3919 12.8386C16.3049 12.8386 16.3049 12.0038 17.2179 12.0038C18.131 12.0038 18.131 12.8386 19.0441 12.8386C19.9572 12.8386 19.9572 12.0038 20.8703 12.0038V10.543C19.9572 10.543 19.9572 11.3778 19.0441 11.3778C18.131 11.3778 18.131 10.543 17.2179 10.543Z" fill="#F3F3F3"/>
<path d="M17.2176 7.61816C16.3046 7.61816 16.3046 8.45296 15.3916 8.45296C14.4787 8.45296 14.4787 7.61816 13.5657 7.61816V9.07902C14.4787 9.07902 14.4787 9.91382 15.3916 9.91382C16.3046 9.91382 16.3046 9.07902 17.2176 9.07902C18.1307 9.07902 18.1307 9.91382 19.0438 9.91382C19.9569 9.91382 19.9569 9.07902 20.87 9.07902V7.61816C19.9569 7.61816 19.9569 8.45296 19.0438 8.45296C18.1307 8.45296 18.1307 7.61816 17.2176 7.61816Z" fill="#F3F3F3"/>
</g>
<defs>
<clipPath id="clip0_2941_29165">
<rect width="24" height="24" fill="white"/>
</clipPath>
</defs>
</svg>
