<svg width="24" height="24" viewBox="0 0 24 24" fill="none" xmlns="http://www.w3.org/2000/svg">
<g clip-path="url(#clip0_2941_29601)">
<path d="M12 24C18.6274 24 24 18.6274 24 12C24 5.37258 18.6274 0 12 0C5.37258 0 0 5.37258 0 12C0 18.6274 5.37258 24 12 24Z" fill="#338AF3"/>
<path d="M12.0002 5.21777L12.5182 6.81209H14.1946L12.8384 7.79745L13.3564 9.39171L12.0002 8.4064L10.644 9.39171L11.1621 7.79745L9.80585 6.81209H11.4822L12.0002 5.21777Z" fill="#F0F0F0"/>
<path d="M5.21735 12.0002L6.81166 11.4821V9.80566L7.79702 11.1619L9.39128 10.6439L8.40597 12.0002L9.39128 13.3563L7.79702 12.8382L6.81166 14.1944V12.5181L5.21735 12.0002Z" fill="#F0F0F0"/>
<path d="M12.0003 18.7833L11.4823 17.189H9.80585L11.1621 16.2036L10.6441 14.6094L12.0003 15.5947L13.3564 14.6094L12.8384 16.2036L14.1946 17.189H12.5183L12.0003 18.7833Z" fill="#F0F0F0"/>
<path d="M18.7829 12L17.1886 12.518V14.1944L16.2032 12.8382L14.6089 13.3562L15.5943 12L14.6089 10.6439L16.2032 11.1619L17.1886 9.80566V11.4821L18.7829 12Z" fill="#F0F0F0"/>
</g>
<defs>
<clipPath id="clip0_2941_29601">
<rect width="24" height="24" fill="white"/>
</clipPath>
</defs>
</svg>
