<svg width="24" height="24" viewBox="0 0 24 24" fill="none" xmlns="http://www.w3.org/2000/svg">
<g clip-path="url(#clip0_2941_29200)">
<path d="M12 24C18.6274 24 24 18.6274 24 12C24 5.37258 18.6274 0 12 0C5.37258 0 0 5.37258 0 12C0 18.6274 5.37258 24 12 24Z" fill="#F0F0F0"/>
<path d="M23.9999 11.9997C23.9999 6.84013 20.7434 2.44161 16.1738 0.746094V23.2534C20.7434 21.5578 23.9999 17.1593 23.9999 11.9997Z" fill="#D80027"/>
<path d="M0.000427246 12.0007C0.000427246 17.1603 3.25697 21.5588 7.82654 23.2543V0.74707C3.25697 2.44259 0.000427246 6.8411 0.000427246 12.0007Z" fill="#0052B4"/>
</g>
<defs>
<clipPath id="clip0_2941_29200">
<rect width="24" height="24" fill="white"/>
</clipPath>
</defs>
</svg>
