<svg width="24" height="24" viewBox="0 0 24 24" fill="none" xmlns="http://www.w3.org/2000/svg">
<g clip-path="url(#clip0_2941_29215)">
<path d="M23.2532 16.1745C23.7356 14.8745 23.9996 13.4684 23.9996 12.0006C23.9996 10.5327 23.7356 9.12672 23.2532 7.82669L11.9996 6.7832L0.745963 7.82669C0.26362 9.12672 -0.000427246 10.5327 -0.000427246 12.0006C-0.000427246 13.4684 0.26362 14.8745 0.745963 16.1745L11.9996 17.2179L23.2532 16.1745Z" fill="#FFDA44"/>
<path d="M12.0004 23.9999C17.1599 23.9999 21.5585 20.7434 23.2539 16.1738H0.746704C2.44227 20.7434 6.84074 23.9999 12.0004 23.9999Z" fill="#0052B4"/>
<path d="M12.0004 0.000976562C6.84074 0.000976562 2.44227 3.25748 0.746704 7.82709H23.254C21.5585 3.25748 17.1599 0.000976562 12.0004 0.000976562Z" fill="#6DA544"/>
</g>
<defs>
<clipPath id="clip0_2941_29215">
<rect width="24" height="24" fill="white"/>
</clipPath>
</defs>
</svg>
