<svg width="24" height="24" viewBox="0 0 24 24" fill="none" xmlns="http://www.w3.org/2000/svg">
<g clip-path="url(#clip0_2941_29260)">
<path d="M12 24C18.6274 24 24 18.6274 24 12C24 5.37258 18.6274 0 12 0C5.37258 0 0 5.37258 0 12C0 18.6274 5.37258 24 12 24Z" fill="#FFDA44"/>
<path d="M5.23633 2.08697C7.16219 0.770438 9.49084 0 11.9998 0C14.5087 0 16.8374 0.770438 18.7632 2.08697L11.9998 2.60869L5.23633 2.08697Z" fill="#A2001D"/>
<path d="M12.0004 11.9992L11.2345 11.2334L11.0312 11.5977L12.0004 11.9992Z" fill="#0052B4"/>
<path d="M3.51514 3.51562C-1.17114 8.20191 -1.17114 15.7999 3.51514 20.4862C5.45169 18.5497 7.31417 16.6872 12.0005 12.0009L3.51514 3.51562Z" fill="#496E2D"/>
<path d="M20.4857 3.5166C25.172 8.20288 25.172 15.8009 20.4857 20.4872C18.5492 18.5507 16.6867 16.6882 12.0004 12.0019L20.4857 3.5166Z" fill="#496E2D"/>
<path d="M12.0001 16.174C14.3053 16.174 16.174 14.3052 16.174 12.0001C16.174 9.69489 14.3053 7.82617 12.0001 7.82617C9.69495 7.82617 7.82623 9.69489 7.82623 12.0001C7.82623 14.3052 9.69495 16.174 12.0001 16.174Z" fill="#A2001D"/>
<path d="M11.9996 7.82715L12.9352 10.7066H15.9633L13.5137 12.4866L14.4492 15.3662L11.9996 13.5866L9.54996 15.3662L10.4857 12.4866L8.03613 10.7066H11.064L11.9996 7.82715Z" fill="#FFDA44"/>
<path d="M12.0043 0H11.9962C8.68438 0.00107812 5.6862 1.34372 3.51556 3.51412H20.4849C18.3142 1.34372 15.3161 0.00107812 12.0043 0Z" fill="#A2001D"/>
<path d="M3.51599 20.4854C5.68752 22.6566 8.68724 23.9994 12.0006 23.9994C15.314 23.9994 18.3137 22.6566 20.4852 20.4854H3.51599Z" fill="#A2001D"/>
<path d="M12.0003 1.30371L12.1946 1.90155H12.8232L12.3147 2.27107L12.509 2.86891L12.0003 2.49945L11.4918 2.86891L11.6861 2.27107L11.1774 1.90155H11.806L12.0003 1.30371Z" fill="#FFDA44"/>
<path d="M9.09071 1.30371L9.28501 1.90155H9.9136L9.40506 2.27107L9.59935 2.86891L9.09071 2.49945L8.58221 2.86891L8.77646 2.27107L8.26782 1.90155H8.89642L9.09071 1.30371Z" fill="#FFDA44"/>
<path d="M14.91 1.30371L15.1043 1.90155H15.7329L15.2243 2.27107L15.4186 2.86891L14.91 2.49945L14.4014 2.86891L14.5957 2.27107L14.0871 1.90155H14.7157L14.91 1.30371Z" fill="#FFDA44"/>
<path d="M12.0003 21.1289L12.1946 21.7267H12.8232L12.3147 22.0963L12.509 22.6941L12.0003 22.3246L11.4918 22.6941L11.6861 22.0963L11.1774 21.7267H11.806L12.0003 21.1289Z" fill="#FFDA44"/>
<path d="M9.09071 21.1289L9.28501 21.7267H9.9136L9.40506 22.0963L9.59935 22.6941L9.09071 22.3246L8.58221 22.6941L8.77646 22.0963L8.26782 21.7267H8.89642L9.09071 21.1289Z" fill="#FFDA44"/>
<path d="M14.91 21.1289L15.1043 21.7267H15.7329L15.2243 22.0963L15.4186 22.6941L14.91 22.3246L14.4014 22.6941L14.5957 22.0963L14.0871 21.7267H14.7157L14.91 21.1289Z" fill="#FFDA44"/>
<path d="M3.6567 11.8019C3.9649 12.2889 3.82006 12.9335 3.33307 13.2417C2.84614 13.55 2.20151 13.4051 1.89326 12.9182C1.33521 12.0365 1.65879 10.5967 1.65879 10.5967C1.65879 10.5967 3.0986 10.9203 3.6567 11.8019Z" fill="#FFDA44"/>
<path d="M3.05352 13.3227C3.34166 13.3227 3.57524 13.0892 3.57524 12.801C3.57524 12.5129 3.34166 12.2793 3.05352 12.2793C2.76538 12.2793 2.5318 12.5129 2.5318 12.801C2.5318 13.0892 2.76538 13.3227 3.05352 13.3227Z" fill="#A2001D"/>
</g>
<defs>
<clipPath id="clip0_2941_29260">
<rect width="24" height="24" fill="white"/>
</clipPath>
</defs>
</svg>
