<svg width="24" height="24" viewBox="0 0 24 24" fill="none" xmlns="http://www.w3.org/2000/svg">
<g clip-path="url(#clip0_2941_29236)">
<path d="M0 11.9994C0 13.4672 0.264047 14.8733 0.746391 16.1733L12 16.695L23.2536 16.1733C23.736 14.8733 24 13.4672 24 11.9994C24 10.5315 23.736 9.12546 23.2536 7.82548L12 7.30371L0.746391 7.82543C0.264047 9.12546 0 10.5315 0 11.9994Z" fill="#FFDA44"/>
<path d="M11.9998 -0.000976562C6.84019 -0.000976562 2.44167 3.25552 0.746155 7.82513H23.2534C21.5579 3.25552 17.1593 -0.000976562 11.9998 -0.000976562Z" fill="#D80027"/>
<path d="M23.2536 16.1738H0.746338C2.44185 20.7434 6.84037 23.9999 11.9999 23.9999C17.1595 23.9999 21.558 20.7434 23.2536 16.1738Z" fill="#496E2D"/>
<path d="M11.9998 7.82617L13.0358 11.0146H16.3886L13.6763 12.9854L14.7123 16.174L11.9998 14.2033L9.28741 16.174L10.3235 12.9854L7.61121 11.0146H10.9639L11.9998 7.82617Z" fill="black"/>
</g>
<defs>
<clipPath id="clip0_2941_29236">
<rect width="24" height="24" fill="white"/>
</clipPath>
</defs>
</svg>
