<svg width="24" height="24" viewBox="0 0 24 24" fill="none" xmlns="http://www.w3.org/2000/svg">
<g clip-path="url(#clip0_2941_29241)">
<path d="M12 24C18.6274 24 24 18.6274 24 12C24 5.37258 18.6274 0 12 0C5.37258 0 0 5.37258 0 12C0 18.6274 5.37258 24 12 24Z" fill="#F9F9F9"/>
<path d="M11.9999 23.9999C17.1594 23.9999 21.558 20.7434 23.2534 16.1738H0.746216C2.44178 20.7434 6.84025 23.9999 11.9999 23.9999Z" fill="#D80027"/>
<path d="M16.6955 9.91329V8.34809H17.2173V7.3046H16.1738V7.82637H15.1303V7.3046H14.0869V8.34809H14.6086V9.91329H13.5651V6.26121H14.0869V5.21777H13.0434V5.7394H12.5216V5.21777H11.4782V5.7394H10.9564V5.21777H9.91292V6.26121H10.4347V9.91329H9.3912V8.34809H9.91292V7.3046H8.86943V7.82637H7.82599V7.3046H6.78251V8.34809H7.30423V9.91329H6.26074V14.0872H17.739V9.91329H16.6955Z" fill="#D80027"/>
<path d="M11.9998 13.5654C11.1354 13.5654 10.4346 14.2662 10.4346 15.1306C10.4346 15.812 10.8703 16.3916 11.4781 16.6064V18.7829H9.9129V20.8698H12.5216V16.6065C13.1294 16.3916 13.5651 15.8121 13.5651 15.1307C13.565 14.2663 12.8642 13.5654 11.9998 13.5654ZM11.9998 15.6524C11.7117 15.6524 11.4781 15.4188 11.4781 15.1307C11.4781 14.8425 11.7117 14.609 11.9998 14.609C12.288 14.609 12.5215 14.8425 12.5215 15.1307C12.5215 15.4188 12.288 15.6524 11.9998 15.6524Z" fill="#FFDA44"/>
</g>
<defs>
<clipPath id="clip0_2941_29241">
<rect width="24" height="24" fill="white"/>
</clipPath>
</defs>
</svg>
