<svg width="24" height="24" viewBox="0 0 24 24" fill="none" xmlns="http://www.w3.org/2000/svg">
<g clip-path="url(#clip0_2941_29219)">
<path d="M12 24C18.6274 24 24 18.6274 24 12C24 5.37258 18.6274 0 12 0C5.37258 0 0 5.37258 0 12C0 18.6274 5.37258 24 12 24Z" fill="#F0F0F0"/>
<path d="M12.0004 0.000976562C7.0394 0.000976562 2.78183 3.01157 0.954224 7.30532H23.0466C21.219 3.01157 16.9614 0.000976562 12.0004 0.000976562Z" fill="#A2001D"/>
<path d="M12.0004 24.0006C16.9614 24.0006 21.219 20.99 23.0466 16.6963H0.954224C2.78183 20.99 7.0394 24.0006 12.0004 24.0006Z" fill="#496E2D"/>
<path d="M23.5864 8.86914H0.413208C0.144192 9.86725 -0.000183105 10.9165 -0.000183105 11.9996C-0.000183105 13.0827 0.144192 14.1319 0.413208 15.13H23.5865C23.8554 14.1319 23.9998 13.0827 23.9998 11.9996C23.9998 10.9165 23.8554 9.86725 23.5864 8.86914Z" fill="#0052B4"/>
</g>
<defs>
<clipPath id="clip0_2941_29219">
<rect width="24" height="24" fill="white"/>
</clipPath>
</defs>
</svg>
