<svg width="24" height="24" viewBox="0 0 24 24" fill="none" xmlns="http://www.w3.org/2000/svg">
<g clip-path="url(#clip0_2941_29247)">
<path d="M12 24C18.6274 24 24 18.6274 24 12C24 5.37258 18.6274 0 12 0C5.37258 0 0 5.37258 0 12C0 18.6274 5.37258 24 12 24Z" fill="#F0F0F0"/>
<path d="M11.9997 8.87069H23.5863C23.2854 7.75441 22.8281 6.70248 22.2384 5.74023H11.9997V8.87069Z" fill="#338AF3"/>
<path d="M4.53058 21.3922H19.4702C20.5654 20.5199 21.5046 19.4605 22.2391 18.2617H1.76172C2.4963 19.4604 3.43548 20.5199 4.53058 21.3922Z" fill="#338AF3"/>
<path d="M4.17433 2.9043C3.23092 3.71669 2.41534 4.67336 1.76172 5.74005H4.17433V2.9043Z" fill="#338AF3"/>
<path d="M12.0001 12.0006C12.0001 10.7783 12.0001 9.7553 12.0001 8.87012H7.30447V12.0006H4.17401V8.87012H0.413513C0.144497 9.86827 0.00012207 10.9174 0.00012207 12.0006C0.00012207 13.0837 0.144497 14.1329 0.413513 15.131H23.5868C23.8557 14.1329 24.0001 13.0837 24.0001 12.0006H12.0001Z" fill="#338AF3"/>
<path d="M12.0005 0.000976562C10.3342 0.000976562 8.74721 0.340961 7.30487 0.954789V5.74012H12.0005C12.0005 4.64737 12.0005 3.71798 12.0005 2.60966H19.4704C17.4205 0.977102 14.8247 0.000976562 12.0005 0.000976562Z" fill="#338AF3"/>
</g>
<defs>
<clipPath id="clip0_2941_29247">
<rect width="24" height="24" fill="white"/>
</clipPath>
</defs>
</svg>
