<svg width="24" height="24" viewBox="0 0 24 24" fill="none" xmlns="http://www.w3.org/2000/svg">
<g clip-path="url(#clip0_2941_29294)">
<path d="M12 24C18.6274 24 24 18.6274 24 12C24 5.37258 18.6274 0 12 0C5.37258 0 0 5.37258 0 12C0 18.6274 5.37258 24 12 24Z" fill="#F0F0F0"/>
<path d="M23.9992 11.9997C23.9992 7.24218 21.2305 3.13143 17.2166 1.19043V22.8089C21.2305 20.868 23.9992 16.7572 23.9992 11.9997Z" fill="#338AF3"/>
<path d="M-0.000366211 11.9997C-0.000366211 16.7572 2.76831 20.868 6.78226 22.809V1.19043C2.76831 3.13143 -0.000366211 7.24218 -0.000366211 11.9997Z" fill="#338AF3"/>
<path d="M15.1355 14.0288L13.1065 11.9997L15.0379 10.0682L14.9503 9.04815L14.3974 8.49512L11.9997 10.8929L9.60191 8.49512L9.04897 9.04815L8.96146 10.0682L10.8928 11.9997L8.86377 14.0288L9.97058 15.1355L11.9997 13.1065L14.0287 15.1355L15.1355 14.0288Z" fill="#ACABB1"/>
<path d="M14.9515 9.04883L13.8447 10.1556C14.3168 10.6277 14.6089 11.2798 14.6089 12.0002C14.6089 13.441 13.4409 14.6089 12.0002 14.6089C10.5595 14.6089 9.39144 13.441 9.39144 12.0002C9.39144 11.2798 9.68347 10.6277 10.1555 10.1556L9.04878 9.04883C8.29339 9.80408 7.82623 10.8476 7.82623 12.0002C7.82623 14.3054 9.69495 16.1741 12.0001 16.1741C14.3053 16.1741 16.174 14.3054 16.174 12.0002C16.174 10.8476 15.7069 9.80413 14.9515 9.04883Z" fill="#6DA544"/>
</g>
<defs>
<clipPath id="clip0_2941_29294">
<rect width="24" height="24" fill="white"/>
</clipPath>
</defs>
</svg>
