<svg width="24" height="24" viewBox="0 0 24 24" fill="none" xmlns="http://www.w3.org/2000/svg">
<g clip-path="url(#clip0_2941_29283)">
<path d="M5.23633 21.9126C7.16214 23.2291 9.49089 23.9996 11.9998 23.9996C14.5087 23.9996 16.8374 23.2291 18.7632 21.9126L11.9998 20.8691L5.23633 21.9126Z" fill="#D80027"/>
<path d="M18.7641 2.08697C16.8382 0.770484 14.5095 0 12.0006 0C9.49174 0 7.16299 0.770484 5.23718 2.08697L12.0006 3.13045L18.7641 2.08697Z" fill="#D80027"/>
<path d="M23.9996 11.9999C23.9996 8.02916 21.6223 4.04151 18.763 2.08691H5.23612C2.07473 4.24804 -0.000427246 7.88151 -0.000427246 11.9999C-0.000427246 16.1185 2.07473 19.7519 5.23612 21.913H18.763C21.9245 19.7519 23.9996 16.1185 23.9996 11.9999Z" fill="#0052B4"/>
<path d="M11.3208 19.5746C11.1568 19.434 7.3042 16.0848 7.3042 11.9997C7.3042 7.91462 11.1568 4.56545 11.3208 4.42487L11.9999 3.84277L12.6789 4.42482C12.8429 4.56545 16.6955 7.91457 16.6955 11.9997C16.6955 16.0849 12.843 19.4341 12.6789 19.5746L11.9999 20.1567L11.3208 19.5746Z" fill="#D80027"/>
<path d="M15.6524 12.0004C15.6524 8.34823 12.0003 5.21777 12.0003 5.21777C12.0003 5.21777 8.34808 8.34832 8.34808 12.0004C8.34808 13.1177 8.69013 14.1859 9.1646 15.1309H14.8359C15.3104 14.1859 15.6524 13.1177 15.6524 12.0004Z" fill="#338AF3"/>
<path d="M15.6524 12C15.6524 13.1173 15.3104 14.1855 14.8359 15.1305L12.0003 15.6522L9.1646 15.1305C8.69013 14.1855 8.34808 13.1173 8.34808 12H15.6524Z" fill="#0052B4"/>
<path d="M12.0001 18.7821C12.0001 18.7821 13.7592 17.2738 14.8357 15.1299H9.16443C10.241 17.2738 12.0001 18.7821 12.0001 18.7821Z" fill="#FFDA44"/>
<path d="M9.65167 9.91211H14.3473L11.9995 12.2599L9.65167 9.91211Z" fill="#6DA544"/>
<path d="M12.7827 11.4775H11.2175V16.1732H12.7827V11.4775Z" fill="#A2001D"/>
</g>
<defs>
<clipPath id="clip0_2941_29283">
<rect width="24" height="24" fill="white"/>
</clipPath>
</defs>
</svg>
