<svg width="24" height="24" viewBox="0 0 24 24" fill="none" xmlns="http://www.w3.org/2000/svg">
<g clip-path="url(#clip0_2941_29305)">
<path d="M11.9996 0C10.9165 0 9.86723 0.144375 8.86912 0.413391L7.82568 12L8.86917 23.5866C9.86723 23.8556 10.9165 24 11.9996 24C18.6269 24 23.9996 18.6274 23.9996 12C23.9996 5.37262 18.6269 0 11.9996 0Z" fill="#FFDA44"/>
<path d="M7.82568 12L8.86917 23.5866C9.86723 23.8556 10.9165 24 11.9996 24C18.6269 24 23.9996 18.6274 23.9996 12H7.82568Z" fill="#6DA544"/>
<path d="M0.00012207 11.9999C0.00012207 16.5484 2.5309 20.5056 6.26098 22.5408V1.45898C2.5309 3.4942 0.00012207 7.45139 0.00012207 11.9999Z" fill="#D80027"/>
<path d="M0.000183105 11.9997C0.000183105 17.544 3.76054 22.2093 8.86973 23.5863V0.413086C3.76054 1.79009 0.000183105 6.45537 0.000183105 11.9997Z" fill="#D80027"/>
<path d="M4.53456 8.86816L5.31151 11.2595H7.82617L5.79189 12.7376L6.56879 15.1291L4.53456 13.6511L2.50023 15.1291L3.27732 12.7376L1.24304 11.2595H3.75756L4.53456 8.86816Z" fill="black"/>
</g>
<defs>
<clipPath id="clip0_2941_29305">
<rect width="24" height="24" fill="white"/>
</clipPath>
</defs>
</svg>
