<svg width="24" height="24" viewBox="0 0 24 24" fill="none" xmlns="http://www.w3.org/2000/svg">
<g clip-path="url(#clip0_2941_29316)">
<path d="M12 24C18.6274 24 24 18.6274 24 12C24 5.37258 18.6274 0 12 0C5.37258 0 0 5.37258 0 12C0 18.6274 5.37258 24 12 24Z" fill="#F0F0F0"/>
<path d="M12 -0.000976562C9.87837 -0.000976562 7.88581 0.550367 6.15649 1.51646V22.4816C7.88585 23.4477 9.87837 23.999 12 23.999C18.6274 23.999 24 18.6264 24 11.999C24 5.37165 18.6274 -0.000976562 12 -0.000976562Z" fill="#6DA544"/>
<path d="M6.19196 1.49805C5.43704 1.91641 4.73214 2.41366 4.08812 2.97897C4.15323 2.92188 4.219 2.86544 4.28528 2.80975L13.4758 12.0003L4.28523 21.1909C4.2189 21.1353 4.15318 21.0788 4.08807 21.0217C4.73209 21.587 5.43704 22.0842 6.19192 22.5026L24.0002 12.0003L6.19196 1.49805Z" fill="#F0F0F0"/>
<path d="M5.17818 2.12695C4.81223 2.38036 4.46076 2.65303 4.12584 2.94445L11.9999 11.9997L4.12579 21.0549C4.46072 21.3463 4.81218 21.619 5.17814 21.8724L21.9457 11.9997L5.17818 2.12695Z" fill="#FFDA44"/>
<path d="M4.28492 2.80957C4.01815 3.03373 3.76071 3.26871 3.51453 3.51485L10.9564 12.0002L3.51453 20.4855C3.76071 20.7317 4.0181 20.9667 4.28492 21.1908L13.4755 12.0002L4.28492 2.80957Z" fill="black"/>
<path d="M3.51471 3.51465C-1.17157 8.20093 -1.17157 15.7989 3.51471 20.4853C5.45126 18.5487 7.31375 16.6862 12 12L3.51471 3.51465Z" fill="#D80027"/>
</g>
<defs>
<clipPath id="clip0_2941_29316">
<rect width="24" height="24" fill="white"/>
</clipPath>
</defs>
</svg>
