<svg width="24" height="24" viewBox="0 0 24 24" fill="none" xmlns="http://www.w3.org/2000/svg">
<g clip-path="url(#clip0_2941_29332)">
<path d="M12 24C18.6274 24 24 18.6274 24 12C24 5.37258 18.6274 0 12 0C5.37258 0 0 5.37258 0 12C0 18.6274 5.37258 24 12 24Z" fill="#F0F0F0"/>
<path d="M12.0002 23.9984C16.7577 23.9984 20.8685 21.2298 22.8095 17.2158H1.19092C3.13192 21.2298 7.24267 23.9984 12.0002 23.9984Z" fill="#338AF3"/>
<path d="M12.0009 -0.000976562C7.24334 -0.000976562 3.13259 2.7677 1.19159 6.78165H22.8101C20.8691 2.7677 16.7584 -0.000976562 12.0009 -0.000976562Z" fill="#338AF3"/>
<path d="M7.38553 7.82422L7.77403 9.01995H9.03126L8.01417 9.75889L8.40272 10.9546L7.38553 10.2156L6.36834 10.9546L6.75689 9.75889L5.73975 9.01995H6.99698L7.38553 7.82422Z" fill="#338AF3"/>
<path d="M7.38553 13.042L7.77403 14.2378H9.03126L8.01417 14.9767L8.40272 16.1724L7.38553 15.4334L6.36834 16.1724L6.75689 14.9767L5.73975 14.2378H6.99698L7.38553 13.042Z" fill="#338AF3"/>
<path d="M16.6151 7.82422L17.0037 9.01995H18.2609L17.2438 9.75889L17.6323 10.9546L16.6151 10.2156L15.598 10.9546L15.9865 9.75889L14.9694 9.01995H16.2266L16.6151 7.82422Z" fill="#338AF3"/>
<path d="M16.6151 13.042L17.0037 14.2378H18.2609L17.2438 14.9767L17.6323 16.1724L16.6151 15.4334L15.598 16.1724L15.9865 14.9767L14.9694 14.2378H16.2266L16.6151 13.042Z" fill="#338AF3"/>
<path d="M12 10.4336L12.3885 11.6294H13.6457L12.6286 12.3683L13.0172 13.564L12 12.825L10.9828 13.564L11.3713 12.3683L10.3542 11.6294H11.6114L12 10.4336Z" fill="#338AF3"/>
</g>
<defs>
<clipPath id="clip0_2941_29332">
<rect width="24" height="24" fill="white"/>
</clipPath>
</defs>
</svg>
