<svg width="24" height="24" viewBox="0 0 24 24" fill="none" xmlns="http://www.w3.org/2000/svg">
<g clip-path="url(#clip0_2941_29012)">
<path d="M24 12.0003C24 10.5325 23.736 9.12639 23.2536 7.82645L12 7.30469L0.746391 7.82641C0.264047 9.12639 0 10.5325 0 12.0003C0 13.4682 0.264047 14.8743 0.746391 16.1742L12 16.696L23.2536 16.1743C23.736 14.8743 24 13.4682 24 12.0003Z" fill="#F0F0F0"/>
<path d="M11.9999 23.999C17.1595 23.999 21.558 20.7425 23.2536 16.1729H0.746338C2.44185 20.7425 6.84037 23.999 11.9999 23.999Z" fill="#0052B4"/>
<path d="M0.746155 7.82709H23.2534C21.5579 3.25748 17.1593 0.000976562 11.9998 0.000976562C6.84019 0.000976562 2.44167 3.25748 0.746155 7.82709Z" fill="#D80027"/>
<path d="M15.1301 8.34753H13.0431L13.391 5.7388L14.7822 4.69531L16.1735 5.7388V7.82576L15.1301 8.34753Z" fill="#338AF3"/>
<path d="M8.86918 8.34851H10.9561L10.6083 5.73977L9.21699 4.69629L7.82574 5.73977V7.82674L8.86918 8.34851Z" fill="#338AF3"/>
<path d="M13.3909 8.34753H10.6082V5.7388L11.9996 4.69531L13.3909 5.7388V8.34753Z" fill="#0052B4"/>
<path d="M7.82574 7.82617V13.5653C7.82574 14.9318 8.48584 16.1471 9.50396 16.9089L10.2344 16.7262L11.1562 17.6535C11.4287 17.7096 11.7108 17.7392 11.9997 17.7392C12.287 17.7392 12.5677 17.71 12.8388 17.6544L13.891 16.7783L14.4953 16.9073C15.513 16.1454 16.1736 14.9314 16.1736 13.5653V7.82617H7.82574Z" fill="#F0F0F0"/>
<path d="M9.49554 7.82617H7.82599V9.49572H9.49554V7.82617Z" fill="#D80027"/>
<path d="M12.8347 7.82617H11.1652V9.49572H12.8347V7.82617Z" fill="#D80027"/>
<path d="M16.1741 7.82617H14.5045V9.49572H16.1741V7.82617Z" fill="#D80027"/>
<path d="M11.1648 9.49512H9.49524V11.1647H11.1648V9.49512Z" fill="#D80027"/>
<path d="M14.504 9.49512H12.8344V11.1647H14.504V9.49512Z" fill="#D80027"/>
<path d="M9.49554 11.1641H7.82599V12.8336H9.49554V11.1641Z" fill="#D80027"/>
<path d="M11.1648 12.835H9.49524V14.5045H11.1648V12.835Z" fill="#D80027"/>
<path d="M12.8347 11.1641H11.1652V12.8336H12.8347V11.1641Z" fill="#D80027"/>
<path d="M16.1741 11.1641H14.5045V12.8336H16.1741V11.1641Z" fill="#D80027"/>
<path d="M14.504 12.835H12.8344V14.5045H14.504V12.835Z" fill="#D80027"/>
<path d="M12.8347 14.5039H11.1652V16.1734H12.8347V14.5039Z" fill="#D80027"/>
<path d="M9.49542 14.5039H7.93359C8.07684 15.1245 8.35847 15.6924 8.74462 16.1734H9.49542V14.5039Z" fill="#D80027"/>
<path d="M14.5045 16.1734H15.2553C15.6415 15.6924 15.923 15.1245 16.0663 14.5039H14.5045V16.1734Z" fill="#D80027"/>
<path d="M9.49524 16.1738V16.9023C9.98082 17.2677 10.5483 17.5297 11.1648 17.6554V16.1738H9.49524Z" fill="#D80027"/>
<path d="M12.8344 16.1738V17.6554C13.451 17.5298 14.0184 17.2677 14.504 16.9023V16.1738H12.8344Z" fill="#D80027"/>
</g>
<defs>
<clipPath id="clip0_2941_29012">
<rect width="24" height="24" fill="white"/>
</clipPath>
</defs>
</svg>
