<svg width="24" height="24" viewBox="0 0 24 24" fill="none" xmlns="http://www.w3.org/2000/svg">
<g clip-path="url(#clip0_2941_29323)">
<path d="M24 12C24 18.6274 18.6274 24 12 24C5.37262 24 0 18.6274 0 12C0 5.37262 12 0 12 0C12 0 24 5.37262 24 12Z" fill="#A2001D"/>
<path d="M0 12C0 5.37262 5.37262 0 12 0C18.6274 0 24 5.37262 24 12" fill="#0052B4"/>
<path d="M16.1736 15.131L11.9997 14.6093L7.82581 15.131V8.87012H16.1736V15.131Z" fill="#F0F0F0"/>
<path d="M11.9997 14.6085C13.1523 14.6085 14.0867 13.6741 14.0867 12.5215C14.0867 11.3689 13.1523 10.4346 11.9997 10.4346C10.8471 10.4346 9.91278 11.3689 9.91278 12.5215C9.91278 13.6741 10.8471 14.6085 11.9997 14.6085Z" fill="#0052B4"/>
<path d="M12.0003 13.5655C12.5766 13.5655 13.0438 13.0983 13.0438 12.522C13.0438 11.9457 12.5766 11.4785 12.0003 11.4785C11.424 11.4785 10.9568 11.9457 10.9568 12.522C10.9568 13.0983 11.424 13.5655 12.0003 13.5655Z" fill="#A2001D"/>
<path d="M10.4348 9.91309H13.5652L12 11.4783L10.4348 9.91309Z" fill="#6DA544"/>
<path d="M12.5221 10.9551H11.4786V14.0855H12.5221V10.9551Z" fill="#FFDA44"/>
<path d="M13.6692 13.7744H10.3301L7.82581 15.131H16.1736L13.6692 13.7744Z" fill="#6DA544"/>
</g>
<defs>
<clipPath id="clip0_2941_29323">
<rect width="24" height="24" fill="white"/>
</clipPath>
</defs>
</svg>
