<svg width="24" height="24" viewBox="0 0 24 24" fill="none" xmlns="http://www.w3.org/2000/svg">
<g clip-path="url(#clip0_2941_29350)">
<path d="M0.745963 7.82571C0.26362 9.12574 -0.000427246 10.5318 -0.000427246 11.9996C-0.000427246 13.4674 0.26362 14.8735 0.745963 16.1735L11.9996 17.217L23.2532 16.1735C23.7355 14.8735 23.9996 13.4674 23.9996 11.9996C23.9996 10.5318 23.7355 9.12574 23.2532 7.82571L11.9996 6.78223L0.745963 7.82571Z" fill="#F0F0F0"/>
<path d="M12.0004 -0.000976562C6.84086 -0.000976562 2.44229 3.25552 0.746826 7.82513H23.2541C21.5585 3.25552 17.16 -0.000976562 12.0004 -0.000976562Z" fill="#D80027"/>
<path d="M12.0004 23.999C17.16 23.999 21.5585 20.7425 23.254 16.1729H0.746826C2.44229 20.7425 6.84086 23.999 12.0004 23.999Z" fill="#6DA544"/>
</g>
<defs>
<clipPath id="clip0_2941_29350">
<rect width="24" height="24" fill="white"/>
</clipPath>
</defs>
</svg>
