<svg width="24" height="24" viewBox="0 0 24 24" fill="none" xmlns="http://www.w3.org/2000/svg">
<g clip-path="url(#clip0_2941_29385)">
<path d="M12 24C18.6274 24 24 18.6274 24 12C24 5.37258 18.6274 0 12 0C5.37258 0 0 5.37258 0 12C0 18.6274 5.37258 24 12 24Z" fill="#F0F0F0"/>
<path d="M23.9996 11.9987C23.9996 6.83915 20.7431 2.44059 16.1735 0.745117V23.2524C20.7431 21.5568 23.9996 17.1583 23.9996 11.9987Z" fill="#FF9811"/>
<path d="M-6.10352e-05 11.9997C-6.10352e-05 17.1593 3.25644 21.5578 7.82605 23.2533V0.746094C3.25644 2.44156 -6.10352e-05 6.84013 -6.10352e-05 11.9997Z" fill="#6DA544"/>
</g>
<defs>
<clipPath id="clip0_2941_29385">
<rect width="24" height="24" fill="white"/>
</clipPath>
</defs>
</svg>
