<svg width="24" height="24" viewBox="0 0 24 24" fill="none" xmlns="http://www.w3.org/2000/svg">
<g clip-path="url(#clip0_2941_29389)">
<path d="M12 24C18.6274 24 24 18.6274 24 12C24 5.37258 18.6274 0 12 0C5.37258 0 0 5.37258 0 12C0 18.6274 5.37258 24 12 24Z" fill="#D80027"/>
<path d="M16.4434 8.04343L15.5953 11.0702L13.0504 10.6003L11.4123 7.22363L6.98702 8.79399L6.63804 7.81055L5.48022 7.66791L6.35262 10.1265L9.39804 9.34763L10.2635 11.7865L8.15824 14.8935L11.7309 17.9406L11.0538 18.7345L11.5091 19.8086L13.2021 17.8238L11.0049 15.5758L12.6843 13.6069L16.4276 13.8766L17.2803 9.25894L18.3064 9.44846L19.009 8.51705L16.4434 8.04343Z" fill="#F0F0F0"/>
</g>
<defs>
<clipPath id="clip0_2941_29389">
<rect width="24" height="24" fill="white"/>
</clipPath>
</defs>
</svg>
