<svg width="24" height="24" viewBox="0 0 24 24" fill="none" xmlns="http://www.w3.org/2000/svg">
<g clip-path="url(#clip0_2941_28795)">
<path d="M12 24C18.6274 24 24 18.6274 24 12C24 5.37258 18.6274 0 12 0C5.37258 0 0 5.37258 0 12C0 18.6274 5.37258 24 12 24Z" fill="#F0F0F0"/>
<path d="M21.9999 13.4358C20.9999 13.4358 20.9999 12.5215 19.9999 12.5215C18.9999 12.5215 18.9999 13.4358 18 13.4358C17 13.4358 17 12.5215 16 12.5215C15 12.5215 15 13.4358 14 13.4358C13 13.4358 12.9999 12.5215 11.9999 12.5215C10.9999 12.5215 10.9999 13.4358 9.99994 13.4358C9.00009 13.4358 9.00009 12.5215 8.00011 12.5215C7.00003 12.5215 7.00003 13.4358 5.99995 13.4358C4.99987 13.4358 4.99987 12.5215 3.9998 12.5215C2.99995 12.5215 2.99995 13.4358 1.99997 13.4358C1.00537 13.4358 0.999609 12.5316 0.0156555 12.5219C0.0433586 13.0708 0.10889 13.6097 0.207984 14.1367C1.00505 14.2538 1.07484 15.0358 2.00006 15.0358C3.00005 15.0358 3.00005 14.1215 3.99989 14.1215C4.99997 14.1215 4.99997 15.0358 6.00005 15.0358C7.00012 15.0358 7.00012 14.1215 8.0002 14.1215C9.00019 14.1215 9.00019 15.0358 10 15.0358C11 15.0358 11 14.1215 12 14.1215C13 14.1215 13 15.0358 14.0001 15.0358C15.0002 15.0358 15.0002 14.1215 16.0001 14.1215C17.0001 14.1215 17.0001 15.0358 18 15.0358C19 15.0358 19 14.1215 20 14.1215C21 14.1215 21 15.0358 22 15.0358C22.9253 15.0358 22.995 14.2538 23.7922 14.1367C23.8913 13.6096 23.9567 13.0708 23.9846 12.5219C23.0004 12.5316 22.9945 13.4358 21.9999 13.4358Z" fill="#0052B4"/>
<path d="M20 15.6514C19 15.6514 19 16.5657 18 16.5657C17.0001 16.5657 17.0001 15.6514 16.0001 15.6514C15.0001 15.6514 15.0001 16.5657 14.0001 16.5657C13 16.5657 13 15.6514 12 15.6514C11 15.6514 11 16.5657 10 16.5657C9.00019 16.5657 9.00019 15.6514 8.0002 15.6514C7.00012 15.6514 7.00012 16.5657 6.00005 16.5657C4.99997 16.5657 4.99997 15.6514 3.99989 15.6514C3.00005 15.6514 3.00005 16.5657 2.00006 16.5657C1.26342 16.5657 1.06894 16.0699 0.617859 15.8087C0.891046 16.6252 1.24987 17.4023 1.68323 18.13C1.77708 18.1527 1.88142 18.1657 2.00002 18.1657C3 18.1657 3 17.2515 3.99984 17.2515C4.99992 17.2515 4.99992 18.1657 6 18.1657C7.00008 18.1657 7.00008 17.2515 8.00016 17.2515C9.00014 17.2515 9.00014 18.1657 9.99998 18.1657C11 18.1657 11 17.2515 11.9999 17.2515C13 17.2515 13 18.1657 14.0001 18.1657C15.0001 18.1657 15.0001 17.2515 16.0001 17.2515C17.0001 17.2515 17.0001 18.1657 18 18.1657C18.9999 18.1657 19 17.2515 19.9999 17.2515C21 17.2515 21 18.1657 21.9999 18.1657C22.1186 18.1657 22.2231 18.1527 22.317 18.13C22.7504 17.4023 23.1091 16.6252 23.3823 15.8087C22.9312 16.0699 22.7367 16.5658 21.9999 16.5658C21 16.5657 21 15.6514 20 15.6514Z" fill="#0052B4"/>
<path d="M23.721 9.4194C22.99 9.57113 22.8968 10.3059 22 10.3059C21 10.3059 21 9.3916 20 9.3916C19 9.3916 19 10.3059 18.0001 10.3059C17.0001 10.3059 17.0001 9.3916 16.0002 9.3916C15.0002 9.3916 15.0002 10.3059 14.0001 10.3059C13.0001 10.3059 13.0001 9.3916 12 9.3916C11.4597 9.3916 11.2112 9.65851 10.9393 9.90394V11.5039C11.2112 11.2585 11.4596 10.9917 12 10.9917C13.0001 10.9917 13.0001 11.9059 14.0001 11.9059C15.0002 11.9059 15.0002 10.9917 16.0002 10.9917C17.0001 10.9917 17.0001 11.9059 18.0001 11.9059C19 11.9059 19.0001 10.9917 20 10.9917C21.0001 10.9917 21.0001 11.9059 22 11.9059C22.9253 11.9059 22.9951 11.124 23.7922 11.0069C23.8433 11.0069 23.9004 11.0063 23.9588 11.0056C23.9145 10.466 23.8344 9.93647 23.721 9.4194Z" fill="#0052B4"/>
<path d="M22.8444 6.85745C22.6372 7.0315 22.3976 7.17606 22 7.17606C21 7.17606 21 6.26172 20 6.26172C19 6.26172 19 7.17606 18.0001 7.17606C17.0001 7.17606 17.0001 6.26172 16.0002 6.26172C15.0002 6.26172 15.0002 7.17606 14.0001 7.17606C13.0001 7.17606 13.0001 6.26172 12 6.26172C11.4597 6.26172 11.2112 6.52862 10.9393 6.77406V8.37405C11.2112 8.12866 11.4596 7.8618 12 7.8618C13.0001 7.8618 13.0001 8.77604 14.0001 8.77604C15.0001 8.77604 15.0001 7.8618 16.0001 7.8618C17.0001 7.8618 17.0001 8.77604 18 8.77604C19 8.77604 19 7.8618 20 7.8618C21 7.8618 21 8.77604 22 8.77604C22.7095 8.77604 22.9162 8.31644 23.3334 8.04916C23.1912 7.64148 23.0279 7.24375 22.8444 6.85745Z" fill="#0052B4"/>
<path d="M20.0854 3.13232C20.0576 3.13082 20.0294 3.12988 20 3.12988C19 3.12988 19 4.04423 18 4.04423C17.0001 4.04423 17.0001 3.12988 16.0001 3.12988C15.0001 3.12988 15.0001 4.04423 14.0001 4.04423C13 4.04423 13 3.12988 11.9999 3.12988C11.4596 3.12988 11.2111 3.39679 10.9392 3.64223V5.24221C11.2111 4.99682 11.4595 4.72996 11.9999 4.72996C13 4.72996 13 5.64421 14.0001 5.64421C15.0001 5.64421 15.0001 4.72996 16.0001 4.72996C17.0001 4.72996 17.0001 5.64421 18 5.64421C18.9999 5.64421 19 4.72996 19.9999 4.72996C21 4.72996 21 5.64421 21.9999 5.64421C22.0615 5.64421 22.119 5.64056 22.1735 5.63404C21.5927 4.7076 20.8894 3.86587 20.0854 3.13232Z" fill="#0052B4"/>
<path d="M15.0672 0.396188C14.7927 0.643125 14.5446 0.914344 14 0.914344C12.9999 0.914344 12.9999 9.375e-05 11.9998 0H11.9997C11.4825 4.6875e-05 11.2329 0.244594 10.9739 0.480797V2.08083C11.2328 1.84463 11.4826 1.60003 11.9998 1.60003C12.9999 1.60003 12.9999 2.51428 14 2.51428C15 2.51428 15 1.60003 16 1.60003C17 1.60003 17 2.51428 17.9999 2.51428C18.4195 2.51428 18.6629 2.35322 18.8781 2.16637C17.7374 1.36692 16.4512 0.761016 15.0672 0.396188Z" fill="#0052B4"/>
<path d="M14.0004 22.8275C13.0003 22.8275 13.0003 21.9131 12.0003 21.9131C11.0003 21.9131 11.0003 22.8275 10.0003 22.8275C9.00049 22.8275 9.00049 21.9131 8.00051 21.9131C7.23452 21.9131 7.05485 22.4491 6.5636 22.7003C7.91829 23.39 9.42143 23.8296 11.0124 23.9593C11.2584 23.7345 11.5084 23.5132 12.0003 23.5132C12.4923 23.5132 12.7422 23.7345 12.9883 23.9594C14.5793 23.8297 16.0826 23.39 17.4373 22.7003C16.9459 22.4492 16.7663 21.9131 16.0004 21.9131C15.0005 21.9131 15.0005 22.8275 14.0004 22.8275Z" fill="#0052B4"/>
<path d="M18.0002 19.6975C17.0002 19.6975 17.0002 18.7832 16.0003 18.7832C15.0003 18.7832 15.0003 19.6975 14.0003 19.6975C13.0002 19.6975 13.0002 18.7832 12.0001 18.7832C11.0001 18.7832 11.0001 19.6975 10.0002 19.6975C9.00035 19.6975 9.00035 18.7832 8.00036 18.7832C7.00028 18.7832 7.00028 19.6975 6.00021 19.6975C5.00013 19.6975 5.00013 18.7832 4.00005 18.7832C3.28094 18.7832 3.079 19.2562 2.65033 19.5217C2.91902 19.8554 3.20467 20.1748 3.50697 20.4776C3.64239 20.4197 3.8013 20.3832 4 20.3832C5.00008 20.3832 5.00008 21.2975 6.00016 21.2975C7.00024 21.2975 7.00024 20.3832 8.00031 20.3832C9.0003 20.3832 9.0003 21.2975 10.0001 21.2975C11.0001 21.2975 11.0001 20.3832 12.0001 20.3832C13.0001 20.3832 13.0001 21.2975 14.0002 21.2975C15.0003 21.2975 15.0003 20.3832 16.0002 20.3832C17.0002 20.3832 17.0002 21.2975 18.0002 21.2975C19.0001 21.2975 19.0001 20.3832 20.0001 20.3832C20.199 20.3832 20.3579 20.4197 20.4934 20.4777C20.7958 20.1748 21.0814 19.8554 21.3501 19.5218C20.9214 19.2563 20.7195 18.7832 20.0001 18.7832C19.0001 18.7832 19.0001 19.6975 18.0002 19.6975Z" fill="#0052B4"/>
<path d="M11.9675 11.999H11.9996C11.9996 11.9882 11.9996 11.9776 11.9996 11.9668C11.9889 11.9776 11.9782 11.9883 11.9675 11.999Z" fill="#F0F0F0"/>
<path d="M11.9996 6.26195V9.78756L7.82574 5.74023L11.9996 6.26195Z" fill="#0052B4"/>
<path d="M6.2606 12.0013H9.78606L6.26055 7.30566L5.73883 10.9578L6.2606 12.0013Z" fill="#0052B4"/>
<path d="M12 6.26086C12 4.14937 12 2.76586 12 0H11.998C5.3715 0.001125 0 5.37323 0 12H6.2609V8.47448L9.78637 12H11.9679C11.9786 11.9893 11.9893 11.9786 12 11.9679C12 11.1594 12 10.4381 12 9.78647L8.47443 6.26086H12Z" fill="#F0F0F0"/>
<path d="M6.07127 1.56445C4.19444 2.63316 2.63416 4.19344 1.56546 6.07027V11.9993H4.69591V4.695V4.69491H12.0003C12.0003 3.70758 12.0003 2.76698 12.0003 1.56445H6.07127Z" fill="#D80027"/>
<path d="M11.9999 10.5242L7.73643 6.26074H6.2608V6.26084L11.9999 11.9998H11.9999C11.9999 11.9998 11.9999 10.9823 11.9999 10.5242Z" fill="#D80027"/>
<path d="M15.652 6.26074H20.3477L17.9999 8.60857L15.652 6.26074Z" fill="#6DA544"/>
<path d="M18.5222 8.08691H17.4787V10.9565H18.5222V8.08691Z" fill="#A2001D"/>
<path d="M18.5212 15.6523H17.4777V18.5219H18.5212V15.6523Z" fill="#A2001D"/>
<path d="M21.1304 14.0877C21.1304 13.2233 20.4296 12.5225 19.5652 12.5225C19.1643 12.5225 18.7987 12.6735 18.5217 12.9214V12.0008H19.0435V10.9573H18.5217V10.4355H17.4783V10.9573H16.9565V12.0008H17.4783V12.9214C17.2013 12.6735 16.8357 12.5225 16.4348 12.5225C15.5703 12.5225 14.8696 13.2233 14.8696 14.0877C14.8696 14.5512 15.0712 14.9674 15.3913 15.2541V16.1747H20.6087V15.2541C20.9288 14.9674 21.1304 14.5512 21.1304 14.0877Z" fill="#FFDA44"/>
<path d="M19.5647 13.5645C19.4002 13.5645 19.285 13.6367 19.2172 13.6973L18.5213 14.3203H17.4778L16.7819 13.6973C16.7141 13.6367 16.5989 13.5645 16.4343 13.5645C16.1467 13.5645 15.9126 13.7985 15.9126 14.0862C15.9126 14.2888 16.0219 14.4168 16.087 14.4752L16.4344 14.7862V15.1297H19.5648V14.7862L19.9122 14.4752C19.9773 14.4169 20.0866 14.2888 20.0866 14.0862C20.0865 13.7985 19.8525 13.5645 19.5647 13.5645Z" fill="#D80027"/>
</g>
<defs>
<clipPath id="clip0_2941_28795">
<rect width="24" height="24" fill="white"/>
</clipPath>
</defs>
</svg>
