<svg width="24" height="24" viewBox="0 0 24 24" fill="none" xmlns="http://www.w3.org/2000/svg">
<g clip-path="url(#clip0_2941_29377)">
<path d="M12 24C18.6274 24 24 18.6274 24 12C24 5.37258 18.6274 0 12 0C5.37258 0 0 5.37258 0 12C0 18.6274 5.37258 24 12 24Z" fill="#F0F0F0"/>
<path d="M11.9998 -0.000976562C6.84019 -0.000976562 2.44167 3.25552 0.746155 7.82513H23.2534C21.5579 3.25552 17.1593 -0.000976562 11.9998 -0.000976562Z" fill="#A2001D"/>
<path d="M11.9999 24.0009C17.1595 24.0009 21.558 20.7444 23.2536 16.1748H0.746338C2.44185 20.7444 6.84037 24.0009 11.9999 24.0009Z" fill="black"/>
<path d="M9.13045 11.2189C9.12389 11.2189 9.11747 11.2193 9.1109 11.2194V11.2189H6.81698C6.93328 10.7696 7.341 10.4363 7.82611 10.4363V8.87109C6.38765 8.87109 5.21742 10.0414 5.21742 11.4798V12.7581V12.7842H9.1109C9.11972 12.7842 9.12665 12.7842 9.13045 12.7842C9.27431 12.7842 9.39131 12.9012 9.39131 13.045V13.5667H4.17389V15.132H10.9565V13.045C10.9565 12.0381 10.1373 11.2189 9.13045 11.2189Z" fill="#496E2D"/>
<path d="M13.0438 13.5658V8.87012H11.4786V15.131H14.0873V13.5658H13.0438Z" fill="#496E2D"/>
<path d="M18.2607 13.5658V8.87012H16.6955V13.5658H16.1737V12.0006H14.6085V15.1311H19.3042V13.5658H18.2607Z" fill="#496E2D"/>
</g>
<defs>
<clipPath id="clip0_2941_29377">
<rect width="24" height="24" fill="white"/>
</clipPath>
</defs>
</svg>
