<svg width="24" height="24" viewBox="0 0 24 24" fill="none" xmlns="http://www.w3.org/2000/svg">
<g clip-path="url(#clip0_2941_29372)">
<path d="M12 24C18.6274 24 24 18.6274 24 12C24 5.37258 18.6274 0 12 0C5.37258 0 0 5.37258 0 12C0 18.6274 5.37258 24 12 24Z" fill="#F0F0F0"/>
<path d="M15.8977 8.87016H14.3277C14.3407 9.04271 14.3481 9.2168 14.3481 9.39188C14.3481 10.5527 14.0579 11.6778 13.5521 12.4787C13.396 12.7258 13.1338 13.0746 12.7828 13.3099V8.87012H11.2176V13.3099C10.8666 13.0746 10.6044 12.7258 10.4483 12.4787C9.94246 11.6778 9.65235 10.5527 9.65235 9.39188C9.65235 9.2168 9.65975 9.04266 9.67269 8.87016H8.10266C8.09258 9.04187 8.0871 9.21577 8.0871 9.39188C8.0871 12.6101 9.80591 15.131 12.0001 15.131C14.1943 15.131 15.9132 12.6101 15.9132 9.39188C15.9133 9.21577 15.9078 9.04187 15.8977 8.87016Z" fill="#D80027"/>
<path d="M4.95684 5.73816H6.52204V6.78165H8.08724V5.73816H9.65245V6.78165H11.2176V5.73816H12.7829V6.78165H14.3481V5.73816H15.9133V6.78165H17.4785V5.73816H19.0437V6.78165H22.8095C20.8686 2.7677 16.7578 -0.000976562 12.0003 -0.000976562C7.24284 -0.000976562 3.13204 2.7677 1.19104 6.78165H4.95684V5.73816Z" fill="#6DA544"/>
<path d="M19.0438 17.2168V18.2603H17.4786V17.2168H15.9134V18.2603H14.3482V17.2168H12.783V18.2603H11.2178V17.2168H9.65259V18.2603H8.08738V17.2168H6.52204V18.2603H4.95684V17.2168H1.19104C3.13204 21.2307 7.24279 23.9994 12.0003 23.9994C16.7579 23.9994 20.8686 21.2307 22.8096 17.2168H19.0438Z" fill="#D80027"/>
</g>
<defs>
<clipPath id="clip0_2941_29372">
<rect width="24" height="24" fill="white"/>
</clipPath>
</defs>
</svg>
