<svg width="24" height="24" viewBox="0 0 24 24" fill="none" xmlns="http://www.w3.org/2000/svg">
<g clip-path="url(#clip0_2941_29354)">
<path d="M12 24C18.6274 24 24 18.6274 24 12C24 5.37258 18.6274 0 12 0C5.37258 0 0 5.37258 0 12C0 18.6274 5.37258 24 12 24Z" fill="#F0F0F0"/>
<path d="M0.413269 15.1309C1.10758 17.7071 2.63782 19.9399 4.69553 21.521V15.1309H0.413269Z" fill="#0052B4"/>
<path d="M10.9562 23.9548C11.3002 23.9844 11.6481 24.0004 11.9997 24.0004C17.5441 24.0004 22.2093 20.2401 23.5863 15.1309H10.9562V23.9548Z" fill="#0052B4"/>
<path d="M23.5863 8.86955C22.2093 3.76036 17.5441 0 11.9997 0C11.6481 0 11.3002 0.0160312 10.9562 0.0456562V8.86955H23.5863Z" fill="#0052B4"/>
<path d="M4.69553 2.47949C2.63782 4.06059 1.10758 6.29338 0.413269 8.86959H4.69553V2.47949Z" fill="#0052B4"/>
<path d="M23.8981 10.4347H9.39105H9.39101V0.285156C8.28204 0.531062 7.23068 0.929641 6.26055 1.459V10.4347H0.101273C0.0344761 10.9471 -0.000305176 11.4694 -0.000305176 11.9999C-0.000305176 12.5304 0.0344761 13.0528 0.101273 13.5651H6.26051H6.26055V22.5408C7.23068 23.0701 8.28204 23.4688 9.39101 23.7146V13.5653V13.5652H23.8981C23.9648 13.0528 23.9997 12.5304 23.9997 11.9999C23.9997 11.4694 23.9648 10.9471 23.8981 10.4347Z" fill="#D80027"/>
</g>
<defs>
<clipPath id="clip0_2941_29354">
<rect width="24" height="24" fill="white"/>
</clipPath>
</defs>
</svg>
