<svg width="24" height="24" viewBox="0 0 24 24" fill="none" xmlns="http://www.w3.org/2000/svg">
<g clip-path="url(#clip0_2941_29402)">
<path d="M12 24C18.6274 24 24 18.6274 24 12C24 5.37258 18.6274 0 12 0C5.37258 0 0 5.37258 0 12C0 18.6274 5.37258 24 12 24Z" fill="#FFDA44"/>
<path d="M19.3056 2.48062C17.2821 0.925266 14.7492 0 11.9998 0C9.25042 0 6.71748 0.925312 4.69403 2.48062L11.9998 9.78638L19.3056 2.48062Z" fill="#6DA544"/>
<path d="M2.48027 4.69336C0.925007 6.71681 -0.000305176 9.2497 -0.000305176 11.9991C-0.000305176 14.7485 0.925007 17.2815 2.48032 19.305L9.78612 11.9991L2.48027 4.69336Z" fill="black"/>
<path d="M4.69403 21.5186C6.71753 23.074 9.25042 23.9993 11.9998 23.9993C14.7492 23.9993 17.2821 23.0739 19.3056 21.5186L11.9998 14.2129L4.69403 21.5186Z" fill="#6DA544"/>
<path d="M21.5193 19.3049C23.0747 17.2814 23.9999 14.7485 23.9999 11.9991C23.9999 9.2497 23.0747 6.71681 21.5193 4.69336L14.2136 11.9991L21.5193 19.3049Z" fill="black"/>
</g>
<defs>
<clipPath id="clip0_2941_29402">
<rect width="24" height="24" fill="white"/>
</clipPath>
</defs>
</svg>
