<svg width="24" height="24" viewBox="0 0 24 24" fill="none" xmlns="http://www.w3.org/2000/svg">
<g clip-path="url(#clip0_2941_29416)">
<path d="M12 24C18.6274 24 24 18.6274 24 12C24 5.37258 18.6274 0 12 0C5.37258 0 0 5.37258 0 12C0 18.6274 5.37258 24 12 24Z" fill="#F0F0F0"/>
<path d="M7.30431 7.82611H23.2535C21.5581 3.2565 17.1595 0 12 0C8.68618 0 5.68651 1.34339 3.51508 3.51511L7.30431 7.82611Z" fill="black"/>
<path d="M7.30431 16.1748H23.2535C21.5581 20.7444 17.1595 24.0009 12 24.0009C8.68618 24.0009 5.68651 22.6575 3.51508 20.4858L7.30431 16.1748Z" fill="#6DA544"/>
<path d="M3.51477 3.51367C-1.17151 8.19995 -1.17151 15.798 3.51477 20.4843C5.45132 18.5478 7.31381 16.6853 12.0001 11.999L3.51477 3.51367Z" fill="#D80027"/>
<path d="M4.7628 9.3916L5.42135 10.7687L6.90865 10.425L6.24255 11.7985L7.43857 12.747L5.94949 13.0825L5.95361 14.609L4.7628 13.654L3.57194 14.609L3.57611 13.0825L2.08704 12.747L3.28301 11.7985L2.617 10.425L4.10421 10.7687L4.7628 9.3916Z" fill="#F0F0F0"/>
</g>
<defs>
<clipPath id="clip0_2941_29416">
<rect width="24" height="24" fill="white"/>
</clipPath>
</defs>
</svg>
