<svg width="24" height="24" viewBox="0 0 24 24" fill="none" xmlns="http://www.w3.org/2000/svg">
<g clip-path="url(#clip0_2941_29427)">
<path d="M12 24C18.6274 24 24 18.6274 24 12C24 5.37258 18.6274 0 12 0C5.37258 0 0 5.37258 0 12C0 18.6274 5.37258 24 12 24Z" fill="#F0F0F0"/>
<path d="M12.0003 -0.000976562C7.24279 -0.000976562 3.13204 2.7677 1.19104 6.78165H22.8096C20.8686 2.7677 16.7578 -0.000976562 12.0003 -0.000976562Z" fill="black"/>
<path d="M12.0003 24.0004C7.24279 24.0004 3.13204 21.2317 1.19104 17.2178H22.8096C20.8686 21.2317 16.7578 24.0004 12.0003 24.0004Z" fill="#496E2D"/>
<path d="M23.4335 8.34668H0.566794C0.1992 9.49835 0.00012207 10.7253 0.00012207 11.9989C0.00012207 13.2724 0.1992 14.4994 0.566794 15.651H23.4334C23.801 14.4994 24.0001 13.2724 24.0001 11.9989C24.0001 10.7253 23.801 9.49835 23.4335 8.34668Z" fill="#A2001D"/>
<path d="M15.7368 5.54557L14.3157 4.88965L12.0002 10.1327L9.68466 4.88965L8.26355 5.54557L11.1383 12.0002L8.26355 18.4549L9.68466 19.1108L12.0002 13.8678L14.3157 19.1108L15.7368 18.4549L12.8621 12.0002L15.7368 5.54557Z" fill="#F0F0F0"/>
<path d="M12.9654 6.16394C12.4153 5.56315 12.0002 5.21777 12.0002 5.21777C12.0002 5.21777 11.5851 5.5631 11.035 6.16394V17.8368C11.5851 18.4376 12.0002 18.783 12.0002 18.783C12.0002 18.783 12.4153 18.4377 12.9654 17.8368V6.16394Z" fill="#F0F0F0"/>
<path d="M9.39166 8.4019V15.5978C9.97301 16.6278 10.6845 17.4722 11.2178 18.0319V5.96777C10.6845 6.52751 9.97296 7.37187 9.39166 8.4019Z" fill="#A2001D"/>
<path d="M14.6088 8.40287C14.0274 7.3728 13.316 6.52848 12.7827 5.96875V18.0329C13.3159 17.4731 14.0274 16.6288 14.6088 15.5987V8.40287Z" fill="#A2001D"/>
<path d="M14.6087 8.40137V15.5972C15.1972 14.5543 15.6522 13.3211 15.6522 11.9994C15.6522 10.6776 15.1972 9.44434 14.6087 8.40137Z" fill="black"/>
<path d="M9.39126 8.40137V15.5972C8.80275 14.5543 8.34778 13.3211 8.34778 11.9994C8.34778 10.6776 8.80275 9.44434 9.39126 8.40137Z" fill="black"/>
</g>
<defs>
<clipPath id="clip0_2941_29427">
<rect width="24" height="24" fill="white"/>
</clipPath>
</defs>
</svg>
