<svg width="24" height="24" viewBox="0 0 24 24" fill="none" xmlns="http://www.w3.org/2000/svg">
<g clip-path="url(#clip0_2941_29456)">
<path d="M12 24C18.6274 24 24 18.6274 24 12C24 5.37258 18.6274 0 12 0C5.37258 0 0 5.37258 0 12C0 18.6274 5.37258 24 12 24Z" fill="#D80027"/>
<path d="M17.8682 11.9996L15.4703 13.1275L16.7472 15.45L14.1432 14.9518L13.8134 17.5822L11.9995 15.6477L10.1859 17.5822L9.8559 14.9518L7.25209 15.4499L8.52897 13.1274L6.13098 11.9996L8.52897 10.8718L7.25209 8.54919L9.85581 9.04747L10.186 6.41699L11.9995 8.35157L13.8135 6.41699L14.1432 9.04747L16.7473 8.54919L15.4704 10.8719L17.8682 11.9996Z" fill="#FFDA44"/>
<path d="M12.0003 15.651C14.0173 15.651 15.6524 14.0159 15.6524 11.9989C15.6524 9.98181 14.0173 8.34668 12.0003 8.34668C9.98322 8.34668 8.34808 9.98181 8.34808 11.9989C8.34808 14.0159 9.98322 15.651 12.0003 15.651Z" fill="#D80027"/>
<path d="M10.1742 12C10.0862 12 9.99931 12.0045 9.91357 12.013C9.91671 12.5189 10.0997 12.9818 10.402 13.3415C10.5632 12.9076 10.804 12.5119 11.1076 12.1733C10.8176 12.0618 10.503 12 10.1742 12Z" fill="#FFDA44"/>
<path d="M11.2984 13.9666C11.5178 14.0449 11.754 14.0879 12.0004 14.0879C12.2467 14.0879 12.4829 14.0449 12.7023 13.9666C12.5827 13.4972 12.3358 13.0783 12.0004 12.749C11.6649 13.0782 11.418 13.4972 11.2984 13.9666Z" fill="#FFDA44"/>
<path d="M13.8078 10.9569C13.4469 10.3332 12.773 9.91309 12.0005 9.91309C11.228 9.91309 10.5541 10.3331 10.1932 10.9569C10.8511 10.9602 11.468 11.1391 12.0005 11.448C12.5331 11.1391 13.1498 10.9602 13.8078 10.9569Z" fill="#FFDA44"/>
<path d="M12.8926 12.1733C13.1963 12.5119 13.437 12.9075 13.5983 13.3415C13.9005 12.9818 14.0835 12.5189 14.0866 12.013C14.0009 12.0045 13.914 12 13.8261 12C13.4973 12 13.1827 12.0617 12.8926 12.1733Z" fill="#FFDA44"/>
</g>
<defs>
<clipPath id="clip0_2941_29456">
<rect width="24" height="24" fill="white"/>
</clipPath>
</defs>
</svg>
