<svg width="24" height="24" viewBox="0 0 24 24" fill="none" xmlns="http://www.w3.org/2000/svg">
<g clip-path="url(#clip0_2941_28880)">
<path d="M0.000213623 12.0004C0.000213623 14.0793 0.529104 16.0346 1.45929 17.7395L12.0002 18.783L22.5411 17.7395C23.4713 16.0346 24.0002 14.0793 24.0002 12.0004C24.0002 9.92149 23.4713 7.96615 22.5411 6.26126L12.0002 5.21777L1.45929 6.26126C0.529104 7.96615 0.000213623 9.92149 0.000213623 12.0004Z" fill="#D80027"/>
<path d="M1.45908 6.26086H22.5409C20.5057 2.53073 16.5485 0 12 0C7.45148 0 3.49434 2.53073 1.45908 6.26086Z" fill="#0052B4"/>
<path d="M12 24.0001C16.5485 24.0001 20.5057 21.4694 22.5409 17.7393H1.45911C3.49437 21.4694 7.45151 24.0001 12 24.0001Z" fill="#0052B4"/>
<path d="M16.1743 14.3471V12.7819H15.1309V10.6949L14.0874 9.65142L13.0439 10.6949V8.60794L12.0004 7.56445L10.9569 8.60794V10.6949L9.91346 9.65142L8.86997 10.6949V12.7819H7.82654V14.3471H6.78305V15.9123H17.2178V14.3471H16.1743Z" fill="#F0F0F0"/>
</g>
<defs>
<clipPath id="clip0_2941_28880">
<rect width="24" height="24" fill="white"/>
</clipPath>
</defs>
</svg>
