<svg width="24" height="24" viewBox="0 0 24 24" fill="none" xmlns="http://www.w3.org/2000/svg">
<g clip-path="url(#clip0_2941_29440)">
<path d="M0 12C0 5.37262 5.37262 0 12 0C18.6274 0 24 5.37262 24 12" fill="#D80027"/>
<path d="M16.1734 11.161L14.4679 11.9631L15.3761 13.615L13.5241 13.2606L13.2895 15.1315L11.9995 13.7555L10.7095 15.1315L10.4749 13.2606L8.62292 13.6149L9.53112 11.9631L7.82562 11.161L9.53112 10.3587L8.62292 8.70702L10.4749 9.06121L10.7096 7.19043L11.9995 8.56635L13.2895 7.19043L13.5241 9.06121L15.3762 8.70702L14.468 10.3588L16.1734 11.161Z" fill="#FFDA44"/>
<path d="M15.1305 3.91348H12.7826C12.7826 3.48134 12.4322 3.13086 12 3.13086C11.5678 3.13086 11.2174 3.4813 11.2174 3.91348H8.86957C8.86957 4.34567 9.24607 4.69611 9.67826 4.69611H9.65215C9.65215 5.1283 10.0025 5.47873 10.4348 5.47873C10.4348 5.91092 10.7851 6.26136 11.2174 6.26136H12.7826C13.2147 6.26136 13.5652 5.91097 13.5652 5.47873C13.9974 5.47873 14.3478 5.12834 14.3478 4.69611H14.3217C14.754 4.69611 15.1305 4.34572 15.1305 3.91348Z" fill="#FFDA44"/>
<path d="M24.0002 12C24.0002 18.6274 18.6276 24 12.0002 24C5.37287 24 0.000244141 18.6274 0.000244141 12C0.521963 12 24.0002 12 24.0002 12Z" fill="#F0F0F0"/>
<path d="M12.0005 24.0009C15.7515 24.0009 19.1 22.2795 21.3006 19.584C20.9048 19.3141 20.6911 18.8779 20.0003 18.8779C19.0003 18.8779 19.0003 19.7923 18.0004 19.7923C17.0005 19.7923 17.0004 18.8779 16.0005 18.8779C15.0005 18.8779 15.0005 19.7923 14.0005 19.7923C13.0004 19.7923 13.0004 18.8779 12.0003 18.8779C11.0003 18.8779 11.0003 19.7923 10.0004 19.7923C9.00054 19.7923 9.00054 18.8779 8.00055 18.8779C7.00047 18.8779 7.00047 19.7923 6.0004 19.7923C5.00032 19.7923 5.00032 18.8779 4.00024 18.8779C3.30958 18.8779 3.09588 19.3141 2.70026 19.5839C4.90076 22.2795 8.24941 24.0009 12.0005 24.0009Z" fill="#0052B4"/>
<path d="M22 13.5315C21 13.5315 21 12.6172 20 12.6172C19 12.6172 19 13.5315 18 13.5315C17.0001 13.5315 17.0001 12.6172 16.0001 12.6172C15.0001 12.6172 15.0001 13.5315 14.0001 13.5315C13.0001 13.5315 13 12.6172 11.9999 12.6172C11 12.6172 11 13.5315 10 13.5315C9.00018 13.5315 9.00018 12.6172 8.0002 12.6172C7.00012 12.6172 7.00012 13.5315 6.00004 13.5315C4.99997 13.5315 4.99997 12.6172 3.99989 12.6172C3.00004 12.6172 3.00004 13.5315 2.00006 13.5315C1.00547 13.5315 0.9997 12.6273 0.0157471 12.6176C0.0434502 13.1665 0.108981 13.7054 0.208075 14.2324C1.00514 14.3495 1.07493 15.1315 2.00011 15.1315C3.00009 15.1315 3.00009 14.2173 3.99993 14.2173C5.00001 14.2173 5.00001 15.1315 6.00009 15.1315C7.00017 15.1315 7.00017 14.2173 8.00025 14.2173C9.00023 14.2173 9.00023 15.1315 10.0001 15.1315C11.0001 15.1315 11.0001 14.2173 12 14.2173C13.0001 14.2173 13.0001 15.1315 14.0002 15.1315C15.0002 15.1315 15.0002 14.2173 16.0002 14.2173C17.0002 14.2173 17.0002 15.1315 18.0001 15.1315C19 15.1315 19.0001 14.2173 20 14.2173C21.0001 14.2173 21.0001 15.1315 22 15.1315C22.9253 15.1315 22.9951 14.3495 23.7922 14.2324C23.8913 13.7054 23.9568 13.1666 23.9846 12.6177C23.0005 12.6274 22.9946 13.5315 22 13.5315Z" fill="#0052B4"/>
<path d="M20.0002 15.748C19.0002 15.748 19.0002 16.6624 18.0003 16.6624C17.0003 16.6624 17.0003 15.748 16.0003 15.748C15.0004 15.748 15.0004 16.6624 14.0003 16.6624C13.0003 16.6624 13.0003 15.748 12.0002 15.748C11.0002 15.748 11.0002 16.6624 10.0003 16.6624C9.00041 16.6624 9.00041 15.748 8.00043 15.748C7.00035 15.748 7.00035 16.6624 6.00027 16.6624C5.00019 16.6624 5.00019 15.748 4.00011 15.748C3.00027 15.748 3.00027 16.6624 2.00029 16.6624C1.28577 16.6624 1.08168 16.1957 0.65863 15.9291C0.940255 16.7428 1.30663 17.5168 1.74786 18.2404C1.8246 18.2545 1.90813 18.2624 2.00029 18.2624C3.00027 18.2624 3.00027 17.3481 4.00011 17.3481C5.00019 17.3481 5.00019 18.2624 6.00027 18.2624C7.00035 18.2624 7.00035 17.3481 8.00043 17.3481C9.00041 17.3481 9.00041 18.2624 10.0003 18.2624C11.0002 18.2624 11.0002 17.3481 12.0002 17.3481C13.0003 17.3481 13.0003 18.2624 14.0003 18.2624C15.0004 18.2624 15.0004 17.3481 16.0003 17.3481C17.0003 17.3481 17.0003 18.2624 18.0003 18.2624C19.0002 18.2624 19.0003 17.3481 20.0002 17.3481C21.0003 17.3481 21.0003 18.2624 22.0002 18.2624C22.0925 18.2624 22.176 18.2545 22.2527 18.2403C22.694 17.5168 23.0603 16.7428 23.3421 15.9291C22.919 16.1956 22.7148 16.6624 22.0002 16.6624C21.0003 16.6624 21.0003 15.748 20.0002 15.748Z" fill="#0052B4"/>
<path d="M23.963 11.0508C23.0007 11.0736 22.9874 11.9641 22.0001 11.9641C21.0001 11.9641 21.0001 11.0498 20.0001 11.0498C19.0001 11.0498 19.0001 11.9641 18.0001 11.9641C17.0002 11.9641 17.0002 11.0498 16.0002 11.0498C15.0002 11.0498 15.0002 11.9641 14.0002 11.9641C13.0002 11.9641 13.0001 11.0498 12.0001 11.0498C11.0001 11.0498 11.0001 11.9641 10.0001 11.9641C9.00029 11.9641 9.00029 11.0498 8.00031 11.0498C7.00023 11.0498 7.00023 11.9641 6.00015 11.9641C5.00007 11.9641 5.00007 11.0498 3.99999 11.0498C3.00015 11.0498 3.00015 11.9641 2.00017 11.9641C1.01303 11.9641 0.999666 11.0737 0.037416 11.0508C0.0129941 11.3637 0.000244141 11.6798 0.000244141 11.9989C0.000244141 12.2175 0.00643164 12.4346 0.0181035 12.6503C0.999807 12.6613 1.00632 13.5641 2.00021 13.5641C3.0002 13.5641 3.0002 12.6498 4.00004 12.6498C5.00012 12.6498 5.00012 13.5641 6.0002 13.5641C7.00028 13.5641 7.00028 12.6498 8.00035 12.6498C9.00034 12.6498 9.00034 13.5641 10.0002 13.5641C11.0002 13.5641 11.0002 12.6498 12.0001 12.6498C13.0002 12.6498 13.0002 13.5641 14.0003 13.5641C15.0003 13.5641 15.0003 12.6498 16.0003 12.6498C17.0003 12.6498 17.0003 13.5641 18.0002 13.5641C19.0001 13.5641 19.0002 12.6498 20.0001 12.6498C21.0002 12.6498 21.0002 13.5641 22.0001 13.5641C22.9941 13.5641 23.0006 12.6613 23.9825 12.6503C23.9941 12.4346 24.0002 12.2175 24.0002 11.9989C24.0002 11.6798 23.9875 11.3637 23.963 11.0508Z" fill="#F0F0F0"/>
</g>
<defs>
<clipPath id="clip0_2941_29440">
<rect width="24" height="24" fill="white"/>
</clipPath>
</defs>
</svg>
