<svg width="24" height="24" viewBox="0 0 24 24" fill="none" xmlns="http://www.w3.org/2000/svg">
<g clip-path="url(#clip0_2941_29905)">
<path d="M12 24C18.6274 24 24 18.6274 24 12C24 5.37257 18.6274 0 12 0C5.37257 0 0 5.37257 0 12C0 18.6274 5.37257 24 12 24Z" fill="#FFDA44"/>
<path d="M3.51503 20.485C4.01842 20.9884 4.55556 21.4374 5.11895 21.8326L21.8331 5.11844C21.4379 4.555 20.989 4.0179 20.4855 3.51451C19.9822 3.01112 19.4451 2.56229 18.8817 2.16699L2.1676 18.8812C2.56276 19.4446 3.01164 19.9816 3.51503 20.485Z" fill="black"/>
<path d="M3.51432 3.51512C-0.271448 7.30089 -0.998247 12.9865 1.33257 17.5025L17.5017 1.33346C12.9857 -0.997312 7.29996 -0.270514 3.51432 3.51512Z" fill="#6DA544"/>
<path d="M20.4853 20.4845C24.271 16.6988 24.9978 11.0132 22.6671 6.49707L6.49786 22.6663C11.0139 24.997 16.6995 24.2702 20.4853 20.4845Z" fill="#D80027"/>
<path d="M7.62977 14.158L8.74999 14.7288L9.63902 13.8398L9.44234 15.0815L10.5625 15.6524L9.32074 15.849L9.12406 17.0908L8.5533 15.9705L7.31158 16.1672L8.20057 15.2782L7.62977 14.158Z" fill="#F0F0F0"/>
<path d="M14.1561 7.63069L15.2763 8.20149L16.1653 7.3125L15.9686 8.55417L17.0888 9.12502L15.8471 9.3217L15.6504 10.5634L15.0796 9.44325L13.8379 9.63989L14.7269 8.75091L14.1561 7.63069Z" fill="#F0F0F0"/>
</g>
<defs>
<clipPath id="clip0_2941_29905">
<rect width="24" height="24" fill="white"/>
</clipPath>
</defs>
</svg>
