<svg width="24" height="24" viewBox="0 0 24 24" fill="none" xmlns="http://www.w3.org/2000/svg">
<g clip-path="url(#clip0_2941_29751)">
<path d="M12 24C18.6274 24 24 18.6274 24 12C24 5.37258 18.6274 0 12 0C5.37258 0 0 5.37258 0 12C0 18.6274 5.37258 24 12 24Z" fill="#F0F0F0"/>
<path d="M11.9999 0C8.36279 0 5.1039 1.61831 2.90326 4.17389H21.0964C18.8958 1.61831 15.6369 0 11.9999 0Z" fill="#0052B4"/>
<path d="M21.0962 19.8271H2.90295C5.1036 22.3827 8.36249 24.001 11.9996 24.001C15.6366 24.001 18.8955 22.3827 21.0962 19.8271Z" fill="#0052B4"/>
<path d="M22.2388 5.73828H1.76134C0.644358 7.56102 6.10352e-05 9.70475 6.10352e-05 11.9991C6.10352e-05 14.2935 0.644358 16.4373 1.76134 18.26H22.2388C23.3558 16.4373 24.0001 14.2935 24.0001 11.9991C24.0001 9.70475 23.3558 7.56102 22.2388 5.73828Z" fill="#D80027"/>
<path d="M7.38269 16.6185C9.9328 16.6185 12.0001 14.5513 12.0001 12.0012C12.0001 9.45106 9.9328 7.38379 7.38269 7.38379C4.83259 7.38379 2.76532 9.45106 2.76532 12.0012C2.76532 14.5513 4.83259 16.6185 7.38269 16.6185Z" fill="#F0F0F0"/>
<path d="M7.38242 7.38379L8.41841 10.5723H11.7764L9.05877 12.543L10.1029 15.741L7.38242 13.7609L4.66611 15.7373L5.70608 12.543L2.99084 10.5723H6.34639L7.38242 7.38379Z" fill="#D80027"/>
</g>
<defs>
<clipPath id="clip0_2941_29751">
<rect width="24" height="24" fill="white"/>
</clipPath>
</defs>
</svg>
