<svg width="24" height="24" viewBox="0 0 24 24" fill="none" xmlns="http://www.w3.org/2000/svg">
<g clip-path="url(#clip0_2941_29451)">
<path d="M23.254 16.1735C23.7364 14.8735 24.0004 13.4675 24.0004 11.9996C24.0004 10.5318 23.7364 9.1257 23.254 7.82571L12.0004 6.78223L0.746818 7.82571C0.264474 9.1257 0.000427246 10.5318 0.000427246 11.9996C0.000427246 13.4675 0.264474 14.8735 0.746818 16.1735L12.0004 17.217L23.254 16.1735Z" fill="#F0F0F0"/>
<path d="M12.0002 23.9999C17.1598 23.9999 21.5583 20.7434 23.2538 16.1738H0.746582C2.44214 20.7434 6.84061 23.9999 12.0002 23.9999Z" fill="#D80027"/>
<path d="M12.0002 -0.000976562C6.84061 -0.000976562 2.44214 3.25552 0.746582 7.82513H23.2538C21.5583 3.25552 17.1598 -0.000976562 12.0002 -0.000976562Z" fill="#6DA544"/>
<path d="M3.51514 3.51465C-1.17114 8.20093 -1.17114 15.7989 3.51514 20.4853C4.73834 19.2621 5.93225 18.0682 7.82651 16.1739V7.82607L3.51514 3.51465Z" fill="black"/>
</g>
<defs>
<clipPath id="clip0_2941_29451">
<rect width="24" height="24" fill="white"/>
</clipPath>
</defs>
</svg>
