<svg width="24" height="24" viewBox="0 0 24 24" fill="none" xmlns="http://www.w3.org/2000/svg">
<g clip-path="url(#clip0_2941_28897)">
<path d="M24 12C24 18.6274 18.6274 24 12 24C5.37262 24 0 18.6274 0 12C0 12.0029 12 0.0013125 12 0C18.6274 0 24 5.37262 24 12Z" fill="#0052B4"/>
<path d="M11.9686 12.0009H12.0008C12.0008 11.9901 12.0008 11.9796 12.0008 11.9688C11.9901 11.9795 11.9794 11.9902 11.9686 12.0009Z" fill="#F0F0F0"/>
<path d="M12.0002 6.26086C12.0002 4.14937 12.0002 2.76586 12.0002 0H11.9982C5.3717 0.001125 0.000244141 5.37323 0.000244141 12H6.2611V8.47448L9.78662 12H11.9682C11.9789 11.9893 11.9896 11.9786 12.0003 11.9679C12.0003 11.1594 12.0003 10.4381 12.0003 9.78647L8.47468 6.26086H12.0002Z" fill="#F0F0F0"/>
<path d="M17.2173 8.86925C18.3699 8.86925 19.3042 7.93489 19.3042 6.78228C19.3042 5.62968 18.3699 4.69531 17.2173 4.69531C16.0647 4.69531 15.1303 5.62968 15.1303 6.78228C15.1303 7.93489 16.0647 8.86925 17.2173 8.86925Z" fill="#6DA544"/>
<path d="M6.0706 1.56543C4.19377 2.63413 2.63345 4.19441 1.56479 6.07124V12.0002H4.69524V4.69598V4.69588H11.9996C11.9996 3.70856 11.9996 2.76796 11.9996 1.56543H6.0706Z" fill="#D80027"/>
<path d="M11.9993 10.5242L7.73579 6.26074H6.26016V6.26084L11.9992 11.9998H11.9993C11.9993 11.9998 11.9993 10.9823 11.9993 10.5242Z" fill="#D80027"/>
<path d="M20.8691 6.26074H13.5648V9.39119H20.8691V6.26074Z" fill="#D80027"/>
<path d="M13.5652 14.0869V16.1739H14.6632C15.3216 16.8191 16.2228 17.2174 17.2174 17.2174C18.2121 17.2174 19.1132 16.8191 19.7716 16.1739H19.8261H20.8696V14.0869H13.5652Z" fill="#FFDA44"/>
<path d="M13.5652 8.86914V11.9996C13.5652 14.7952 17.2174 15.6518 17.2174 15.6518C17.2174 15.6518 20.8696 14.7952 20.8696 11.9996V8.86914H13.5652Z" fill="#338AF3"/>
<path d="M17.2173 10.54C16.3043 10.54 16.3043 11.3748 15.3913 11.3748C14.4783 11.3748 14.4783 10.54 13.5653 10.54V12.0009C14.4783 12.0009 14.4783 12.8357 15.3913 12.8357C16.3043 12.8357 16.3043 12.0009 17.2173 12.0009C18.1304 12.0009 18.1304 12.8357 19.0435 12.8357C19.9566 12.8357 19.9566 12.0009 20.8697 12.0009V10.54C19.9566 10.54 19.9566 11.3748 19.0435 11.3748C18.1304 11.3748 18.1304 10.54 17.2173 10.54Z" fill="#F3F3F3"/>
<path d="M17.2172 7.61621C16.3042 7.61621 16.3042 8.45101 15.3912 8.45101C14.4782 8.45101 14.4782 7.61621 13.5652 7.61621V9.07707C14.4782 9.07707 14.4782 9.91187 15.3912 9.91187C16.3042 9.91187 16.3042 9.07707 17.2172 9.07707C18.1303 9.07707 18.1303 9.91187 19.0434 9.91187C19.9565 9.91187 19.9565 9.07707 20.8696 9.07707V7.61621C19.9565 7.61621 19.9565 8.45101 19.0434 8.45101C18.1303 8.45101 18.1303 7.61621 17.2172 7.61621Z" fill="#F3F3F3"/>
</g>
<defs>
<clipPath id="clip0_2941_28897">
<rect width="24" height="24" fill="white"/>
</clipPath>
</defs>
</svg>
