<svg width="24" height="24" viewBox="0 0 24 24" fill="none" xmlns="http://www.w3.org/2000/svg">
<g clip-path="url(#clip0_2941_29422)">
<path d="M12 24C18.6274 24 24 18.6274 24 12C24 5.37258 18.6274 0 12 0C5.37258 0 0 5.37258 0 12C0 18.6274 5.37258 24 12 24Z" fill="#338AF3"/>
<path d="M18.783 12.1299H5.21771C5.21771 13.0664 6.03338 13.8255 6.96981 13.8255H6.91337C6.91337 14.7621 7.67251 15.5212 8.60902 15.5212C8.60902 16.4577 9.36817 17.2169 10.3047 17.2169H13.696C14.6325 17.2169 15.3916 16.4577 15.3916 15.5212C16.3282 15.5212 17.0873 14.7621 17.0873 13.8255H17.0309C17.9672 13.8255 18.783 13.0664 18.783 12.1299Z" fill="#FFDA44"/>
<path d="M16.6961 9.91309C16.6961 12.5064 14.5937 14.6087 12.0004 14.6087C9.40704 14.6087 7.30475 12.5064 7.30475 9.91309" fill="#338AF3"/>
<path d="M15.5865 9.91287L14.1209 10.6023L14.9014 12.0216L13.31 11.7172L13.1083 13.3248L11.9998 12.1424L10.8913 13.3248L10.6897 11.7172L9.09833 12.0215L9.87871 10.6022L8.41321 9.91287L9.87875 9.22353L9.09833 7.8042L10.6897 8.1086L10.8914 6.50098L11.9998 7.6834L13.1083 6.50098L13.31 8.1086L14.9014 7.8042L14.121 9.22357L15.5865 9.91287Z" fill="#FFDA44"/>
</g>
<defs>
<clipPath id="clip0_2941_29422">
<rect width="24" height="24" fill="white"/>
</clipPath>
</defs>
</svg>
