<svg width="24" height="24" viewBox="0 0 24 24" fill="none" xmlns="http://www.w3.org/2000/svg">
<g clip-path="url(#clip0_2941_29465)">
<path d="M22.8094 6.78165C20.8684 2.7677 16.7576 -0.000976562 12.0001 -0.000976562C7.24254 -0.000976562 3.1318 2.7677 1.1908 6.78165L12.0001 7.82513L22.8094 6.78165Z" fill="#D80027"/>
<path d="M1.19049 17.2163C3.13149 21.2303 7.24224 23.999 11.9998 23.999C16.7573 23.999 20.8681 21.2303 22.8091 17.2163L11.9998 16.1729L1.19049 17.2163Z" fill="#D80027"/>
<path d="M22.809 6.78223H1.19041C0.42757 8.35981 -0.000305176 10.1297 -0.000305176 11.9996C-0.000305176 13.8695 0.42757 15.6394 1.19041 17.217H22.8089C23.5719 15.6394 23.9997 13.8695 23.9997 11.9996C23.9997 10.1297 23.5719 8.35981 22.809 6.78223Z" fill="#0052B4"/>
<path d="M12.0001 16.174C14.3053 16.174 16.174 14.3052 16.174 12.0001C16.174 9.69489 14.3053 7.82617 12.0001 7.82617C9.69495 7.82617 7.82623 9.69489 7.82623 12.0001C7.82623 14.3052 9.69495 16.174 12.0001 16.174Z" fill="#F0F0F0"/>
</g>
<defs>
<clipPath id="clip0_2941_29465">
<rect width="24" height="24" fill="white"/>
</clipPath>
</defs>
</svg>
