<svg width="24" height="24" viewBox="0 0 24 24" fill="none" xmlns="http://www.w3.org/2000/svg">
<g clip-path="url(#clip0_2941_29476)">
<path d="M12 24C18.6274 24 24 18.6274 24 12C24 5.37258 18.6274 0 12 0C5.37258 0 0 5.37258 0 12C0 18.6274 5.37258 24 12 24Z" fill="#F0F0F0"/>
<path d="M12.0001 -0.000976562C7.24261 -0.000976562 3.13186 2.7677 1.19086 6.78165H22.8094C20.8684 2.7677 16.7576 -0.000976562 12.0001 -0.000976562Z" fill="#D80027"/>
<path d="M12.0003 23.9994C16.7578 23.9994 20.8686 21.2308 22.8096 17.2168H1.19104C3.13204 21.2308 7.24279 23.9994 12.0003 23.9994Z" fill="#D80027"/>
<path d="M15.1305 14.0858L12.0001 8.34668L8.86963 14.0858H11.2175V15.651H12.7827V14.0858H15.1305Z" fill="#6DA544"/>
</g>
<defs>
<clipPath id="clip0_2941_29476">
<rect width="24" height="24" fill="white"/>
</clipPath>
</defs>
</svg>
