<svg width="24" height="24" viewBox="0 0 24 24" fill="none" xmlns="http://www.w3.org/2000/svg">
<g clip-path="url(#clip0_2941_29511)">
<path d="M24.0002 11.9998C24.0002 18.6272 18.6276 23.9998 12.0002 23.9998C5.37287 23.9998 0.000244141 18.6272 0.000244141 11.9998C0.521963 11.9998 12.0002 10.4346 12.0002 10.4346L24.0002 11.9998Z" fill="#D80027"/>
<path d="M0 12C0 5.37262 5.37262 0 12 0C18.6274 0 24 5.37262 24 12" fill="#0052B4"/>
<path d="M8.86993 8.34748C8.86993 7.48306 8.16914 6.78228 7.30472 6.78228C6.90371 6.78228 6.53822 6.93322 6.26124 7.18114V6.26052H6.78296V5.21703H6.26124V4.69531H5.21776V5.21703H4.69604V6.26052H5.21776V7.18114C4.94077 6.93322 4.57529 6.78228 4.17427 6.78228C3.30985 6.78228 2.60907 7.48306 2.60907 8.34748C2.60907 8.81094 2.81068 9.22719 3.13079 9.51383V10.4345H8.34816V9.51383C8.66836 9.22719 8.86993 8.81094 8.86993 8.34748Z" fill="#FFDA44"/>
</g>
<defs>
<clipPath id="clip0_2941_29511">
<rect width="24" height="24" fill="white"/>
</clipPath>
</defs>
</svg>
