<svg width="24" height="24" viewBox="0 0 24 24" fill="none" xmlns="http://www.w3.org/2000/svg">
<g clip-path="url(#clip0_2941_29487)">
<path d="M12 24C18.6274 24 24 18.6274 24 12C24 5.37258 18.6274 0 12 0C5.37258 0 0 5.37258 0 12C0 18.6274 5.37258 24 12 24Z" fill="#F0F0F0"/>
<path d="M2.74292 4.36344H21.257C20.5732 3.53539 19.7801 2.80109 18.9003 2.18164H5.09965C4.21986 2.801 3.42678 3.53534 2.74292 4.36344Z" fill="#F0F0F0"/>
<path d="M0 12.0001C0 12.3679 0.0174844 12.7315 0.049875 13.091H23.9501C23.9825 12.7315 24 12.3679 24 12.0001C24 11.6322 23.9825 11.2686 23.9501 10.9092H0.049875C0.0174844 11.2686 0 11.6322 0 12.0001Z" fill="#F0F0F0"/>
<path d="M1.3089 17.4542H22.6918C23.0451 16.763 23.3333 16.0331 23.5485 15.2725H0.452209C0.667319 16.0331 0.9556 16.763 1.3089 17.4542Z" fill="#F0F0F0"/>
<path d="M5.09965 21.8185H18.9003C19.7801 21.1991 20.5732 20.4648 21.257 19.6367H2.74292C3.42678 20.4647 4.21986 21.1991 5.09965 21.8185Z" fill="#F0F0F0"/>
<path d="M0.452087 8.7277H23.5484C23.3333 7.96701 23.045 7.23707 22.6917 6.5459H1.30882C0.955525 7.23707 0.667244 7.96701 0.452087 8.7277Z" fill="#F0F0F0"/>
<path d="M5.73846 2.1818H18.8997C16.9478 0.807516 14.5679 0 11.9993 0C10.4341 0 7.69034 0.807516 5.73846 2.1818Z" fill="#D80027"/>
<path d="M11.4782 6.54508H22.6914C22.2923 5.76447 21.8103 5.03327 21.257 4.36328H11.4782V6.54508Z" fill="#D80027"/>
<path d="M11.4782 10.9084H23.9501C23.8826 10.1592 23.7469 9.42964 23.5481 8.72656H11.4782V10.9084Z" fill="#D80027"/>
<path d="M0.451439 15.2736H23.5477C23.7465 14.5706 23.8822 13.841 23.9497 13.0918H0.0494385C0.116938 13.841 0.252595 14.5705 0.451439 15.2736Z" fill="#D80027"/>
<path d="M2.7426 19.6369H21.2567C21.8101 18.9668 22.2921 18.2356 22.6911 17.4551H1.30823C1.70727 18.2357 2.18924 18.9669 2.7426 19.6369Z" fill="#D80027"/>
<path d="M11.9993 24.0002C14.5679 24.0002 16.9477 23.1926 18.8996 21.8184H5.09894C7.05081 23.1926 9.43066 24.0002 11.9993 24.0002Z" fill="#D80027"/>
<path d="M0.45188 8.72728C0.253036 9.43041 0.117427 10.1599 0.0499268 10.9091H12V0C6.50724 0 1.8765 3.69056 0.45188 8.72728Z" fill="#0052B4"/>
<path d="M7.14363 3.13086L7.92058 5.52219H10.4352L8.40095 7.00025L9.17786 9.39172L7.14363 7.91375L5.1093 9.39172L5.88639 7.00025L3.85211 5.52219H6.36663L7.14363 3.13086Z" fill="#F0F0F0"/>
</g>
<defs>
<clipPath id="clip0_2941_29487">
<rect width="24" height="24" fill="white"/>
</clipPath>
</defs>
</svg>
