<svg width="24" height="24" viewBox="0 0 24 24" fill="none" xmlns="http://www.w3.org/2000/svg">
<g clip-path="url(#clip0_2941_29482)">
<path d="M6.10352e-05 11.9999C6.10352e-05 13.8697 0.427889 15.6396 1.19078 17.2173L12.0001 17.739L22.8093 17.2173C23.5722 15.6396 24.0001 13.8697 24.0001 11.9999C24.0001 10.13 23.5722 8.36013 22.8093 6.78251L12.0001 6.26074L1.19078 6.78246C0.427889 8.36013 6.10352e-05 10.13 6.10352e-05 11.9999Z" fill="#F0F0F0"/>
<path d="M12.0003 24.0004C16.7578 24.0004 20.8686 21.2317 22.8096 17.2178H1.19104C3.13204 21.2317 7.24279 24.0004 12.0003 24.0004Z" fill="#6DA544"/>
<path d="M12.0003 -0.000976562C7.24279 -0.000976562 3.13204 2.7677 1.19104 6.78165H22.8096C20.8686 2.7677 16.7578 -0.000976562 12.0003 -0.000976562Z" fill="#0052B4"/>
<path d="M12.7831 11.7397V8.87012H11.2179V11.7397L9.32739 13.6302C9.87719 14.5302 10.8686 15.131 12.0005 15.131C13.1323 15.131 14.1237 14.5302 14.6736 13.6302L12.7831 11.7397Z" fill="black"/>
</g>
<defs>
<clipPath id="clip0_2941_29482">
<rect width="24" height="24" fill="white"/>
</clipPath>
</defs>
</svg>
