<svg width="24" height="24" viewBox="0 0 24 24" fill="none" xmlns="http://www.w3.org/2000/svg">
<g clip-path="url(#clip0_2941_29471)">
<path d="M12 24C18.6274 24 24 18.6274 24 12C24 5.37258 18.6274 0 12 0C5.37258 0 0 5.37258 0 12C0 18.6274 5.37258 24 12 24Z" fill="#F0F0F0"/>
<path d="M12.0006 -0.000976562C6.45628 -0.000976562 1.791 3.75938 0.414001 8.86857H23.5873C22.2102 3.75938 17.5449 -0.000976562 12.0006 -0.000976562Z" fill="#A2001D"/>
<path d="M12.0003 23.9985C17.5446 23.9985 22.2099 20.2381 23.5869 15.1289H0.413696C1.7907 20.2381 6.45598 23.9985 12.0003 23.9985Z" fill="#A2001D"/>
</g>
<defs>
<clipPath id="clip0_2941_29471">
<rect width="24" height="24" fill="white"/>
</clipPath>
</defs>
</svg>
