<svg width="24" height="24" viewBox="0 0 24 24" fill="none" xmlns="http://www.w3.org/2000/svg">
<g clip-path="url(#clip0_2941_29608)">
<path d="M17.2171 1.1917C15.6395 0.428852 13.8696 0.000976562 11.9998 0.000976562C10.1299 0.000976562 8.36 0.428852 6.78238 1.1917L5.73889 12.001L6.78238 22.8103C8.36 23.5731 10.1299 24.001 11.9998 24.001C13.8696 24.001 15.6395 23.5731 17.2171 22.8103L18.2606 12.001L17.2171 1.1917Z" fill="#FFDA44"/>
<path d="M6.78262 1.19238C2.76872 3.13334 0 7.24376 0 12.0012C0 16.7587 2.76872 20.8691 6.78262 22.8101V1.19238Z" fill="#0052B4"/>
<path d="M17.2174 1.19238V22.8101C21.2313 20.8691 24 16.7587 24 12.0012C24 7.24376 21.2313 3.13334 17.2174 1.19238Z" fill="#D80027"/>
<path d="M16.1735 9.44204H13.304C13.304 8.72166 12.72 8.1377 11.9996 8.1377C11.2793 8.1377 10.6953 8.72166 10.6953 9.44204H7.82574C7.82574 10.1513 8.4436 10.7262 9.15278 10.7262H9.11003C9.11003 11.4355 9.685 12.0106 10.3943 12.0106C10.3943 12.6385 10.8453 13.1604 11.441 13.2719L10.429 15.5567C10.9139 15.7538 11.4439 15.8634 11.9996 15.8634C12.5553 15.8634 13.0854 15.7538 13.5702 15.5567L12.5582 13.2719C13.1539 13.1604 13.605 12.6385 13.605 12.0106C14.3143 12.0106 14.8892 11.4355 14.8892 10.7262H14.8464C15.5557 10.7262 16.1735 10.1513 16.1735 9.44204Z" fill="#FF9811"/>
<path d="M12 11.2178L10.3044 12.0004V13.5656L12 14.6091L13.6957 13.5656V12.0004L12 11.2178Z" fill="#0052B4"/>
<path d="M13.6957 10.4346H10.3044V11.9998H13.6957V10.4346Z" fill="#D80027"/>
</g>
<defs>
<clipPath id="clip0_2941_29608">
<rect width="24" height="24" fill="white"/>
</clipPath>
</defs>
</svg>
