<svg width="24" height="24" viewBox="0 0 24 24" fill="none" xmlns="http://www.w3.org/2000/svg">
<g clip-path="url(#clip0_2941_29535)">
<path d="M12 24C18.6274 24 24 18.6274 24 12C24 5.37258 18.6274 0 12 0C5.37258 0 0 5.37258 0 12C0 18.6274 5.37258 24 12 24Z" fill="#F0F0F0"/>
<path d="M7.82623 11.9992V23.2528C9.12617 23.7352 10.5323 23.9992 12.0001 23.9992C18.6275 23.9992 24.0001 18.6266 24.0001 11.9992C24.0001 5.37183 7.82623 11.9992 7.82623 11.9992Z" fill="#6DA544"/>
<path d="M12.0001 0C10.5323 0 9.12617 0.264047 7.82623 0.746391V12C7.82623 12 18.4697 12 24.0001 12C24.0001 5.37262 18.6275 0 12.0001 0Z" fill="#D80027"/>
</g>
<defs>
<clipPath id="clip0_2941_29535">
<rect width="24" height="24" fill="white"/>
</clipPath>
</defs>
</svg>
