<svg width="24" height="24" viewBox="0 0 24 24" fill="none" xmlns="http://www.w3.org/2000/svg">
<g clip-path="url(#clip0_2941_29863)">
<path d="M12 24C18.6274 24 24 18.6274 24 12C24 5.37258 18.6274 0 12 0C5.37258 0 0 5.37258 0 12C0 18.6274 5.37258 24 12 24Z" fill="#FFDA44"/>
<path d="M13.8251 23.862C15.7767 23.5643 17.5733 22.7957 19.0964 21.6768L12.0001 12L13.8251 23.862Z" fill="#D80027"/>
<path d="M10.1754 0.137695C8.22371 0.435445 6.42718 1.20401 4.90393 2.32287L12.0003 11.9997L10.1754 0.137695Z" fill="#D80027"/>
<path d="M4.90393 21.6768C6.42709 22.7957 8.22362 23.5643 10.1753 23.8621L12.0003 12L4.90393 21.6768Z" fill="#D80027"/>
<path d="M2.32348 4.90234C1.20457 6.42559 0.436103 8.22208 0.138306 10.1738L12.0004 11.9988L2.32348 4.90234Z" fill="#D80027"/>
<path d="M0.138306 13.8249C0.436056 15.7766 1.20462 17.5732 2.32352 19.0963L12.0004 12L0.138306 13.8249Z" fill="#D80027"/>
<path d="M23.8622 10.1737C23.5644 8.22208 22.7959 6.42555 21.6769 4.90234L12.0001 11.9987L23.8622 10.1737Z" fill="#D80027"/>
<path d="M19.0964 2.32282C17.5732 1.20396 15.7767 0.435445 13.8251 0.137695L12.0001 11.9997L19.0964 2.32282Z" fill="#D80027"/>
<path d="M21.677 19.0964C22.7959 17.5732 23.5644 15.7766 23.8623 13.825L12.0001 12L21.677 19.0964Z" fill="#D80027"/>
<path d="M12.0002 16.174C14.3054 16.174 16.1741 14.3052 16.1741 12.0001C16.1741 9.69489 14.3054 7.82617 12.0002 7.82617C9.69507 7.82617 7.82635 9.69489 7.82635 12.0001C7.82635 14.3052 9.69507 16.174 12.0002 16.174Z" fill="#D80027"/>
<path d="M12.0001 15.13C13.729 15.13 15.1305 13.7285 15.1305 11.9996C15.1305 10.2707 13.729 8.86914 12.0001 8.86914C10.2712 8.86914 8.86963 10.2707 8.86963 11.9996C8.86963 13.7285 10.2712 15.13 12.0001 15.13Z" fill="#FFDA44"/>
</g>
<defs>
<clipPath id="clip0_2941_29863">
<rect width="24" height="24" fill="white"/>
</clipPath>
</defs>
</svg>
