<svg width="24" height="24" viewBox="0 0 24 24" fill="none" xmlns="http://www.w3.org/2000/svg">
<g clip-path="url(#clip0_2941_29559)">
<path d="M16.1742 0.745414C14.8742 0.26307 13.4681 -0.000976562 12.0003 -0.000976562C10.5324 -0.000976562 9.12637 0.26307 7.82638 0.745414L6.7829 11.999L7.82638 23.2526C9.12637 23.735 10.5324 23.999 12.0003 23.999C13.4681 23.999 14.8742 23.735 16.1742 23.2526L17.2177 11.999L16.1742 0.745414Z" fill="#FFDA44"/>
<path d="M23.9996 12.0006C23.9996 6.8411 20.7431 2.44254 16.1735 0.74707V23.2543C20.7431 21.5587 23.9996 17.1603 23.9996 12.0006Z" fill="#D80027"/>
<path d="M0.00012207 11.9997C0.00012207 17.1593 3.25662 21.5577 7.82623 23.2533V0.746094C3.25662 2.44156 0.00012207 6.84012 0.00012207 11.9997Z" fill="#6DA544"/>
</g>
<defs>
<clipPath id="clip0_2941_29559">
<rect width="24" height="24" fill="white"/>
</clipPath>
</defs>
</svg>
