<svg width="24" height="24" viewBox="0 0 24 24" fill="none" xmlns="http://www.w3.org/2000/svg">
<g clip-path="url(#clip0_2941_29618)">
<path d="M11.9996 24.001C13.4675 24.001 14.8736 23.737 16.1735 23.2546L16.6953 12.001L16.1735 0.747367C14.8736 0.265023 13.4675 0.000976562 11.9996 0.000976562C10.5318 0.000976562 9.12566 0.265023 7.82572 0.747367L7.30396 12.001L7.82567 23.2546C9.12566 23.737 10.5318 24.001 11.9996 24.001Z" fill="#0052B4"/>
<path d="M-0.000183105 11.9997C-0.000183105 17.1593 3.25632 21.5578 7.82593 23.2533V0.746094C3.25632 2.44161 -0.000183105 6.84013 -0.000183105 11.9997Z" fill="#A2001D"/>
<path d="M16.1736 0.746094V23.2534C20.7432 21.5578 23.9997 17.1593 23.9997 11.9997C23.9997 6.84013 20.7432 2.44161 16.1736 0.746094Z" fill="#A2001D"/>
<path d="M6.78256 11.999H5.73907V16.1729H6.78256V11.999Z" fill="#FFDA44"/>
<path d="M2.60867 11.999H1.56519V16.1729H2.60867V11.999Z" fill="#FFDA44"/>
<path d="M4.17367 14.6085C4.74997 14.6085 5.21716 14.1413 5.21716 13.565C5.21716 12.9887 4.74997 12.5215 4.17367 12.5215C3.59737 12.5215 3.13019 12.9887 3.13019 13.565C3.13019 14.1413 3.59737 14.6085 4.17367 14.6085Z" fill="#FFDA44"/>
<path d="M4.17382 10.4331C4.46196 10.4331 4.69554 10.1995 4.69554 9.91137C4.69554 9.62323 4.46196 9.38965 4.17382 9.38965C3.88568 9.38965 3.6521 9.62323 3.6521 9.91137C3.6521 10.1995 3.88568 10.4331 4.17382 10.4331Z" fill="#FFDA44"/>
<path d="M5.21722 15.1289H3.13025V16.1724H5.21722V15.1289Z" fill="#FFDA44"/>
<path d="M5.21722 10.9551H3.13025V11.9986H5.21722V10.9551Z" fill="#FFDA44"/>
<path d="M4.17433 6.25977L4.5439 7.39695H5.73958L4.77232 8.0998L5.1416 9.23699L4.17433 8.53414L3.20711 9.23699L3.5764 8.0998L2.60913 7.39695H3.80482L4.17433 6.25977Z" fill="#FFDA44"/>
</g>
<defs>
<clipPath id="clip0_2941_29618">
<rect width="24" height="24" fill="white"/>
</clipPath>
</defs>
</svg>
