<svg width="24" height="24" viewBox="0 0 24 24" fill="none" xmlns="http://www.w3.org/2000/svg">
<g clip-path="url(#clip0_2941_29523)">
<path d="M12 24C18.6274 24 24 18.6274 24 12C24 5.37258 18.6274 0 12 0C5.37258 0 0 5.37258 0 12C0 18.6274 5.37258 24 12 24Z" fill="#496E2D"/>
<path d="M14.0869 11.5001C13.7923 11.5001 13.5126 11.5589 13.2529 11.6523C13.3952 11.3353 13.4906 10.9825 13.4906 10.6058C13.4906 9.11509 11.9999 7.99707 11.9999 7.99707C11.9999 7.99707 10.5093 9.11509 10.5093 10.6058C10.5093 10.9824 10.6046 11.3353 10.7469 11.6523C10.4872 11.559 10.2075 11.5001 9.91301 11.5001C8.42234 11.5001 7.30432 12.9908 7.30432 12.9908C7.30432 12.9908 8.42234 14.4815 9.91301 14.4815C10.787 14.4815 11.5324 13.9693 12 13.5452C12.4676 13.9692 13.213 14.4815 14.0869 14.4815C15.5776 14.4815 16.6956 12.9908 16.6956 12.9908C16.6956 12.9908 15.5775 11.5001 14.0869 11.5001Z" fill="#F0F0F0"/>
<path d="M12.0006 4.69434L12.3085 5.64196H13.3049L12.4989 6.22771L12.8066 7.17534L12.0006 6.58959L11.1946 7.17534L11.5022 6.22771L10.6962 5.64196H11.6926L12.0006 4.69434Z" fill="#FFDA44"/>
<path d="M8.2111 6.35156L8.80351 6.88491L9.49384 6.48637L9.16965 7.21458L9.76201 7.74802L8.96926 7.66467L8.64507 8.39288L8.47923 7.6132L7.68652 7.52986L8.3768 7.13123L8.2111 6.35156Z" fill="#FFDA44"/>
<path d="M5.43762 9.12619L6.21734 9.29189L6.61592 8.60156L6.69926 9.39426L7.47889 9.56011L6.75073 9.88434L6.83408 10.677L6.30059 10.0847L5.57243 10.4089L5.97101 9.71854L5.43762 9.12619Z" fill="#FFDA44"/>
<path d="M15.7896 6.35156L15.1973 6.88491L14.5069 6.48637L14.8311 7.21458L14.2388 7.74802L15.0315 7.66467L15.3557 8.39288L15.5216 7.6132L16.3143 7.52986L15.624 7.13123L15.7896 6.35156Z" fill="#FFDA44"/>
<path d="M18.5632 9.12619L17.7835 9.29189L17.3849 8.60156L17.3015 9.39426L16.5219 9.56011L17.2501 9.88434L17.1667 10.677L17.7002 10.0847L18.4284 10.4089L18.0298 9.71854L18.5632 9.12619Z" fill="#FFDA44"/>
<path d="M11.9997 18.6555C13.1838 18.6555 14.2753 18.2604 15.1508 17.5957H8.84869C9.72422 18.2604 10.8156 18.6555 11.9997 18.6555Z" fill="#F0F0F0"/>
<path d="M7.21722 15.5244C7.38283 15.9034 7.59283 16.2584 7.83949 16.5842H16.1606C16.4073 16.2585 16.6173 15.9034 16.7829 15.5244H7.21722Z" fill="#F0F0F0"/>
</g>
<defs>
<clipPath id="clip0_2941_29523">
<rect width="24" height="24" fill="white"/>
</clipPath>
</defs>
</svg>
