<svg width="24" height="24" viewBox="0 0 24 24" fill="none" xmlns="http://www.w3.org/2000/svg">
<g clip-path="url(#clip0_2941_29759)">
<path d="M12 24C18.6274 24 24 18.6274 24 12C24 5.37258 18.6274 0 12 0C5.37258 0 0 5.37258 0 12C0 18.6274 5.37258 24 12 24Z" fill="#338AF3"/>
<path d="M11.6213 19.5563C11.2978 19.5406 11.0301 19.3304 10.9253 19.0449C10.7401 19.2865 10.4218 19.4081 10.1082 19.3272C9.79412 19.2464 9.57451 18.9865 9.52909 18.6849C9.29846 18.8842 8.96246 18.9384 8.67189 18.7961C8.38074 18.6531 8.21799 18.3541 8.23468 18.0499C7.96914 18.1991 7.62896 18.1845 7.37279 17.9863C7.11714 17.788 7.01748 17.463 7.09468 17.1682C6.80457 17.261 6.47485 17.1786 6.26354 16.9328C6.05223 16.6876 6.01984 16.349 6.15451 16.0762C5.85189 16.1085 5.54514 15.9614 5.38754 15.6786C5.22943 15.3958 5.26599 15.0572 5.45326 14.8166C5.15012 14.7874 4.87881 14.5813 4.78178 14.2725C4.68423 13.9636 4.78857 13.6391 5.02075 13.4413C4.7296 13.3515 4.50629 13.0948 4.47343 12.773C4.44057 12.4511 4.60754 12.1553 4.87412 12.0081C4.60749 11.862 4.43949 11.5662 4.47132 11.2448C4.47132 11.2448 4.47132 11.2448 4.47184 11.2448C4.50367 10.9223 4.72698 10.6652 5.01756 10.5743C4.78539 10.3771 4.68001 10.0531 4.77653 9.74424C4.87304 9.43486 5.14379 9.22824 5.44698 9.19795C5.25967 8.95795 5.22212 8.61928 5.37915 8.33606C5.53618 8.05327 5.84298 7.90561 6.14612 7.93744C6.01046 7.66458 6.04229 7.32595 6.25309 7.07972C6.46337 6.834 6.79309 6.75103 7.08371 6.84286C7.00543 6.54858 7.10457 6.22303 7.36023 6.02428C7.61537 5.82544 7.95554 5.8103 8.22109 5.95847C8.20389 5.65435 8.36612 5.35533 8.65674 5.21185C8.94685 5.06888 9.28337 5.12213 9.51446 5.32139C9.55881 5.01989 9.77846 4.75903 10.092 4.67756C10.405 4.59619 10.7233 4.7167 10.909 4.95774C11.0139 4.67236 11.281 4.46156 11.6045 4.44539C11.9275 4.42875 12.2144 4.61025 12.348 4.8832C12.5077 4.62441 12.8113 4.47103 13.1312 4.51955C13.4515 4.56755 13.6973 4.80333 13.7734 5.09817C13.9821 4.87585 14.3108 4.78772 14.6145 4.89933C14.9186 5.0115 15.1117 5.29219 15.1263 5.59688C15.3752 5.42161 15.7153 5.40122 15.9903 5.57236C16.2653 5.74299 16.3973 6.05653 16.3503 6.35756C16.6294 6.23602 16.9665 6.28453 17.2013 6.50677C17.4361 6.72956 17.5028 7.06294 17.3964 7.34831C17.6943 7.28517 18.0147 7.39997 18.2004 7.66552C18.3861 7.93055 18.3846 8.27072 18.2234 8.529C18.5275 8.52689 18.8182 8.70431 18.947 9.00117C19.0754 9.29855 19.0049 9.63197 18.7947 9.85266C19.0937 9.91214 19.3425 10.1443 19.4082 10.4615C19.4734 10.7787 19.3373 11.0902 19.0874 11.264C19.367 11.3825 19.5642 11.6595 19.5647 11.9829C19.5647 11.9865 19.5647 11.9897 19.5647 11.9934C19.5647 11.9955 19.5647 11.9981 19.5647 12.0002C19.5647 12.3236 19.3686 12.6012 19.0889 12.7207C19.3394 12.8934 19.4766 13.2049 19.4114 13.5221C19.3467 13.8393 19.0983 14.072 18.7994 14.1325C19.0102 14.3527 19.0817 14.6856 18.9538 14.9835C18.826 15.2809 18.5354 15.4588 18.2307 15.4572C18.3924 15.7155 18.395 16.0557 18.2098 16.3212C18.0246 16.5869 17.7048 16.7026 17.4069 16.64C17.5138 16.9249 17.4475 17.2588 17.2133 17.4821C16.9785 17.705 16.642 17.754 16.3629 17.6334C16.4103 17.934 16.2789 18.2481 16.0044 18.4197C15.7299 18.5914 15.3898 18.5715 15.1404 18.3968C15.1263 18.7014 14.9343 18.9827 14.6307 19.0954C14.6307 19.0954 14.6307 19.0954 14.6302 19.0954C14.3265 19.2075 13.9978 19.1199 13.7886 18.8982C13.7135 19.1935 13.4683 19.4298 13.1479 19.4789C12.8281 19.5274 12.5239 19.3751 12.3638 19.1163C12.2364 19.3787 11.9672 19.5571 11.6604 19.5571C11.6474 19.5573 11.6343 19.5568 11.6213 19.5563Z" fill="#F3F3F3"/>
<path d="M12.0003 17.2179C14.8818 17.2179 17.2177 14.882 17.2177 12.0006C17.2177 9.1191 14.8818 6.7832 12.0003 6.7832C9.1188 6.7832 6.7829 9.1191 6.7829 12.0006C6.7829 14.882 9.1188 17.2179 12.0003 17.2179Z" fill="#338AF3"/>
<path d="M13.1418 10.2291C13.3982 10.039 13.565 9.73506 13.565 9.39138V8.86966C13.565 8.29333 13.0979 7.82617 12.5215 7.82617H11.4781C10.9018 7.82617 10.4346 8.29333 10.4346 8.86966V9.39138C10.4346 9.73506 10.6015 10.039 10.8578 10.2291L9.9129 19.8261C9.9129 19.8261 10.4346 20.3479 11.9999 20.3479C13.5651 20.3479 14.0868 19.8261 14.0868 19.8261L13.1418 10.2291Z" fill="#BDBCC1"/>
<path d="M12.0001 7.82617L12.9066 10.6161H15.8403L13.467 12.3405L14.3734 15.1305L12.0001 13.4062L9.62675 15.1305L10.5334 12.3405L8.16003 10.6161H11.0936L12.0001 7.82617Z" fill="#F0F0F0"/>
</g>
<defs>
<clipPath id="clip0_2941_29759">
<rect width="24" height="24" fill="white"/>
</clipPath>
</defs>
</svg>
