<svg width="24" height="24" viewBox="0 0 24 24" fill="none" xmlns="http://www.w3.org/2000/svg">
<g clip-path="url(#clip0_2941_29584)">
<path d="M12 24C18.6274 24 24 18.6274 24 12C24 5.37258 18.6274 0 12 0C5.37258 0 0 5.37258 0 12C0 18.6274 5.37258 24 12 24Z" fill="#496E2D"/>
<path d="M11.9996 13.8635C10.0015 13.8635 8.33232 12.4593 7.92278 10.584C7.85987 10.8723 7.82574 11.1712 7.82574 11.4785C7.82574 13.7837 9.69442 15.6523 11.9996 15.6523C14.3049 15.6523 16.1735 13.7837 16.1735 11.4785C16.1735 11.1712 16.1394 10.8723 16.0765 10.584C15.6669 12.4593 13.9977 13.8635 11.9996 13.8635Z" fill="#FFDA44"/>
<path d="M11.9999 8.34766L12.3884 9.54339H13.6457L12.6285 10.2824L13.017 11.4781L11.9999 10.7391L10.9827 11.4781L11.3713 10.2824L10.3541 9.54339H11.6114L11.9999 8.34766Z" fill="#FFDA44"/>
</g>
<defs>
<clipPath id="clip0_2941_29584">
<rect width="24" height="24" fill="white"/>
</clipPath>
</defs>
</svg>
