<svg width="24" height="24" viewBox="0 0 24 24" fill="none" xmlns="http://www.w3.org/2000/svg">
<g clip-path="url(#clip0_2941_29639)">
<path d="M24 12C24 18.6274 18.6274 24 12 24C5.37262 24 0 18.6274 0 12C0 12.0029 12 0.0013125 12 0C18.6274 0 24 5.37262 24 12Z" fill="#0052B4"/>
<path d="M11.9684 11.999H12.0005C12.0005 11.9882 12.0005 11.9776 12.0005 11.9668C11.9898 11.9776 11.9791 11.9883 11.9684 11.999Z" fill="#F0F0F0"/>
<path d="M12.0004 6.26086C12.0004 4.14937 12.0004 2.76586 12.0004 0H11.9984C5.37188 0.001125 0.000427246 5.37323 0.000427246 12H6.26128V8.47448L9.7868 12H11.9684C11.979 11.9893 11.9897 11.9786 12.0005 11.9679C12.0005 11.1594 12.0005 10.4381 12.0005 9.78647L8.47486 6.26086H12.0004Z" fill="#F0F0F0"/>
<path d="M6.07124 1.56543C4.19441 2.63413 2.63409 4.19441 1.56543 6.07124V12.0002H4.69588V4.69598V4.69588H12.0002C12.0002 3.70856 12.0002 2.76796 12.0002 1.56543H6.07124Z" fill="#D80027"/>
<path d="M12.0005 10.5242L7.73698 6.26074H6.26135V6.26084L12.0004 11.9998H12.0005C12.0005 11.9998 12.0005 10.9823 12.0005 10.5242Z" fill="#D80027"/>
<path d="M13.565 6.26074V11.9998C13.565 14.7955 17.2172 15.6521 17.2172 15.6521C17.2172 15.6521 20.8694 14.7955 20.8694 11.9998V6.26074H13.565Z" fill="#338AF3"/>
<path d="M13.565 11.999C13.565 14.7947 17.2172 15.6513 17.2172 15.6513C17.2172 15.6513 20.8694 14.7947 20.8694 11.999H13.565Z" fill="#A2001D"/>
<path d="M18.7824 8.86873H17.7388V7.8252H16.6954V8.86873H15.6519V9.91216H16.6954V13.0426H17.7388V9.91216H18.7824V8.86873Z" fill="black"/>
</g>
<defs>
<clipPath id="clip0_2941_29639">
<rect width="24" height="24" fill="white"/>
</clipPath>
</defs>
</svg>
