<svg width="24" height="24" viewBox="0 0 24 24" fill="none" xmlns="http://www.w3.org/2000/svg">
<g clip-path="url(#clip0_2941_29589)">
<path d="M1.45868 6.25988L11.9996 7.30337L22.5405 6.25988C20.5053 2.52976 16.5481 -0.000976562 11.9996 -0.000976562C7.45109 -0.000976562 3.49394 2.52976 1.45868 6.25988Z" fill="#D80027"/>
<path d="M1.45877 17.7387L11.9997 18.7822L22.5406 17.7387C23.4708 16.0338 23.9997 14.0784 23.9997 11.9995L11.9997 10.9561L-0.000305176 11.9995C-0.000305176 14.0784 0.528585 16.0338 1.45877 17.7387Z" fill="#FFDA44"/>
<path d="M1.45877 6.26074C0.528585 7.96563 -0.000305176 9.92098 -0.000305176 11.9999H23.9997C23.9997 9.92098 23.4708 7.96563 22.5406 6.26074H11.9997H1.45877Z" fill="#0052B4"/>
<path d="M11.9996 23.9991C16.5481 23.9991 20.5053 21.4684 22.5405 17.7383H1.45868C3.49394 21.4684 7.45109 23.9991 11.9996 23.9991Z" fill="#6DA544"/>
</g>
<defs>
<clipPath id="clip0_2941_29589">
<rect width="24" height="24" fill="white"/>
</clipPath>
</defs>
</svg>
