<svg width="24" height="24" viewBox="0 0 24 24" fill="none" xmlns="http://www.w3.org/2000/svg">
<g clip-path="url(#clip0_2941_29539)">
<path d="M-6.10352e-05 11.9994C-6.10352e-05 13.4672 0.263986 14.8733 0.74633 16.1733L11.9999 16.695L23.2535 16.1733C23.7359 14.8733 23.9999 13.4672 23.9999 11.9994C23.9999 10.5315 23.7359 9.12546 23.2535 7.82548L11.9999 7.30371L0.74633 7.82543C0.263986 9.12546 -6.10352e-05 10.5315 -6.10352e-05 11.9994Z" fill="#D80027"/>
<path d="M11.9999 0C6.84031 0 2.44179 3.2565 0.746277 7.82611H23.2535C21.558 3.2565 17.1595 0 11.9999 0Z" fill="black"/>
<path d="M23.2534 16.1748H0.746216C2.44173 20.7444 6.84025 24.0009 11.9998 24.0009C17.1594 24.0009 21.5579 20.7444 23.2534 16.1748Z" fill="#496E2D"/>
<path d="M15.5864 5.74006L14.1209 5.05072L14.9014 3.63139L13.3099 3.93584L13.1083 2.32812L11.9998 3.51055L10.8913 2.32812L10.6896 3.93584L9.09827 3.63139L9.87869 5.05072L8.41315 5.74006H15.5864Z" fill="#D80027"/>
</g>
<defs>
<clipPath id="clip0_2941_29539">
<rect width="24" height="24" fill="white"/>
</clipPath>
</defs>
</svg>
