<svg width="24" height="24" viewBox="0 0 24 24" fill="none" xmlns="http://www.w3.org/2000/svg">
<g clip-path="url(#clip0_2941_29594)">
<path d="M12 24C18.6274 24 24 18.6274 24 12C24 5.37258 18.6274 0 12 0C5.37258 0 0 5.37258 0 12C0 18.6274 5.37258 24 12 24Z" fill="#F0F0F0"/>
<path d="M23.9998 11.9997C23.9998 7.24218 21.2312 3.13143 17.2172 1.19043V22.8089C21.2312 20.868 23.9998 16.7572 23.9998 11.9997Z" fill="#D80027"/>
<path d="M-6.10352e-05 11.9997C-6.10352e-05 16.7572 2.76861 20.868 6.78256 22.809V1.19043C2.76861 3.13143 -6.10352e-05 7.24218 -6.10352e-05 11.9997Z" fill="#6DA544"/>
<path d="M8.86957 11.9995C8.86957 13.7284 10.2711 15.13 12 15.13C13.7289 15.13 15.1305 13.7284 15.1305 11.9995V10.9561H8.86957V11.9995Z" fill="#6DA544"/>
<path d="M16.1735 9.9136H13.0431C13.0431 9.33732 12.5758 8.87012 11.9996 8.87012C11.4233 8.87012 10.9561 9.33732 10.9561 9.9136H7.82562C7.82562 10.4899 8.32761 10.9571 8.90384 10.9571H8.86911C8.86911 11.5334 9.33626 12.0006 9.91259 12.0006C9.91259 12.5769 10.3798 13.044 10.9561 13.044H13.0431C13.6194 13.044 14.0865 12.5769 14.0865 12.0006C14.6629 12.0006 15.13 11.5334 15.13 10.9571H15.0952C15.6716 10.9571 16.1735 10.4899 16.1735 9.9136Z" fill="#FF9811"/>
</g>
<defs>
<clipPath id="clip0_2941_29594">
<rect width="24" height="24" fill="white"/>
</clipPath>
</defs>
</svg>
