<svg width="24" height="24" viewBox="0 0 24 24" fill="none" xmlns="http://www.w3.org/2000/svg">
<g clip-path="url(#clip0_2941_29654)">
<path d="M12 24C18.6274 24 24 18.6274 24 12C24 5.37258 18.6274 0 12 0C5.37258 0 0 5.37258 0 12C0 18.6274 5.37258 24 12 24Z" fill="#F0F0F0"/>
<path d="M6.48568 16.6963L3.51465 20.4855C5.68609 22.6572 8.68576 24.0006 11.9995 24.0006C16.9603 24.0006 21.2172 20.9899 23.0447 16.6963H6.48568Z" fill="#FFDA44"/>
<path d="M23.0634 7.34877C21.2461 3.03201 16.9771 0.000976562 11.9995 0.000976562C8.68576 0.000976562 5.68609 1.34437 3.51465 3.51609L6.51981 7.34877H23.0634Z" fill="#496E2D"/>
<path d="M2.60864 8.82617V15.1305H23.5866C23.8558 14.1325 23.9999 13.0832 23.9999 12.0001C23.9999 10.9012 23.8519 9.83717 23.5752 8.82617H2.60864Z" fill="black"/>
<path d="M3.51434 3.51465C-1.17194 8.20093 -1.17194 15.7989 3.51434 20.4853C5.45089 18.5487 7.31337 16.6862 11.9997 12L3.51434 3.51465Z" fill="#A2001D"/>
<path d="M4.85701 8.86914L5.63396 11.2605H8.14861L6.11433 12.7386L6.89124 15.13L4.85701 13.652L2.82268 15.13L3.59977 12.7386L1.56549 11.2605H4.07996L4.85701 8.86914Z" fill="#FFDA44"/>
<path d="M7.13107 11.999H2.58307V14.086H7.13107V11.999Z" fill="#F0F0F0"/>
<path d="M7.99216 9.60705L7.2543 8.86914L4.85674 11.2667L2.45917 8.86914L1.72131 9.60705L4.12099 12.0025L1.72131 14.4022L2.45917 15.13L4.85674 12.7368L7.2543 15.13L7.99216 14.4022L5.59249 12.0025L7.99216 9.60705Z" fill="black"/>
</g>
<defs>
<clipPath id="clip0_2941_29654">
<rect width="24" height="24" fill="white"/>
</clipPath>
</defs>
</svg>
