<svg width="24" height="24" viewBox="0 0 24 24" fill="none" xmlns="http://www.w3.org/2000/svg">
<g clip-path="url(#clip0_2941_29717)">
<path d="M1.19029 6.78177C0.427448 8.35939 -0.000427246 10.1293 -0.000427246 11.9991C-0.000427246 13.869 0.427448 15.6389 1.19029 17.2165L11.9996 18.26L22.8089 17.2165C23.5717 15.6389 23.9996 13.869 23.9996 11.9991C23.9996 10.1293 23.5717 8.35939 22.8089 6.78177L11.9996 5.73828L1.19029 6.78177Z" fill="#F0F0F0"/>
<path d="M1.19092 17.2188C3.13182 21.2327 7.24225 24.0014 11.9998 24.0014C16.7573 24.0014 20.8677 21.2327 22.8086 17.2188H1.19092Z" fill="#6DA544"/>
<path d="M1.19092 6.78262H22.8086C20.8677 2.76867 16.7573 0 11.9998 0C7.24229 0 3.13182 2.76867 1.19092 6.78262Z" fill="#FF9811"/>
<path d="M12 16.1749C14.3052 16.1749 16.1739 14.3062 16.1739 12.001C16.1739 9.69586 14.3052 7.82715 12 7.82715C9.69483 7.82715 7.82611 9.69586 7.82611 12.001C7.82611 14.3062 9.69483 16.1749 12 16.1749Z" fill="#FF9811"/>
</g>
<defs>
<clipPath id="clip0_2941_29717">
<rect width="24" height="24" fill="white"/>
</clipPath>
</defs>
</svg>
