<svg width="24" height="24" viewBox="0 0 24 24" fill="none" xmlns="http://www.w3.org/2000/svg">
<g clip-path="url(#clip0_2941_29745)">
<path d="M17.2169 1.19072C15.6393 0.427875 13.8695 0 11.9996 0C10.1297 0 8.35982 0.427875 6.78219 1.19072L5.73871 12L6.78219 22.8093C8.35982 23.5721 10.1297 24 11.9996 24C13.8695 24 15.6393 23.5721 17.2169 22.8093L18.2604 12L17.2169 1.19072Z" fill="#F0F0F0"/>
<path d="M6.78256 1.19141C2.76861 3.13231 -6.10352e-05 7.24273 -6.10352e-05 12.0003C-6.10352e-05 16.7578 2.76861 20.8682 6.78256 22.8091V1.19141Z" fill="#6DA544"/>
<path d="M17.2172 1.19141V22.8091C21.2311 20.8682 23.9998 16.7578 23.9998 12.0003C23.9998 7.24278 21.2311 3.13231 17.2172 1.19141Z" fill="#6DA544"/>
<path d="M15.1305 15.6513L12 5.73828L8.86957 15.6513H11.2174V18.26H12.7826V15.6513H15.1305Z" fill="#6DA544"/>
</g>
<defs>
<clipPath id="clip0_2941_29745">
<rect width="24" height="24" fill="white"/>
</clipPath>
</defs>
</svg>
