<svg width="24" height="24" viewBox="0 0 24 24" fill="none" xmlns="http://www.w3.org/2000/svg">
<g clip-path="url(#clip0_2941_29765)">
<path d="M12 24C18.6274 24 24 18.6274 24 12C24 5.37258 18.6274 0 12 0C5.37258 0 0 5.37258 0 12C0 18.6274 5.37258 24 12 24Z" fill="#F0F0F0"/>
<path d="M0.41333 15.1318C1.10764 17.708 2.63788 19.9409 4.6956 21.5219V15.1318H0.41333Z" fill="#D80027"/>
<path d="M10.9563 23.9557C11.3003 23.9854 11.6481 24.0014 11.9998 24.0014C17.5441 24.0014 22.2094 20.241 23.5864 15.1318H10.9563V23.9557Z" fill="#D80027"/>
<path d="M23.5864 8.87052C22.2094 3.76134 17.5441 0.000976562 11.9998 0.000976562C11.6481 0.000976562 11.3003 0.0170078 10.9563 0.0466328V8.87052H23.5864Z" fill="#D80027"/>
<path d="M4.6956 2.48047C2.63788 4.06156 1.10764 6.29436 0.41333 8.87056H4.6956V2.48047Z" fill="#D80027"/>
<path d="M23.8984 10.4347H9.3913H9.39125V0.285156C8.28228 0.531062 7.23092 0.929641 6.2608 1.459V10.4346V10.4347H0.101517C0.0347202 10.9471 -6.10352e-05 11.4694 -6.10352e-05 11.9999C-6.10352e-05 12.5304 0.0347202 13.0528 0.101517 13.5651H6.26075H6.2608V22.5408C7.23092 23.0701 8.28228 23.4688 9.39125 23.7146V13.5653V13.5652H23.8984C23.9651 13.0528 23.9999 12.5304 23.9999 11.9999C23.9999 11.4694 23.9651 10.9471 23.8984 10.4347Z" fill="#0052B4"/>
</g>
<defs>
<clipPath id="clip0_2941_29765">
<rect width="24" height="24" fill="white"/>
</clipPath>
</defs>
</svg>
