<svg width="24" height="24" viewBox="0 0 24 24" fill="none" xmlns="http://www.w3.org/2000/svg">
<g clip-path="url(#clip0_2941_29681)">
<path d="M12 24C18.6274 24 24 18.6274 24 12C24 5.37258 18.6274 0 12 0C5.37258 0 0 5.37258 0 12C0 18.6274 5.37258 24 12 24Z" fill="#F0F0F0"/>
<path d="M23.9292 13.3045C23.9292 13.3044 23.9292 13.3043 23.9292 13.3041L10.7693 0.0625C10.1756 0.123016 9.59469 0.226797 9.0298 0.370656C3.83891 1.6923 -6.10352e-05 12.0001 -6.10352e-05 12.0001C-6.10352e-05 12.0001 16.7998 23.2424 18.7164 21.9453C19.0999 21.6858 19.4676 21.4047 19.8177 21.1038L12.0185 13.3045H23.9292Z" fill="#0052B4"/>
<path d="M20.8697 11.9996L9.19911 0.329102C3.923 1.59084 0.00012207 6.33674 0.00012207 11.9996C0.00012207 18.627 5.37275 23.9996 12.0001 23.9996C14.514 23.9996 16.8469 23.2261 18.7749 21.9048L8.86967 11.9996H20.8697Z" fill="#D80027"/>
<path d="M11.4125 17.7176L9.94698 17.0283L10.7274 15.6089L9.13599 15.9134L8.93434 14.3057L7.82588 15.4881L6.71743 14.3057L6.51573 15.9134L4.92437 15.6089L5.70479 17.0283L4.2392 17.7176L5.70479 18.4069L4.92437 19.8263L6.51582 19.5219L6.71738 21.1295L7.82588 19.9471L8.93434 21.1295L9.13599 19.5219L10.7274 19.8263L9.94693 18.407L11.4125 17.7176Z" fill="#F0F0F0"/>
<path d="M10.4342 6.65539L9.36828 6.15406L9.93589 5.12173L8.77841 5.34317L8.63174 4.17383L7.82553 5.03384L7.01933 4.17383L6.87261 5.34317L5.71512 5.12173L6.28278 6.15406L5.2168 6.65539L7.82553 7.1772L10.4342 6.65539Z" fill="#F0F0F0"/>
<path d="M10.9566 6.65527C10.9566 8.38416 9.55508 9.78572 7.82619 9.78572C6.0973 9.78572 4.69574 8.38416 4.69574 6.65527" fill="#F0F0F0"/>
</g>
<defs>
<clipPath id="clip0_2941_29681">
<rect width="24" height="24" fill="white"/>
</clipPath>
</defs>
</svg>
