<svg width="24" height="24" viewBox="0 0 24 24" fill="none" xmlns="http://www.w3.org/2000/svg">
<g clip-path="url(#clip0_2941_29674)">
<path d="M12 24C18.6274 24 24 18.6274 24 12C24 5.37258 18.6274 0 12 0C5.37258 0 0 5.37258 0 12C0 18.6274 5.37258 24 12 24Z" fill="#0052B4"/>
<path d="M12 24C18.6274 24 24 18.6274 24 12C24 5.37258 18.6274 0 12 0C5.37258 0 0 5.37258 0 12C0 18.6274 5.37258 24 12 24Z" fill="#FFDA44"/>
<path d="M12.001 -0.000976562C5.72524 -0.000976562 0.575644 4.81688 0.0467529 10.9555H23.9554C23.4265 4.81688 18.2769 -0.000976562 12.001 -0.000976562Z" fill="#0052B4"/>
<path d="M12 23.9995C18.2758 23.9995 23.4254 19.1816 23.9543 13.043H0.0456543C0.574545 19.1816 5.72414 23.9995 12 23.9995Z" fill="#0052B4"/>
<path d="M9.91324 16.1744L8.56859 16.8069L9.2846 18.1091L7.82449 17.8298L7.63948 19.3048L6.62243 18.22L5.60543 19.3048L5.42042 17.8298L3.96026 18.1091L4.67632 16.8068L3.33167 16.1744L4.67637 15.5419L3.96026 14.2397L5.42037 14.519L5.60548 13.0439L6.62243 14.1288L7.63953 13.0439L7.82449 14.519L9.28465 14.2397L8.56863 15.5419L9.91324 16.1744Z" fill="#F0F0F0"/>
</g>
<defs>
<clipPath id="clip0_2941_29674">
<rect width="24" height="24" fill="white"/>
</clipPath>
</defs>
</svg>
