<svg width="24" height="24" viewBox="0 0 24 24" fill="none" xmlns="http://www.w3.org/2000/svg">
<g clip-path="url(#clip0_2941_29695)">
<path d="M24 12C24 18.6274 18.6274 24 12 24C5.37262 24 0 18.6274 0 12C0 12.0029 12 0.0013125 12 0C18.6274 0 24 5.37262 24 12Z" fill="#0052B4"/>
<path d="M11.9684 12.0009H12.0006C12.0006 11.9901 12.0006 11.9796 12.0006 11.9688C11.9898 11.9795 11.9791 11.9902 11.9684 12.0009Z" fill="#F0F0F0"/>
<path d="M12.0004 6.26086C12.0004 4.14937 12.0004 2.76586 12.0004 0H11.9983C5.37186 0.001125 0.000366211 5.37323 0.000366211 12H6.26122V8.47448L9.78678 12H11.9683C11.979 11.9893 11.9897 11.9786 12.0004 11.9679C12.0004 11.1594 12.0004 10.4381 12.0004 9.78647L8.4748 6.26086H12.0004Z" fill="#F0F0F0"/>
<path d="M6.07112 1.56543C4.19429 2.63413 2.63401 4.19441 1.56531 6.07124V12.0002H4.69576V4.69598V4.69588H12.0001C12.0001 3.70855 12.0001 2.76796 12.0001 1.56543H6.07112Z" fill="#D80027"/>
<path d="M12.0004 10.5251L7.73696 6.26172C7.73696 6.26172 6.26129 6.26181 6.26129 6.26172V6.26181L12.0003 12.0008H12.0004C12.0004 12.0008 12.0004 10.9833 12.0004 10.5251Z" fill="#D80027"/>
<path d="M20.7811 8.90527L21.0401 9.70243H21.8783L21.2002 10.1951L21.4592 10.9922L20.7811 10.4996L20.1029 10.9922L20.362 10.1951L19.6838 9.70243H20.522L20.7811 8.90527Z" fill="#D80027"/>
<path d="M17.7849 14.6436L18.1735 15.8393H19.4307L18.4135 16.5783L18.8021 17.774L17.7849 17.035L16.7678 17.774L17.1563 16.5783L16.1392 15.8393H17.3964L17.7849 14.6436Z" fill="#D80027"/>
<path d="M17.8985 5.25195L18.2223 6.24847H19.27L18.4223 6.86417L18.7461 7.86064L17.8985 7.24475L17.0509 7.86064L17.3746 6.86417L16.527 6.24847H17.5747L17.8985 5.25195Z" fill="#D80027"/>
<path d="M15.0152 8.87012L15.4037 10.0659H16.6609L15.6438 10.8048L16.0324 12.0006L15.0152 11.2616L13.998 12.0006L14.3866 10.8048L13.3694 10.0659H14.6266L15.0152 8.87012Z" fill="#D80027"/>
</g>
<defs>
<clipPath id="clip0_2941_29695">
<rect width="24" height="24" fill="white"/>
</clipPath>
</defs>
</svg>
