<svg width="24" height="24" viewBox="0 0 24 24" fill="none" xmlns="http://www.w3.org/2000/svg">
<g clip-path="url(#clip0_2941_29797)">
<path d="M12 24C18.6274 24 24 18.6274 24 12C24 5.37258 18.6274 0 12 0C5.37258 0 0 5.37258 0 12C0 18.6274 5.37258 24 12 24Z" fill="#F0F0F0"/>
<path d="M6.10352e-05 12C6.10352e-05 18.6274 5.37269 24 12.0001 24C12.0001 19.4365 12.0001 12 12.0001 12C12.0001 12 4.17395 12 6.10352e-05 12Z" fill="#0052B4"/>
<path d="M11.9996 0.000976562C18.627 0.000976562 23.9996 5.3736 23.9996 12.001C19.4361 12.001 11.9996 12.001 11.9996 12.001C11.9996 12.001 11.9996 4.17487 11.9996 0.000976562Z" fill="#D80027"/>
<path d="M7.14361 4.1748L7.92066 6.56627H10.4352L8.40089 8.04424L9.17789 10.4357L7.14361 8.9577L5.10933 10.4357L5.88633 8.04424L3.85205 6.56627H6.36657L7.14361 4.1748Z" fill="#0052B4"/>
<path d="M16.8571 13.5645L17.6341 15.9559H20.1486L18.1143 17.4339L18.8913 19.8254L16.8571 18.3474L14.8228 19.8254L15.5998 17.4339L13.5655 15.9559H16.08L16.8571 13.5645Z" fill="#D80027"/>
</g>
<defs>
<clipPath id="clip0_2941_29797">
<rect width="24" height="24" fill="white"/>
</clipPath>
</defs>
</svg>
