<svg width="24" height="24" viewBox="0 0 24 24" fill="none" xmlns="http://www.w3.org/2000/svg">
<g clip-path="url(#clip0_2941_29803)">
<path d="M20.4853 20.4857C15.799 25.172 8.20108 25.172 3.51471 20.4857C-1.17158 15.7995 -1.17158 8.20145 3.51475 3.51512C8.20103 -1.17115 15.0611 -0.433295 19.7474 4.25303C24.4337 8.93931 25.1716 15.7995 20.4853 20.4857Z" fill="black"/>
<path d="M3.51465 3.51467C8.20093 -1.17161 15.7989 -1.17152 20.4852 3.51472C25.1715 8.201 25.1715 15.799 20.4852 20.4853" fill="#A2001D"/>
<path d="M9.17146 16.1738L9.36571 16.7717H9.99435L9.48576 17.1412L9.68006 17.7391L9.17146 17.3696L8.66287 17.7391L8.85712 17.1412L8.34857 16.7717H8.97717L9.17146 16.1738Z" fill="#F0F0F0"/>
<path d="M7.56507 10.4346L7.88893 11.431H8.93659L8.08895 12.0468L8.41272 13.0433L7.56507 12.4274L6.71748 13.0433L7.04129 12.0468L6.1936 11.431H7.24136L7.56507 10.4346Z" fill="#F0F0F0"/>
<path d="M7.56507 17.7383L7.88884 18.7347H8.93659L8.08886 19.3505L8.41272 20.347L7.56507 19.7311L6.71748 20.347L7.0412 19.3505L6.1936 18.7347H7.24121L7.56507 17.7383Z" fill="#F0F0F0"/>
<path d="M10.6289 13.0439L10.9528 14.0404H12.0004L11.1528 14.6562L11.4766 15.6526L10.6289 15.0367L9.78134 15.6526L10.1051 14.6562L9.25751 14.0404H10.3052L10.6289 13.0439Z" fill="#F0F0F0"/>
<path d="M4.50221 13.0439L4.82607 14.0404H5.87368L5.02608 14.6562L5.3498 15.6526L4.50221 15.0367L3.65457 15.6526L3.97843 14.6562L3.13074 14.0404H4.17844L4.50221 13.0439Z" fill="#F0F0F0"/>
<path d="M20.0881 8.88673C19.5518 8.35043 18.855 8.0336 18.1062 7.97918L20.3477 6.23576C19.455 5.34302 18.2585 4.93985 17.0909 5.02512C16.9511 4.5228 16.6846 4.04834 16.2896 3.65332L15.4042 5.42416C15.3461 5.31832 15.2726 5.21871 15.1828 5.12904C14.6734 4.61965 13.8476 4.61965 13.3382 5.12904C12.8289 5.63843 12.8288 6.46427 13.3382 6.97366C13.4279 7.06334 13.5275 7.13688 13.6334 7.19501L11.8625 8.08043C12.2577 8.47559 12.7325 8.74226 13.235 8.88195C13.1495 10.0495 13.5523 11.2459 14.445 12.1386L16.4035 9.6206C16.5508 9.47552 16.7454 9.39541 16.9524 9.39541C17.1614 9.39541 17.3579 9.47679 17.5057 9.62468C17.6536 9.77248 17.735 9.96902 17.735 10.178C17.735 10.3871 17.6536 10.5836 17.5057 10.7314L18.2436 11.4694C18.5885 11.1244 18.7785 10.6659 18.7785 10.1781C18.7785 9.77899 18.6512 9.39959 18.4161 9.0859C18.7586 9.17735 19.0823 9.35651 19.3504 9.62468C20.1642 10.4384 20.1642 11.7624 19.3504 12.5761L20.0883 13.314C20.6795 12.7227 21.0052 11.9366 21.0052 11.1004C21.005 10.2641 20.6794 9.47801 20.0881 8.88673Z" fill="#FFDA44"/>
</g>
<defs>
<clipPath id="clip0_2941_29803">
<rect width="24" height="24" fill="white"/>
</clipPath>
</defs>
</svg>
