<svg width="24" height="24" viewBox="0 0 24 24" fill="none" xmlns="http://www.w3.org/2000/svg">
<g clip-path="url(#clip0_2941_29781)">
<path d="M12 24C18.6274 24 24 18.6274 24 12C24 5.37258 18.6274 0 12 0C5.37258 0 0 5.37258 0 12C0 18.6274 5.37258 24 12 24Z" fill="#F0F0F0"/>
<path d="M0.000183105 11.9999C0.000183105 16.5484 2.53092 20.5056 6.26105 22.5408V1.45898C2.53092 3.49425 0.000183105 7.45139 0.000183105 11.9999Z" fill="#F0F0F0"/>
<path d="M11.9996 0.000976562C9.92073 0.000976562 7.96539 0.529867 6.2605 1.46005V22.5419C7.96539 23.4721 9.92073 24.001 11.9996 24.001C18.627 24.001 23.9996 18.6284 23.9996 12.001C23.9996 5.3736 18.627 0.000976562 11.9996 0.000976562Z" fill="#496E2D"/>
<path d="M17.1309 13.9864C15.6127 15.0833 13.4928 14.7419 12.3959 13.2238C11.2989 11.7056 11.6404 9.5857 13.1586 8.48882C13.6319 8.14682 14.1637 7.94465 14.7048 7.87439C13.6639 7.71871 12.5635 7.95328 11.643 8.61839C9.77455 9.96848 9.35422 12.5776 10.7043 14.4461C12.0543 16.3145 14.6635 16.7349 16.532 15.3847C17.4526 14.7196 18.0208 13.7487 18.1997 12.7114C17.9632 13.2029 17.6043 13.6444 17.1309 13.9864Z" fill="#F0F0F0"/>
<path d="M17.0661 7.82715L17.9213 8.74876L19.0621 8.22038L18.4498 9.31838L19.3049 10.2401L18.0713 9.99704L17.4591 11.0951L17.309 9.84685L16.0754 9.6038L17.2162 9.07543L17.0661 7.82715Z" fill="#F0F0F0"/>
</g>
<defs>
<clipPath id="clip0_2941_29781">
<rect width="24" height="24" fill="white"/>
</clipPath>
</defs>
</svg>
