<svg width="24" height="24" viewBox="0 0 24 24" fill="none" xmlns="http://www.w3.org/2000/svg">
<g clip-path="url(#clip0_2941_29833)">
<path d="M24 12C24 18.6274 18.6274 24 12 24C5.37262 24 0 18.6274 0 12C0 12.0029 12 0.0013125 12 0C18.6274 0 24 5.37262 24 12Z" fill="#0052B4"/>
<path d="M11.9684 12.0009H12.0006C12.0006 11.9901 12.0006 11.9796 12.0006 11.9688C11.9899 11.9795 11.9792 11.9902 11.9684 12.0009Z" fill="#F0F0F0"/>
<path d="M12.0005 6.26086C12.0005 4.14937 12.0005 2.76586 12.0005 0H11.9985C5.37194 0.001125 0.000488281 5.37323 0.000488281 12H6.26134V8.47448L9.78686 12H11.9684C11.9791 11.9893 11.9898 11.9786 12.0005 11.9679C12.0005 11.1594 12.0005 10.4381 12.0005 9.78647L8.47492 6.26086H12.0005Z" fill="#F0F0F0"/>
<path d="M6.07124 1.56543C4.19441 2.63413 2.63409 4.19442 1.56543 6.07125V12.0002H4.69588V4.69598V4.69589H12.0002C12.0002 3.70856 12.0002 2.76796 12.0002 1.56543H6.07124Z" fill="#D80027"/>
<path d="M12.0005 10.5251L7.73698 6.26172H6.26135V6.26181L12.0004 12.0008H12.0005C12.0005 12.0008 12.0005 10.9833 12.0005 10.5251Z" fill="#D80027"/>
<path d="M18.7832 7.304L17.2179 7.82577L15.6527 7.304L15.131 5.99966L15.6527 4.69531H18.7832L18.2614 5.99966L18.7832 7.304Z" fill="#ACABB1"/>
<path d="M13.565 7.30371V13.0428C13.565 15.8384 17.2172 16.695 17.2172 16.695C17.2172 16.695 20.8694 15.8384 20.8694 13.0428V7.30371H13.565Z" fill="#338AF3"/>
<path d="M13.8948 14.4026C14.7925 16.1262 17.2177 16.6952 17.2177 16.6952C17.2177 16.6952 19.643 16.1262 20.5407 14.4026L17.2177 8.86914L13.8948 14.4026Z" fill="#6DA544"/>
<path d="M20.8694 12.9848L17.2172 7.30371L13.565 12.9849V13.0428C13.565 13.5602 13.6903 14.0111 13.8942 14.4025L17.2172 9.23332L20.5402 14.4024C20.744 14.011 20.8694 13.5602 20.8694 13.0428V12.9848Z" fill="#FFDA44"/>
</g>
<defs>
<clipPath id="clip0_2941_29833">
<rect width="24" height="24" fill="white"/>
</clipPath>
</defs>
</svg>
