<svg width="24" height="24" viewBox="0 0 24 24" fill="none" xmlns="http://www.w3.org/2000/svg">
<g clip-path="url(#clip0_2941_29852)">
<path d="M12 24C18.6274 24 24 18.6274 24 12C24 5.37258 18.6274 0 12 0C5.37258 0 0 5.37258 0 12C0 18.6274 5.37258 24 12 24Z" fill="#F0F0F0"/>
<path d="M11.999 -0.000976562C8.07308 -0.000976562 4.58769 1.88448 2.39844 4.79902H21.5995C19.4102 1.88448 15.9248 -0.000976562 11.999 -0.000976562Z" fill="#D80027"/>
<path d="M11.999 23.9992C15.9248 23.9992 19.4102 22.1138 21.5995 19.1992H2.39844C4.58769 22.1138 8.07308 23.9992 11.999 23.9992Z" fill="#D80027"/>
<path d="M-0.000549316 11.9986C-0.000549316 12.8206 0.0823257 13.6232 0.239779 14.3986H23.7592C23.9167 13.6232 23.9995 12.8206 23.9995 11.9986C23.9995 11.1767 23.9166 10.3741 23.7592 9.59863H0.239779C0.0823257 10.3741 -0.000549316 11.1767 -0.000549316 11.9986Z" fill="#D80027"/>
<path d="M3.51434 3.51562C-1.17194 8.20191 -1.17194 15.7999 3.51434 20.4862C5.45089 18.5497 7.31337 16.6872 11.9997 12.0009L3.51434 3.51562Z" fill="#0052B4"/>
<path d="M4.85701 8.86914L5.63396 11.2605H8.14861L6.11433 12.7386L6.89124 15.13L4.85701 13.652L2.82268 15.13L3.59977 12.7386L1.56549 11.2605H4.07996L4.85701 8.86914Z" fill="#F0F0F0"/>
</g>
<defs>
<clipPath id="clip0_2941_29852">
<rect width="24" height="24" fill="white"/>
</clipPath>
</defs>
</svg>
