<svg width="24" height="24" viewBox="0 0 24 24" fill="none" xmlns="http://www.w3.org/2000/svg">
<g clip-path="url(#clip0_2941_29792)">
<path d="M12 24C18.6274 24 24 18.6274 24 12C24 5.37258 18.6274 0 12 0C5.37258 0 0 5.37258 0 12C0 18.6274 5.37258 24 12 24Z" fill="#F0F0F0"/>
<path d="M7.30431 7.82709H23.2535C21.5581 3.25748 17.1595 0.000976562 12 0.000976562C8.68619 0.000976562 5.68651 1.34437 3.51508 3.51609L7.30431 7.82709Z" fill="black"/>
<path d="M7.30431 16.1738H23.2535C21.5581 20.7434 17.1595 23.9999 12 23.9999C8.68619 23.9999 5.68651 22.6566 3.51508 20.4848L7.30431 16.1738Z" fill="#6DA544"/>
<path d="M3.51465 3.51465C-1.17163 8.20093 -1.17163 15.7989 3.51465 20.4853C5.4512 18.5487 7.31368 16.6862 12 12L3.51465 3.51465Z" fill="#D80027"/>
</g>
<defs>
<clipPath id="clip0_2941_29792">
<rect width="24" height="24" fill="white"/>
</clipPath>
</defs>
</svg>
