<svg width="24" height="24" viewBox="0 0 24 24" fill="none" xmlns="http://www.w3.org/2000/svg">
<g clip-path="url(#clip0_2941_29813)">
<path d="M12 24C18.6274 24 24 18.6274 24 12C24 5.37258 18.6274 0 12 0C5.37258 0 0 5.37258 0 12C0 18.6274 5.37258 24 12 24Z" fill="#F0F0F0"/>
<path d="M12.0003 0C7.24279 0 3.13204 2.76867 1.19104 6.78262H22.8096C20.8686 2.76867 16.7578 0 12.0003 0Z" fill="#D80027"/>
<path d="M12.0003 24.0004C16.7578 24.0004 20.8686 21.2317 22.8096 17.2178H1.19104C3.13204 21.2317 7.24279 24.0004 12.0003 24.0004Z" fill="#0052B4"/>
<path d="M14.9511 8.52637L13.8443 9.63313C14.3164 10.1052 14.6085 10.7574 14.6085 11.4778C14.6085 12.9185 13.4405 14.0865 11.9998 14.0865C10.5591 14.0865 9.39107 12.9185 9.39107 11.4778C9.39107 10.7574 9.6831 10.1052 10.1552 9.63313L9.04842 8.52637C8.29302 9.28162 7.82587 10.3251 7.82587 11.4778C7.82587 13.783 9.69459 15.6517 11.9998 15.6517C14.3049 15.6517 16.1737 13.7829 16.1737 11.4778C16.1736 10.3251 15.7065 9.28162 14.9511 8.52637Z" fill="#6DA544"/>
<path d="M11.9999 9.91309L12.3885 11.1089H13.6457L12.6285 11.8478L13.0171 13.0435L11.9999 12.3046L10.9827 13.0435L11.3713 11.8478L10.3541 11.1089H11.6114L11.9999 9.91309Z" fill="#FFDA44"/>
</g>
<defs>
<clipPath id="clip0_2941_29813">
<rect width="24" height="24" fill="white"/>
</clipPath>
</defs>
</svg>
