<svg width="24" height="24" viewBox="0 0 24 24" fill="none" xmlns="http://www.w3.org/2000/svg">
<g clip-path="url(#clip0_2941_29946)">
<path d="M12 24C18.6274 24 24 18.6274 24 12C24 5.37258 18.6274 0 12 0C5.37258 0 0 5.37258 0 12C0 18.6274 5.37258 24 12 24Z" fill="#6DA544"/>
<path d="M6.78284 14.3477C6.78284 15.2121 7.48362 15.9129 8.34804 15.9129H13.0437C13.0437 16.6332 13.6277 17.2172 14.348 17.2172H15.9133C16.6336 17.2172 17.2176 16.6332 17.2176 15.9129V14.3477H6.78284Z" fill="#F0F0F0"/>
<path d="M17.3474 6.7832V10.4354C17.3474 11.0108 16.8793 11.4789 16.3039 11.4789V13.0441C17.7423 13.0441 18.9126 11.8738 18.9126 10.4354V6.7832H17.3474Z" fill="#F0F0F0"/>
<path d="M6.13034 10.4354C6.13034 11.0108 5.66224 11.4789 5.08685 11.4789V13.0441C6.52531 13.0441 7.69554 11.8738 7.69554 10.4354V6.7832H6.13034V10.4354Z" fill="#F0F0F0"/>
<path d="M16.5654 6.7832H15.0002V10.4354H16.5654V6.7832Z" fill="#F0F0F0"/>
<path d="M12.652 8.87017C12.652 9.01403 12.535 9.13103 12.3912 9.13103C12.2474 9.13103 12.1303 9.01398 12.1303 8.87017V6.7832H10.5651V8.87017C10.5651 9.01403 10.4481 9.13103 10.3043 9.13103C10.1604 9.13103 10.0434 9.01398 10.0434 8.87017V6.7832H8.47815V8.87017C8.47815 9.87709 9.29734 10.6963 10.3043 10.6963C10.6921 10.6963 11.0517 10.5744 11.3477 10.3674C11.6438 10.5744 12.0034 10.6963 12.3912 10.6963C12.4693 10.6963 12.5461 10.6908 12.6216 10.6812C12.5107 11.1382 12.0992 11.4789 11.6086 11.4789V13.0441C13.0471 13.0441 14.2173 11.8738 14.2173 10.4354V8.87017V6.7832H12.6521V8.87017H12.652Z" fill="#F0F0F0"/>
<path d="M10.826 11.4785H8.47815V13.0437H10.826V11.4785Z" fill="#F0F0F0"/>
</g>
<defs>
<clipPath id="clip0_2941_29946">
<rect width="24" height="24" fill="white"/>
</clipPath>
</defs>
</svg>
