<svg width="24" height="24" viewBox="0 0 24 24" fill="none" xmlns="http://www.w3.org/2000/svg">
<g clip-path="url(#clip0_2941_30029)">
<path d="M20.4861 20.4854C24.9866 15.9849 25.1643 8.79963 21.0211 4.08594L12.0005 11.9997L4.08667 21.0203C8.80036 25.1636 15.9855 24.9859 20.4861 20.4854Z" fill="#496E2D"/>
<path d="M3.51487 3.5144C8.01537 -0.986107 15.2006 -1.16381 19.9143 2.97942L12.0004 12.0001L2.97993 19.9138C-1.16334 15.2001 -0.985595 8.01491 3.51487 3.5144Z" fill="#0052B4"/>
<path d="M19.9139 2.98047L2.97949 19.9149C3.15068 20.1096 3.32843 20.3007 3.51448 20.4867C3.70048 20.6727 3.89158 20.8504 4.0864 21.0217L21.0207 4.08728C20.8495 3.89247 20.6717 3.7014 20.4856 3.51536C20.2997 3.32945 20.1086 3.15166 19.9139 2.98047Z" fill="#FFDA44"/>
<path d="M5.05674 4.1748L5.31581 4.97201H6.15398L5.47589 5.46461L5.73488 6.26182L5.05674 5.76911L4.3786 6.26182L4.63767 5.46461L3.95953 4.97201H4.79775L5.05674 4.1748Z" fill="#F0F0F0"/>
<path d="M9.33756 4.17383L9.59664 4.97103H10.4348L9.75667 5.46364L10.0157 6.26084L9.33756 5.76814L8.65942 6.26084L8.9185 5.46364L8.24036 4.97103H9.07853L9.33756 4.17383Z" fill="#F0F0F0"/>
<path d="M5.05637 8.34766L5.31545 9.14486H6.15362L5.47553 9.63751L5.73451 10.4347L5.05637 9.94201L4.37823 10.4347L4.63731 9.63751L3.95917 9.14486H4.79739L5.05637 8.34766Z" fill="#F0F0F0"/>
<path d="M9.33756 8.34766L9.59664 9.14486H10.4348L9.75667 9.63751L10.0157 10.4347L9.33756 9.94201L8.65942 10.4347L8.9185 9.63751L8.24036 9.14486H9.07853L9.33756 8.34766Z" fill="#F0F0F0"/>
<path d="M7.19704 6.26172L7.45612 7.05892H8.29424L7.61615 7.55157L7.87518 8.34877L7.19704 7.85607L6.5189 8.34877L6.77793 7.55157L6.09979 7.05892H6.93801L7.19704 6.26172Z" fill="#F0F0F0"/>
</g>
<defs>
<clipPath id="clip0_2941_30029">
<rect width="24" height="24" fill="white"/>
</clipPath>
</defs>
</svg>
