<svg width="24" height="24" viewBox="0 0 24 24" fill="none" xmlns="http://www.w3.org/2000/svg">
<g clip-path="url(#clip0_2941_29971)">
<path d="M12 24C18.6274 24 24 18.6274 24 12C24 5.37258 18.6274 0 12 0C5.37258 0 0 5.37258 0 12C0 18.6274 5.37258 24 12 24Z" fill="#F0F0F0"/>
<path d="M20.1001 3.14607C17.9655 1.19176 15.122 -0.000976562 11.9997 -0.000976562C11.4886 -0.000976562 10.9849 0.0312266 10.4906 0.0932422L4.69538 6.78165L0.379456 15.0052C0.658268 16.0861 1.08455 17.1077 1.63453 18.0481L11.9997 11.999L20.1001 3.14607Z" fill="#FFDA44"/>
<path d="M21.9905 18.6484L5.20135 21.8884C7.13396 23.2197 9.47575 23.9998 12 23.9998C16.1681 23.9998 19.8393 21.8743 21.9905 18.6484Z" fill="#6DA544"/>
<path d="M20.1023 3.14844L1.64185 18.0605C2.12471 18.884 2.70281 19.6449 3.36127 20.3278L24.0002 11.9998C24.0002 8.49547 22.4978 5.34228 20.1023 3.14844Z" fill="#D80027"/>
<path d="M-0.000488281 11.9995C-0.000488281 13.0377 0.131418 14.045 0.379246 15.0057L10.4904 0.09375C4.57536 0.835969 -0.000488281 5.88328 -0.000488281 11.9995Z" fill="#0052B4"/>
</g>
<defs>
<clipPath id="clip0_2941_29971">
<rect width="24" height="24" fill="white"/>
</clipPath>
</defs>
</svg>
