<svg width="24" height="24" viewBox="0 0 24 24" fill="none" xmlns="http://www.w3.org/2000/svg">
<g clip-path="url(#clip0_2941_30139)">
<path d="M12 24C18.6274 24 24 18.6274 24 12C24 5.37258 18.6274 0 12 0C5.37258 0 0 5.37258 0 12C0 18.6274 5.37258 24 12 24Z" fill="#FFDA44"/>
<path d="M9.39085 10.4348H23.8979C23.1309 4.54697 18.0964 0 11.9995 0C11.1035 0 10.2308 0.0990469 9.39081 0.285234V10.4348H9.39085Z" fill="#0052B4"/>
<path d="M6.26079 10.4347V1.45898C2.96575 3.25683 0.606955 6.55453 0.101501 10.4347H6.26079V10.4347Z" fill="#0052B4"/>
<path d="M6.26074 13.5654H0.101501C0.606955 17.4456 2.96575 20.7433 6.26079 22.5411L6.26074 13.5654Z" fill="#0052B4"/>
<path d="M9.39081 13.5655V23.715C10.2308 23.9012 11.1035 24.0002 11.9995 24.0002C18.0964 24.0002 23.1309 19.4533 23.8979 13.5654H9.39081V13.5655Z" fill="#0052B4"/>
</g>
<defs>
<clipPath id="clip0_2941_30139">
<rect width="24" height="24" fill="white"/>
</clipPath>
</defs>
</svg>
