<svg width="24" height="24" viewBox="0 0 24 24" fill="none" xmlns="http://www.w3.org/2000/svg">
<g clip-path="url(#clip0_2941_29981)">
<path d="M12 24C18.6274 24 24 18.6274 24 12C24 5.37258 18.6274 0 12 0C5.37258 0 0 5.37258 0 12C0 18.6274 5.37258 24 12 24Z" fill="#F0F0F0"/>
<path d="M0 12C0 5.37262 5.37262 0 12 0C18.6274 0 24 5.37262 24 12" fill="#D80027"/>
<path d="M7.30396 6.26052C7.30396 4.51218 8.53269 3.05165 10.1735 2.69329C9.92132 2.63826 9.65971 2.6084 9.39088 2.6084C7.3738 2.6084 5.73871 4.24349 5.73871 6.26057C5.73871 8.27765 7.3738 9.91274 9.39088 9.91274C9.65961 9.91274 9.92127 9.88288 10.1735 9.82781C8.53269 9.46945 7.30396 8.00891 7.30396 6.26052Z" fill="#F0F0F0"/>
<path d="M11.9996 2.86914L12.2587 3.66625H13.0968L12.4187 4.15895L12.6777 4.95606L11.9996 4.46345L11.3215 4.95606L11.5806 4.15895L10.9025 3.66625H11.7406L11.9996 2.86914Z" fill="#F0F0F0"/>
<path d="M9.96651 4.43457L10.2255 5.23173H11.0637L10.3856 5.72438L10.6446 6.52149L9.96651 6.02888L9.28832 6.52149L9.5474 5.72438L8.86926 5.23173H9.70743L9.96651 4.43457Z" fill="#F0F0F0"/>
<path d="M14.033 4.43457L14.2921 5.23173H15.1302L14.4521 5.72438L14.7112 6.52149L14.033 6.02888L13.3549 6.52149L13.6139 5.72438L12.9359 5.23173H13.774L14.033 4.43457Z" fill="#F0F0F0"/>
<path d="M13.2505 6.7832L13.5096 7.58036H14.3477L13.6696 8.07302L13.9286 8.87012L13.2505 8.37752L12.5724 8.87012L12.8315 8.07302L12.1534 7.58036H12.9915L13.2505 6.7832Z" fill="#F0F0F0"/>
<path d="M10.7489 6.7832L11.0079 7.58036H11.8461L11.1679 8.07302L11.427 8.87012L10.7489 8.37752L10.0707 8.87012L10.3298 8.07302L9.65167 7.58036H10.4898L10.7489 6.7832Z" fill="#F0F0F0"/>
</g>
<defs>
<clipPath id="clip0_2941_29981">
<rect width="24" height="24" fill="white"/>
</clipPath>
</defs>
</svg>
