<svg width="24" height="24" viewBox="0 0 24 24" fill="none" xmlns="http://www.w3.org/2000/svg">
<g clip-path="url(#clip0_2941_30024)">
<path d="M12 24C18.6274 24 24 18.6274 24 12C24 5.37258 18.6274 0 12 0C5.37258 0 0 5.37258 0 12C0 18.6274 5.37258 24 12 24Z" fill="#F0F0F0"/>
<path d="M23.2539 7.82674H10.435V4.69629H4.17413V7.82674H0.746635C0.264291 9.12668 0.000244141 10.5328 0.000244141 12.0006C0.000244141 13.4685 0.264291 14.8745 0.746635 16.1745L12.0002 17.218L23.2539 16.1745C23.7362 14.8745 24.0002 13.4685 24.0002 12.0006C24.0002 10.5328 23.7362 9.12668 23.2539 7.82674Z" fill="#0052B4"/>
<path d="M12.0002 23.9999C17.1598 23.9999 21.5583 20.7434 23.2538 16.1738H0.746582C2.4421 20.7434 6.84061 23.9999 12.0002 23.9999Z" fill="#D80027"/>
<path d="M4.17401 7.82641V8.86984C4.17401 11.2661 7.30446 12.0003 7.30446 12.0003C7.30446 12.0003 10.4349 11.2661 10.4349 8.86984V7.82641L9.39143 8.86989L7.30446 7.30469L5.2175 8.86989L4.17401 7.82641Z" fill="#F0F0F0"/>
</g>
<defs>
<clipPath id="clip0_2941_30024">
<rect width="24" height="24" fill="white"/>
</clipPath>
</defs>
</svg>
