<svg width="24" height="24" viewBox="0 0 24 24" fill="none" xmlns="http://www.w3.org/2000/svg">
<g clip-path="url(#clip0_2941_30016)">
<path d="M12 24C18.6274 24 24 18.6274 24 12C24 5.37258 18.6274 0 12 0C5.37258 0 0 5.37258 0 12C0 18.6274 5.37258 24 12 24Z" fill="#F0F0F0"/>
<path d="M12.0001 24.0001C18.6275 24.0001 24.0001 18.6274 24.0001 12.0001C24.0001 10.5322 23.7361 9.12611 23.2537 7.82617H0.746513C0.264169 9.12611 0.00012207 10.5322 0.00012207 12.0001C0.00012207 18.6274 5.37275 24.0001 12.0001 24.0001Z" fill="#0052B4"/>
<path d="M12.0001 23.9999C17.1596 23.9999 21.5582 20.7434 23.2537 16.1738H0.74646C2.44198 20.7434 6.84049 23.9999 12.0001 23.9999Z" fill="#D80027"/>
<path d="M3.10266 6.78223V12.7684C3.10266 16.1736 7.55115 17.217 7.55115 17.217C7.55115 17.217 11.9996 16.1736 11.9996 12.7684V6.78223H3.10266Z" fill="#F0F0F0"/>
<path d="M4.14648 6.78223V12.7684C4.14648 13.1682 4.23527 13.5457 4.41114 13.8997C6.15648 13.8997 8.76517 13.8997 10.6918 13.8997C10.8677 13.5458 10.9564 13.1682 10.9564 12.7684V6.78223H4.14648Z" fill="#D80027"/>
<path d="M9.63862 10.9566H8.07346V9.91309H9.11694V8.86961H8.07346V7.82617H7.02997V8.86961H5.98653V9.91309H7.02997V10.9566H5.46472V12.0001H7.02997V13.0435H8.07346V12.0001H9.63862V10.9566Z" fill="#F0F0F0"/>
<path d="M5.83428 15.3574C6.5067 15.78 7.19754 16.0253 7.55121 16.1345C7.90489 16.0254 8.59573 15.78 9.26815 15.3574C9.94625 14.9312 10.4216 14.4438 10.6915 13.9008C10.3938 13.6902 10.0306 13.5659 9.63818 13.5659C9.49531 13.5659 9.35651 13.5829 9.22306 13.6139C8.94026 12.9714 8.29831 12.5225 7.55126 12.5225C6.80421 12.5225 6.16221 12.9714 5.87946 13.6139C5.74601 13.5829 5.60717 13.5659 5.46434 13.5659C5.07195 13.5659 4.70871 13.6902 4.41101 13.9008C4.68078 14.4438 5.15614 14.9312 5.83428 15.3574Z" fill="#0052B4"/>
</g>
<defs>
<clipPath id="clip0_2941_30016">
<rect width="24" height="24" fill="white"/>
</clipPath>
</defs>
</svg>
