<svg width="24" height="24" viewBox="0 0 24 24" fill="none" xmlns="http://www.w3.org/2000/svg">
<g clip-path="url(#clip0_2941_29930)">
<path d="M24 11.9998C24 18.6271 18.6274 23.9998 12 23.9998C5.37262 23.9998 0 18.6271 0 11.9998C0.521719 11.9998 12 10.4346 12 10.4346L24 11.9998Z" fill="#338AF3"/>
<path d="M0 12C0 5.37262 5.37262 0 12 0C18.6274 0 24 5.37262 24 12" fill="#F0F0F0"/>
<path d="M16.7632 8.28125L12 13.0445L7.23671 8.28125C6.62072 9.19564 6.26086 10.2962 6.26086 11.4793V13.0445C6.26086 15.5578 7.88485 17.6987 10.1385 18.4736C9.83766 19.0631 9.88838 19.7988 10.3291 20.3489C10.9145 19.8797 11.5206 19.394 12.0347 18.9821C12.5488 19.3941 13.1549 19.8797 13.7402 20.3489C14.1862 19.7924 14.2332 19.0456 13.9206 18.4527C16.1434 17.6609 17.739 15.5357 17.739 13.0445V11.4793C17.7391 10.2962 17.3792 9.19569 16.7632 8.28125Z" fill="#6DA544"/>
<path d="M11.9996 17.2177C9.69812 17.2177 7.82574 15.3453 7.82574 13.0438V11.4786C7.82574 9.17706 9.69817 7.30469 11.9996 7.30469C14.3011 7.30469 16.1735 9.17711 16.1735 11.4786V13.0438C16.1735 15.3453 14.3012 17.2177 11.9996 17.2177Z" fill="#FFDA44"/>
<path d="M14.6088 13.043V11.4778C14.6088 10.0394 13.4386 8.86914 12.0002 8.86914C10.5618 8.86914 9.39148 10.0394 9.39148 11.4778V13.043L12.0002 13.5647L14.6088 13.043Z" fill="#338AF3"/>
<path d="M9.39148 13.043C9.39148 14.4814 10.5618 15.6517 12.0002 15.6517C13.4386 15.6517 14.6088 14.4814 14.6088 13.043H9.39148Z" fill="#6DA544"/>
<path d="M15.1304 7.30354C15.1304 6.43912 14.4296 5.73834 13.5652 5.73834C13.1642 5.73834 12.7987 5.88927 12.5217 6.1372V5.21657H13.0435V4.17309H12.5217V3.65137H11.4783V4.17309H10.9565V5.21657H11.4783V6.1372C11.2013 5.88927 10.8357 5.73834 10.4348 5.73834C9.57035 5.73834 8.86957 6.43912 8.86957 7.30354C8.86957 7.76699 9.07118 8.18324 9.39129 8.46988V9.39051H14.6087V8.46988C14.9288 8.18324 15.1304 7.76699 15.1304 7.30354Z" fill="#FFDA44"/>
</g>
<defs>
<clipPath id="clip0_2941_29930">
<rect width="24" height="24" fill="white"/>
</clipPath>
</defs>
</svg>
