<svg width="24" height="24" viewBox="0 0 24 24" fill="none" xmlns="http://www.w3.org/2000/svg">
<g clip-path="url(#clip0_2941_30117)">
<path d="M12 24C18.6274 24 24 18.6274 24 12C24 5.37258 18.6274 0 12 0C5.37258 0 0 5.37258 0 12C0 18.6274 5.37258 24 12 24Z" fill="#F0F0F0"/>
<path d="M23.2531 7.82715H0.745916C0.26362 9.12718 -0.000427246 10.5332 -0.000427246 12.001C-0.000427246 13.4689 0.26362 14.875 0.745916 16.1749H23.2532C23.7356 14.875 23.9996 13.4689 23.9996 12.001C23.9996 10.5332 23.7356 9.12718 23.2531 7.82715Z" fill="#A2001D"/>
<path d="M12.0347 24.0006C16.1447 24.0006 19.7717 21.9338 21.9345 18.7832H2.13489C4.29761 21.9338 7.92451 24.0006 12.0347 24.0006Z" fill="#6DA544"/>
<path d="M12.0343 0C16.1444 0 19.7714 2.06681 21.9341 5.21738H2.13452C4.29724 2.06681 7.92415 0 12.0343 0Z" fill="#6DA544"/>
<path d="M11.9995 7.82715L13.0355 11.0156H16.3882L13.6758 12.9864L14.7119 16.1749L11.9995 14.2044L9.28708 16.1749L10.3232 12.9864L7.61078 11.0156H10.9635L11.9995 7.82715Z" fill="#FFDA44"/>
</g>
<defs>
<clipPath id="clip0_2941_30117">
<rect width="24" height="24" fill="white"/>
</clipPath>
</defs>
</svg>
