<svg width="24" height="24" viewBox="0 0 24 24" fill="none" xmlns="http://www.w3.org/2000/svg">
<g clip-path="url(#clip0_2941_29938)">
<path d="M12 24C18.6274 24 24 18.6274 24 12C24 5.37258 18.6274 0 12 0C5.37258 0 0 5.37258 0 12C0 18.6274 5.37258 24 12 24Z" fill="#FFDA44"/>
<path d="M7.30504 7.82611H23.2543C21.5588 3.2565 17.1602 0 12.0007 0C8.68692 0 5.68725 1.34339 3.51581 3.51511L7.30504 7.82611Z" fill="#6DA544"/>
<path d="M7.30419 16.1748H23.2534C21.5579 20.7444 17.1594 24.0009 11.9998 24.0009C8.68606 24.0009 5.68639 22.6575 3.51495 20.4858L7.30419 16.1748Z" fill="#6DA544"/>
<path d="M3.51471 3.51367C-1.17157 8.19995 -1.17157 15.798 3.51471 20.4843C5.45126 18.5478 7.31375 16.6853 12 11.999L3.51471 3.51367Z" fill="#D80027"/>
<path d="M15.2379 9.91309L15.7559 11.5074H17.4322L16.076 12.4927L16.5941 14.087L15.2379 13.1017L13.8817 14.087L14.3997 12.4927L13.0435 11.5074H14.7199L15.2379 9.91309Z" fill="black"/>
<path d="M20.4558 9.91309L20.9737 11.5074H22.6501L21.2939 12.4927L21.8119 14.087L20.4558 13.1017L19.0995 14.087L19.6175 12.4927L18.2614 11.5074H19.9377L20.4558 9.91309Z" fill="black"/>
</g>
<defs>
<clipPath id="clip0_2941_29938">
<rect width="24" height="24" fill="white"/>
</clipPath>
</defs>
</svg>
