<svg width="24" height="24" viewBox="0 0 24 24" fill="none" xmlns="http://www.w3.org/2000/svg">
<g clip-path="url(#clip0_2941_30006)">
<path d="M10.9564 13.0425C10.9564 13.0425 3.52156 3.51207 3.51453 3.51376C5.68606 1.34218 8.6861 -0.000976562 11.9998 -0.000976562C18.6272 -0.000976562 23.9998 5.37165 23.9998 11.999L10.9564 13.0425Z" fill="#D80027"/>
<path d="M10.9564 12C10.9564 12 3.52156 20.4869 3.51453 20.4853C5.68606 22.6568 8.6861 24 11.9998 24C18.6272 24 23.9998 18.6274 23.9998 12H10.9564Z" fill="#0052B4"/>
<path d="M3.51471 3.51465C-1.17157 8.20093 -1.17157 15.7989 3.51471 20.4853C5.45126 18.5487 7.31375 16.6862 12 12L3.51471 3.51465Z" fill="#F0F0F0"/>
<path d="M1.31576 11.999C1.3092 12.0852 1.30475 12.172 1.30475 12.2598C1.30475 14.1328 2.82312 15.6511 4.69606 15.6511C6.569 15.6511 8.08737 14.1328 8.08737 12.2598C8.08737 12.172 8.08292 12.0851 8.07636 11.999H1.31576Z" fill="#FFDA44"/>
<path d="M4.69577 10.4336C5.27207 10.4336 5.73925 9.96646 5.73925 9.39016C5.73925 8.81386 5.27207 8.34668 4.69577 8.34668C4.11947 8.34668 3.65228 8.81386 3.65228 9.39016C3.65228 9.96646 4.11947 10.4336 4.69577 10.4336Z" fill="#FFDA44"/>
<path d="M2.34753 9.12988V12.5212C2.34753 14.3184 4.69536 14.869 4.69536 14.869C4.69536 14.869 7.04319 14.3184 7.04319 12.5212V9.12988H2.34753Z" fill="#D80027"/>
<path d="M4.69687 13.7774C4.26131 13.6207 3.39136 13.2201 3.39136 12.5217V10.1738H6.00009V12.5217C6.00009 13.2224 5.13023 13.622 4.69687 13.7774Z" fill="#338AF3"/>
<path d="M5.21774 11.4779V10.9562L4.69602 10.6953L4.17425 10.9562V11.4779L3.91339 11.7388V12.7823H5.47864V11.7388L5.21774 11.4779Z" fill="#F3F3F3"/>
</g>
<defs>
<clipPath id="clip0_2941_30006">
<rect width="24" height="24" fill="white"/>
</clipPath>
</defs>
</svg>
