<svg width="24" height="24" viewBox="0 0 24 24" fill="none" xmlns="http://www.w3.org/2000/svg">
<g clip-path="url(#clip0_2941_30149)">
<path d="M12 24C18.6274 24 24 18.6274 24 12C24 5.37258 18.6274 0 12 0C5.37258 0 0 5.37258 0 12C0 18.6274 5.37258 24 12 24Z" fill="#F0F0F0"/>
<path d="M11.9998 -0.000976562C6.84019 -0.000976562 2.44167 3.25552 0.746155 7.82513H23.2534C21.5579 3.25552 17.1593 -0.000976562 11.9998 -0.000976562Z" fill="#D80027"/>
<path d="M11.9999 24.0009C17.1595 24.0009 21.558 20.7444 23.2535 16.1748H0.746277C2.44179 20.7444 6.84031 24.0009 11.9999 24.0009Z" fill="black"/>
<path d="M7.17018 9.12988L7.81767 11.1226H9.91312L8.21788 12.3544L8.86542 14.3473L7.17018 13.1156L5.47495 14.3473L6.12248 12.3544L4.42725 11.1226H6.5227L7.17018 9.12988Z" fill="#6DA544"/>
<path d="M16.83 9.12988L17.4775 11.1226H19.573L17.8777 12.3544L18.5253 14.3473L16.83 13.1156L15.1348 14.3473L15.7823 12.3544L14.0871 11.1226H16.1825L16.83 9.12988Z" fill="#6DA544"/>
</g>
<defs>
<clipPath id="clip0_2941_30149">
<rect width="24" height="24" fill="white"/>
</clipPath>
</defs>
</svg>
