<svg width="24" height="24" viewBox="0 0 24 24" fill="none" xmlns="http://www.w3.org/2000/svg">
<g clip-path="url(#clip0_2941_30124)">
<path d="M22.809 17.2163C23.5718 15.6387 23.9997 13.8688 23.9997 11.9989C23.9997 10.1291 23.5718 8.35911 22.809 6.78153L11.9997 6.25977L1.19041 6.78149C0.42757 8.35911 -0.000305176 10.1291 -0.000305176 11.9989C-0.000305176 13.8688 0.42757 15.6387 1.19041 17.2163L11.9997 17.7381L22.809 17.2163Z" fill="#FFDA44"/>
<path d="M11.9999 0C7.24236 0 3.13161 2.76867 1.19061 6.78262H22.8091C20.8682 2.76867 16.7574 0 11.9999 0Z" fill="black"/>
<path d="M11.9999 23.9994C7.24236 23.9994 3.13161 21.2307 1.19061 17.2168H22.8091C20.8682 21.2307 16.7574 23.9994 11.9999 23.9994Z" fill="#0052B4"/>
<path d="M23.433 8.34766H0.566367C0.198773 9.49933 -0.000305176 10.7263 -0.000305176 11.9998C-0.000305176 13.2734 0.198773 14.5003 0.566367 15.652H23.433C23.8006 14.5003 23.9997 13.2734 23.9997 11.9998C23.9997 10.7263 23.8006 9.49933 23.433 8.34766Z" fill="#A2001D"/>
<path d="M19.826 11.4795H4.17383V12.523H19.826V11.4795Z" fill="#FFDA44"/>
<path d="M17.739 9.3916H6.26074V10.4351H17.739V9.3916Z" fill="#FFDA44"/>
<path d="M17.8135 11.9996C17.8135 11.9996 15.1302 15.13 11.9998 15.13C8.86937 15.13 8.86932 11.9996 8.86932 11.9996C8.86932 11.9996 8.86932 8.86914 11.9998 8.86914C15.1302 8.86914 17.8135 11.9996 17.8135 11.9996Z" fill="#F0F0F0"/>
<path d="M11.9996 15.13C8.86913 15.13 6.18591 11.9996 6.18591 11.9996C6.18591 11.9996 8.86913 8.86914 11.9996 8.86914" fill="black"/>
<path d="M10.9568 10.957H9.91327V13.044H10.9568V10.957Z" fill="#F0F0F0"/>
<path d="M14.0867 10.957H13.0432V13.044H14.0867V10.957Z" fill="black"/>
<path d="M4.17392 13.044C4.75022 13.044 5.2174 12.5768 5.2174 12.0005C5.2174 11.4242 4.75022 10.957 4.17392 10.957C3.59762 10.957 3.13043 11.4242 3.13043 12.0005C3.13043 12.5768 3.59762 13.044 4.17392 13.044Z" fill="#0052B4"/>
<path d="M19.8266 13.044C20.4029 13.044 20.87 12.5768 20.87 12.0005C20.87 11.4242 20.4029 10.957 19.8266 10.957C19.2503 10.957 18.7831 11.4242 18.7831 12.0005C18.7831 12.5768 19.2503 13.044 19.8266 13.044Z" fill="#0052B4"/>
</g>
<defs>
<clipPath id="clip0_2941_30124">
<rect width="24" height="24" fill="white"/>
</clipPath>
</defs>
</svg>
