<svg width="24" height="24" viewBox="0 0 24 24" fill="none" xmlns="http://www.w3.org/2000/svg">
<g clip-path="url(#clip0_2941_30252)">
<path d="M24 12C24 18.6274 18.6274 24 12 24C5.37262 24 0 18.6274 0 12C0 12.0029 12 0.0013125 12 0C18.6274 0 24 5.37262 24 12Z" fill="#0052B4"/>
<path d="M11.9684 11.999H12.0006C12.0006 11.9882 12.0006 11.9776 12.0006 11.9668C11.9898 11.9776 11.9791 11.9883 11.9684 11.999Z" fill="#F0F0F0"/>
<path d="M12.0005 6.26086C12.0005 4.14937 12.0005 2.76586 12.0005 0H11.9985C5.372 0.001125 0.000549316 5.37323 0.000549316 12H6.26141V8.47448L9.78692 12H11.9685C11.9792 11.9893 11.9899 11.9786 12.0006 11.9679C12.0006 11.1594 12.0006 10.4381 12.0006 9.78647L8.47499 6.26086H12.0005Z" fill="#F0F0F0"/>
<path d="M6.07112 1.56543C4.19429 2.63413 2.63396 4.19441 1.56531 6.07124V12.0002H4.69576V4.69598V4.69588H12.0001C12.0001 3.70856 12.0001 2.76796 12.0001 1.56543H6.07112Z" fill="#D80027"/>
<path d="M12.0004 10.5242L7.73692 6.26074H6.26129V6.26084L12.0003 11.9998H12.0004C12.0004 11.9998 12.0004 10.9823 12.0004 10.5242Z" fill="#D80027"/>
<path d="M13.565 6.26074V11.9998C13.565 14.7955 17.2172 15.6521 17.2172 15.6521C17.2172 15.6521 20.8693 14.7955 20.8693 11.9998V6.26074H13.565Z" fill="#FFDA44"/>
<path d="M16.6958 8.34817C16.6958 8.9245 16.2286 10.4351 15.6523 10.4351C15.076 10.4351 14.6088 8.9245 14.6088 8.34817C14.6088 7.77184 15.6523 7.30469 15.6523 7.30469C15.6523 7.30469 16.6958 7.77184 16.6958 8.34817Z" fill="#FF9811"/>
<path d="M19.4642 9.48466C19.6326 9.0738 19.7636 8.47324 19.7636 8.17427C19.7636 7.69398 19.1374 7.30469 19.1374 7.30469C19.1374 7.30469 18.5113 7.69403 18.5113 8.17427C18.5113 8.47324 18.6423 9.0738 18.8107 9.48466L18.4492 10.3008C18.6617 10.3871 18.8939 10.4351 19.1374 10.4351C19.3809 10.4351 19.6131 10.3871 19.8256 10.3008L19.4642 9.48466Z" fill="#A2001D"/>
<path d="M16.4351 12.0002C16.4351 12.0002 15.9134 13.0437 15.9134 14.0872C15.9134 14.0872 17.4786 14.0872 18.5221 14.0872C18.522 13.0437 18.0003 12.0002 18.0003 12.0002L17.2177 11.4785L16.4351 12.0002Z" fill="#6DA544"/>
<path d="M18.0006 12.0005V11.7397C18.0006 11.3075 17.6502 10.957 17.2179 10.957C16.7857 10.957 16.4353 11.3074 16.4353 11.7397V12.0005H18.0006Z" fill="#D80027"/>
</g>
<defs>
<clipPath id="clip0_2941_30252">
<rect width="24" height="24" fill="white"/>
</clipPath>
</defs>
</svg>
