<svg width="24" height="24" viewBox="0 0 24 24" fill="none" xmlns="http://www.w3.org/2000/svg">
<g clip-path="url(#clip0_2941_28931)">
<path d="M12.0004 -0.000976562C10.5325 -0.000976562 9.12642 0.26307 7.82648 0.745414L7.30472 11.999L7.82644 23.2526C9.12642 23.735 10.5325 23.999 12.0004 23.999C13.4682 23.999 14.8743 23.735 16.1743 23.2526L16.696 11.999L16.1743 0.745414C14.8743 0.26307 13.4682 -0.000976562 12.0004 -0.000976562Z" fill="#FFDA44"/>
<path d="M24.0005 12.0007C24.0005 6.8411 20.744 2.44259 16.1743 0.74707V23.2543C20.744 21.5588 24.0005 17.1603 24.0005 12.0007Z" fill="#D80027"/>
<path d="M7.82611 23.2543V0.74707C3.2565 2.44259 0 6.8411 0 12.0007C0 17.1603 3.2565 21.5588 7.82611 23.2543Z" fill="#0052B4"/>
</g>
<defs>
<clipPath id="clip0_2941_28931">
<rect width="24" height="24" fill="white"/>
</clipPath>
</defs>
</svg>
