<svg width="24" height="24" viewBox="0 0 24 24" fill="none" xmlns="http://www.w3.org/2000/svg">
<g clip-path="url(#clip0_2941_30180)">
<path d="M12 24C18.6274 24 24 18.6274 24 12C24 5.37258 18.6274 0 12 0C5.37258 0 0 5.37258 0 12C0 18.6274 5.37258 24 12 24Z" fill="#F0F0F0"/>
<path d="M23.254 7.82617H0.746757C0.264366 9.12616 0.000366211 10.5322 0.000366211 12.0001C0.000366211 13.4679 0.264366 14.874 0.746757 16.174H23.254C23.7364 14.874 24.0004 13.4679 24.0004 12.0001C24.0004 10.5322 23.7364 9.12616 23.254 7.82617Z" fill="#0052B4"/>
<path d="M12.0013 -0.000976562C8.36426 -0.000976562 5.10536 1.61734 2.90472 4.17291H21.0979C18.8973 1.61734 15.6384 -0.000976562 12.0013 -0.000976562Z" fill="#D80027"/>
<path d="M21.097 19.8262H2.90375C5.10439 22.3817 8.36328 24 12.0004 24C15.6374 24 18.8963 22.3817 21.097 19.8262Z" fill="#D80027"/>
</g>
<defs>
<clipPath id="clip0_2941_30180">
<rect width="24" height="24" fill="white"/>
</clipPath>
</defs>
</svg>
