<svg width="24" height="24" viewBox="0 0 24 24" fill="none" xmlns="http://www.w3.org/2000/svg">
<g clip-path="url(#clip0_2941_30162)">
<path d="M1.19084 6.78177C0.427997 8.35939 0.00012207 10.1293 0.00012207 11.9991C0.00012207 13.869 0.427997 15.6389 1.19084 17.2165L12.0001 18.26L22.8094 17.2165C23.5722 15.6389 24.0001 13.869 24.0001 11.9991C24.0001 10.1293 23.5722 8.35939 22.8094 6.78177L12.0001 5.73828L1.19084 6.78177Z" fill="#F0F0F0"/>
<path d="M1.19141 17.2178C3.13236 21.2317 7.24278 24.0004 12.0003 24.0004C16.7577 24.0004 20.8682 21.2317 22.8091 17.2178H1.19141Z" fill="#6DA544"/>
<path d="M1.19141 6.78165H22.8091C20.8682 2.76774 16.7577 -0.000976562 12.0003 -0.000976562C7.24278 -0.000976562 3.13236 2.76774 1.19141 6.78165Z" fill="#D80027"/>
<path d="M9.91333 15.1312H14.0873V13.3573L13.2525 13.7746L12.0003 12.5225L10.7481 13.7746L9.91333 13.3573V15.1312Z" fill="#FFDA44"/>
<path d="M7.52492 13.0439L7.71921 13.6418H8.34781L7.83921 14.0113L8.03351 14.6091L7.52492 14.2397L7.01632 14.6091L7.21062 14.0113L6.70203 13.6418H7.33062L7.52492 13.0439Z" fill="#FFDA44"/>
<path d="M8.12733 10.958L8.32163 11.5559H8.95022L8.44163 11.9254L8.63588 12.5232L8.12733 12.1537L7.61874 12.5232L7.81304 11.9254L7.30444 11.5559H7.93304L8.12733 10.958Z" fill="#FFDA44"/>
<path d="M9.84871 9.39258L10.043 9.99042H10.6715L10.163 10.3599L10.3573 10.9578L9.84871 10.5883L9.34016 10.9578L9.53441 10.3599L9.02582 9.99042H9.65446L9.84871 9.39258Z" fill="#FFDA44"/>
<path d="M16.475 13.0439L16.2807 13.6418H15.6521L16.1607 14.0113L15.9664 14.6091L16.475 14.2397L16.9835 14.6091L16.7893 14.0113L17.2979 13.6418H16.6693L16.475 13.0439Z" fill="#FFDA44"/>
<path d="M15.8727 10.958L15.6784 11.5559H15.0498L15.5584 11.9254L15.3641 12.5232L15.8727 12.1537L16.3813 12.5232L16.187 11.9254L16.6956 11.5559H16.067L15.8727 10.958Z" fill="#FFDA44"/>
<path d="M14.1512 9.39258L13.9569 9.99042H13.3284L13.8369 10.3599L13.6426 10.9578L14.1512 10.5883L14.6598 10.9578L14.4655 10.3599L14.9741 9.99042H14.3455L14.1512 9.39258Z" fill="#FFDA44"/>
<path d="M12.0004 8.60938L12.1947 9.20722H12.8233L12.3147 9.57673L12.509 10.1746L12.0004 9.80511L11.4918 10.1746L11.6861 9.57673L11.1775 9.20722H11.8061L12.0004 8.60938Z" fill="#FFDA44"/>
</g>
<defs>
<clipPath id="clip0_2941_30162">
<rect width="24" height="24" fill="white"/>
</clipPath>
</defs>
</svg>
