<svg width="24" height="24" viewBox="0 0 24 24" fill="none" xmlns="http://www.w3.org/2000/svg">
<g clip-path="url(#clip0_2941_29120)">
<path d="M12 24C18.6274 24 24 18.6274 24 12C24 5.37258 18.6274 0 12 0C5.37258 0 0 5.37258 0 12C0 18.6274 5.37258 24 12 24Z" fill="#FFDA44"/>
<path d="M11.9997 0C9.06173 0 6.37082 1.05642 4.28479 2.80941L17.2171 12L4.28479 21.1906C6.37082 22.9436 9.06173 24 11.9997 24C18.6271 24 23.9997 18.6274 23.9997 12C23.9997 5.37262 18.6271 0 11.9997 0Z" fill="#D80027"/>
<path d="M3.51471 3.51562C-1.17157 8.20191 -1.17157 15.7999 3.51471 20.4862C5.45126 18.5497 7.31375 16.6872 12 12.0009L3.51471 3.51562Z" fill="black"/>
<path d="M3.3269 9.25098L5.15315 10.9793L7.36134 9.77635L6.28204 12.0474L8.10834 13.7759L5.61487 13.4511L4.53543 15.7222L4.07385 13.2503L1.58038 12.9255L3.78848 11.7226L3.3269 9.25098Z" fill="#F0F0F0"/>
</g>
<defs>
<clipPath id="clip0_2941_29120">
<rect width="24" height="24" fill="white"/>
</clipPath>
</defs>
</svg>
