<svg width="24" height="24" viewBox="0 0 24 24" fill="none" xmlns="http://www.w3.org/2000/svg">
<g clip-path="url(#clip0_2941_30224)">
<path d="M11.9997 -0.000976562C11.1037 -0.000976562 10.2309 0.0980703 9.39104 0.284258L8.86932 11.999L9.39104 23.7137C10.231 23.8999 11.1038 23.999 11.9997 23.999C18.6271 23.999 23.9997 18.6264 23.9997 11.999C23.9996 5.3716 18.6271 -0.000976562 11.9997 -0.000976562Z" fill="#496E2D"/>
<path d="M3.1301 3.91699C1.18554 6.04962 -0.000305176 8.88602 -0.000305176 11.9996C-0.000305176 15.1131 1.18559 17.9495 3.13015 20.0822L3.65187 11.9996L3.1301 3.91699Z" fill="#496E2D"/>
<path d="M17.5515 9.05131C18.1419 7.40572 17.4786 5.61598 16.0551 4.72461C16.3112 4.75794 16.5675 4.81822 16.8204 4.90892C18.719 5.59011 19.7059 7.6813 19.0247 9.57983C18.3435 11.4785 16.2523 12.4653 14.3538 11.7841C14.1008 11.6934 13.8646 11.5769 13.6458 11.4399C15.3113 11.6568 16.9611 10.6969 17.5515 9.05131Z" fill="#F0F0F0"/>
<path d="M14.277 4.27441L13.7639 4.93732L12.9751 4.65424L13.4469 5.34696L12.934 6.00977L13.7386 5.77512L14.2105 6.46774L14.2358 5.62999L15.0405 5.39529L14.2516 5.1123L14.277 4.27441Z" fill="#F0F0F0"/>
<path d="M15.6624 6.43555L15.1493 7.09841L14.3604 6.81533L14.8323 7.50805L14.3193 8.17086L15.1239 7.93611L15.5959 8.62887L15.6213 7.79108L16.4259 7.55633L15.637 7.2733L15.6624 6.43555Z" fill="#F0F0F0"/>
<path d="M11.8341 5.06055L11.3211 5.72336L10.5322 5.44037L11.0041 6.13305L10.4911 6.79591L11.2957 6.5612L11.7676 7.25388L11.793 6.41613L12.5976 6.18142L11.8087 5.89834L11.8341 5.06055Z" fill="#F0F0F0"/>
<path d="M11.7781 7.53516L11.2651 8.19802L10.4762 7.91498L10.9481 8.6077L10.435 9.27052L11.2397 9.03586L11.7116 9.72848L11.7369 8.89073L12.5416 8.65603L11.7527 8.37295L11.7781 7.53516Z" fill="#F0F0F0"/>
<path d="M14.1321 8.37988L13.6191 9.0427L12.8302 8.75966L13.3022 9.45238L12.7891 10.1151L13.5938 9.88049L14.0657 10.5732L14.091 9.73537L14.8957 9.50071L14.1067 9.21768L14.1321 8.37988Z" fill="#F0F0F0"/>
<path d="M3.13019 3.91731V20.0825C4.76519 21.8756 6.9369 23.1706 9.39104 23.7146V0.285156C6.93686 0.829188 4.76523 2.12411 3.13019 3.91731Z" fill="#D80027"/>
<path d="M5.51949 6.31724L4.47131 5.5364V4.43216L5.51949 3.65137H7.00191L8.05008 4.43216V5.5364L7.00191 6.31724H5.51949Z" fill="#F0F0F0"/>
<path d="M6.26072 3.65137H5.51948L4.47131 4.43216V4.97202H6.26072V3.65137Z" fill="#FF9811"/>
<path d="M6.26074 6.3168H7.00193L8.0501 5.53595V4.97266H6.26074V6.3168Z" fill="#FF9811"/>
<path d="M5.51949 20.3485L4.47131 19.5676V18.4635L5.51949 17.6826H7.00191L8.05008 18.4635V19.5676L7.00191 20.3485H5.51949Z" fill="#F0F0F0"/>
<path d="M6.26072 17.6826H5.51948L4.47131 18.4635V19.0033H6.26072V17.6826Z" fill="#FF9811"/>
<path d="M6.26074 20.349H7.00193L8.0501 19.5681V19.0049H6.26074V20.349Z" fill="#FF9811"/>
<path d="M5.51936 13.3329L4.47119 12.552V11.4478L5.51936 10.667H7.00178L8.04995 11.4478V12.552L7.00178 13.3329H5.51936Z" fill="#496E2D"/>
<path d="M8.08664 15.0521H7.63007V14.5956H6.82781L6.26053 14.0283L5.69329 14.5956H4.89103V15.0521H4.43451V15.9651H4.89103V16.4217H5.69324L6.26057 16.989L6.82781 16.4217H7.63007V15.9651H8.08664V15.0521Z" fill="#496E2D"/>
<path d="M8.08688 8.03654H7.63032V7.57998H6.82805L6.26077 7.0127L5.69354 7.57998H4.89127V8.03654H4.43475V8.94957H4.89127V9.40609H5.69349L6.26082 9.97346L6.82805 9.40609H7.63032V8.94957H8.08688V8.03654Z" fill="#496E2D"/>
<path d="M6.78225 11.4795H5.73877V12.523H6.78225V11.4795Z" fill="#D80027"/>
<path d="M6.26061 9.01512C6.54874 9.01512 6.78232 8.78154 6.78232 8.4934C6.78232 8.20526 6.54874 7.97168 6.26061 7.97168C5.97247 7.97168 5.73889 8.20526 5.73889 8.4934C5.73889 8.78154 5.97247 9.01512 6.26061 9.01512Z" fill="#D80027"/>
<path d="M6.26049 16.0307C6.54862 16.0307 6.7822 15.7972 6.7822 15.509C6.7822 15.2209 6.54862 14.9873 6.26049 14.9873C5.97235 14.9873 5.73877 15.2209 5.73877 15.509C5.73877 15.7972 5.97235 16.0307 6.26049 16.0307Z" fill="#D80027"/>
</g>
<defs>
<clipPath id="clip0_2941_30224">
<rect width="24" height="24" fill="white"/>
</clipPath>
</defs>
</svg>
