<svg width="24" height="24" viewBox="0 0 24 24" fill="none" xmlns="http://www.w3.org/2000/svg">
<g clip-path="url(#clip0_2941_30213)">
<path d="M12 24C18.6274 24 24 18.6274 24 12C24 5.37258 18.6274 0 12 0C5.37258 0 0 5.37258 0 12C0 18.6274 5.37258 24 12 24Z" fill="#D80027"/>
<path d="M11.9998 17.739C15.1695 17.739 17.739 15.1695 17.739 11.9999C17.739 8.83024 15.1695 6.26074 11.9998 6.26074C8.83018 6.26074 6.26068 8.83024 6.26068 11.9999C6.26068 15.1695 8.83018 17.739 11.9998 17.739Z" fill="#F0F0F0"/>
<path d="M12.7065 9.80469L13.691 11.1615L15.2856 10.6445L14.2995 12.0001L15.2839 13.3568L13.6899 12.8378L12.7038 14.1935L12.7048 12.5172L11.1108 11.9982L12.7054 11.4811L12.7065 9.80469Z" fill="#D80027"/>
<path d="M13.304 15.3904C11.431 15.3904 9.91267 13.8721 9.91267 11.9991C9.91267 10.1262 11.431 8.60782 13.304 8.60782C13.8879 8.60782 14.4375 8.75548 14.9172 9.01545C14.1646 8.27946 13.1355 7.8252 11.9996 7.8252C9.69451 7.8252 7.82574 9.69391 7.82574 11.9991C7.82574 14.3043 9.69451 16.173 11.9996 16.173C13.1355 16.173 14.1647 15.7187 14.9172 14.9827C14.4375 15.2428 13.8879 15.3904 13.304 15.3904Z" fill="#D80027"/>
</g>
<defs>
<clipPath id="clip0_2941_30213">
<rect width="24" height="24" fill="white"/>
</clipPath>
</defs>
</svg>
