<svg width="24" height="24" viewBox="0 0 24 24" fill="none" xmlns="http://www.w3.org/2000/svg">
<g clip-path="url(#clip0_2941_30266)">
<path d="M24 12C24 18.6274 18.6274 24 12 24C5.37263 24 0 18.6274 0 12C0 12.0029 12 0.0013125 12 0C18.6274 0 24 5.37262 24 12Z" fill="#338AF3"/>
<path d="M5.73932 12.001H9.7866L6.26104 7.82715L5.73932 9.39235V12.001Z" fill="#0052B4"/>
<path d="M12.0002 9.78659L7.82623 5.73926H12.0001L12.0002 9.78659Z" fill="#0052B4"/>
<path d="M11.9683 11.999H12.0005C12.0005 11.9882 12.0005 11.9776 12.0005 11.9668C11.9898 11.9776 11.9791 11.9883 11.9683 11.999Z" fill="#F0F0F0"/>
<path d="M12.0004 6.26086C12.0004 4.14937 12.0004 2.76581 12.0004 0H11.9984C5.37187 0.001125 0.000366211 5.37323 0.000366211 12H6.26127V8.47448L9.78679 12H11.9683C11.979 11.9893 11.9897 11.9786 12.0005 11.9679C12.0005 11.1594 12.0005 10.4381 12.0005 9.78647L8.4748 6.26086H12.0004Z" fill="#F0F0F0"/>
<path d="M6.07124 1.56543C4.19441 2.63413 2.63413 4.19441 1.56543 6.07124V12.0002H4.69588V4.69598V4.69588H12.0002C12.0002 3.70856 12.0002 2.76796 12.0002 1.56543H6.07124Z" fill="#D80027"/>
<path d="M12.0005 10.5242L7.73698 6.26074H6.26135V6.26084L12.0004 11.9998H12.0005C12.0005 11.9998 12.0005 10.9823 12.0005 10.5242Z" fill="#D80027"/>
<path d="M13.0972 19.8252L13.3562 20.6224H14.1944L13.5164 21.115L13.7754 21.9121L13.0972 21.4195L12.4192 21.9121L12.6782 21.115L12.0001 20.6224H12.8382L13.0972 19.8252Z" fill="#FFDA44"/>
<path d="M19.7727 14.6094L20.0317 15.4065H20.8698L20.1918 15.8992L20.4509 16.6963L19.7727 16.2037L19.0946 16.6963L19.3537 15.8992L18.6755 15.4065H19.5136L19.7727 14.6094Z" fill="#FFDA44"/>
<path d="M21.445 6.78223L21.704 7.57938H22.5422L21.8642 8.07204L22.1231 8.86915L21.445 8.37654L20.767 8.86915L21.026 8.07204L20.3478 7.57938H21.186L21.445 6.78223Z" fill="#FFDA44"/>
<path d="M21.8596 12.5215L22.1186 13.3187H22.9568L22.2787 13.8113L22.5377 14.6085L21.8596 14.1158L21.1815 14.6085L21.4406 13.8113L20.7624 13.3187H21.6006L21.8596 12.5215Z" fill="#FFDA44"/>
<path d="M14.299 17.9513L15.046 18.3319L15.6386 17.7393L15.5076 18.567L16.2543 18.9475L15.4264 19.0787L15.2953 19.9066L14.9149 19.1597L14.087 19.2909L14.6796 18.6983L14.299 17.9513Z" fill="#FFDA44"/>
<path d="M14.299 14.8215L15.046 15.202L15.6386 14.6094L15.5076 15.4372L16.2543 15.8177L15.4264 15.9488L15.2953 16.7767L14.9149 16.0299L14.087 16.161L14.6796 15.5684L14.299 14.8215Z" fill="#FFDA44"/>
<path d="M16.9079 16.8263L17.6549 17.2069L18.2475 16.6143L18.1165 17.442L18.8632 17.8226L18.0353 17.9537L17.9042 18.7816L17.5238 18.0347L16.6959 18.1659L17.2885 17.5733L16.9079 16.8263Z" fill="#FFDA44"/>
<path d="M16.9079 10.1242L17.6549 10.5047L18.2475 9.91211L18.1165 10.7399L18.8632 11.1204L18.0353 11.2516L17.9042 12.0794L17.5238 11.3326L16.6959 11.4638L17.2885 10.8711L16.9079 10.1242Z" fill="#FFDA44"/>
<path d="M19.4365 10.0441L20.1834 10.4247L20.7761 9.83203L20.645 10.6598L21.3918 11.0403L20.5639 11.1715L20.4328 11.9993L20.0523 11.2525L19.2244 11.3837L19.8171 10.791L19.4365 10.0441Z" fill="#FFDA44"/>
</g>
<defs>
<clipPath id="clip0_2941_30266">
<rect width="24" height="24" fill="white"/>
</clipPath>
</defs>
</svg>
