<svg width="24" height="24" viewBox="0 0 24 24" fill="none" xmlns="http://www.w3.org/2000/svg">
<g clip-path="url(#clip0_2941_30175)">
<path d="M12 24C18.6274 24 24 18.6274 24 12C24 5.37258 18.6274 0 12 0C5.37258 0 0 5.37258 0 12C0 18.6274 5.37258 24 12 24Z" fill="#FFDA44"/>
<path d="M3.51464 20.4851C4.01803 20.9885 4.55513 21.4374 5.11852 21.8326L21.8327 5.11838C21.4376 4.55499 20.9886 4.0179 20.4852 3.51451C19.9818 3.01112 19.4447 2.56224 18.8813 2.16699L2.16718 18.8813C2.56233 19.4445 3.0113 19.9816 3.51464 20.4851Z" fill="black"/>
<path d="M3.51453 3.51417C-0.27119 7.29998 -0.997987 12.9855 1.33278 17.5016L17.5019 1.33246C12.9859 -0.998302 7.3003 -0.271459 3.51453 3.51417Z" fill="#6DA544"/>
<path d="M20.485 20.4855C24.2707 16.6997 24.9974 11.0141 22.6668 6.49805L6.49762 22.6672C11.0136 24.998 16.6992 24.2712 20.485 20.4855Z" fill="#338AF3"/>
</g>
<defs>
<clipPath id="clip0_2941_30175">
<rect width="24" height="24" fill="white"/>
</clipPath>
</defs>
</svg>
