<svg width="24" height="24" viewBox="0 0 24 24" fill="none" xmlns="http://www.w3.org/2000/svg">
<g clip-path="url(#clip0_2941_30288)">
<path d="M20.943 20.0004C22.8434 17.8773 23.9996 15.0741 23.9996 12.0004C23.9996 8.92672 22.8434 6.12345 20.9429 4.00039L11.9996 3.13086L3.0562 4.00039C1.15574 6.12345 -0.000427246 8.92672 -0.000427246 12.0004C-0.000427246 15.0741 1.1557 17.8773 3.05615 20.0004L11.9996 20.87L20.943 20.0004Z" fill="#FFDA44"/>
<path d="M3.0567 4.00096H20.9435C18.7462 1.54626 15.5538 0.000976562 12.0001 0.000976562C8.44634 0.000976562 5.25392 1.54626 3.0567 4.00096Z" fill="black"/>
<path d="M-0.000427246 12.001L11.9996 13.0445L23.9996 12.001C23.9996 10.5983 23.7581 9.25216 23.3158 8.00098H0.683385C0.241026 9.25216 -0.000427246 10.5983 -0.000427246 12.001Z" fill="#D80027"/>
<path d="M0.683385 15.999H23.3159C23.7581 14.7478 23.9996 13.4017 23.9996 11.999H-0.000427246C-0.000427246 13.4017 0.241026 14.7478 0.683385 15.999Z" fill="black"/>
<path d="M20.9434 19.999H3.05658C5.2538 22.4538 8.44622 23.999 12 23.999C15.5538 23.999 18.7462 22.4538 20.9434 19.999Z" fill="#D80027"/>
<path d="M16.0042 12.0004C16.0042 14.2121 14.2115 16.0048 11.9998 16.0048C9.78813 16.0048 7.99548 14.2121 7.99548 12.0004C7.99548 9.78874 9.78813 7.99609 11.9998 7.99609C14.2115 7.99609 16.0042 9.78874 16.0042 12.0004Z" fill="#F0F0F0"/>
<path d="M13.4666 12.2036L11.9996 11.568C11.9996 11.568 12.3428 10.4288 12.3611 10.3508C12.3745 10.2939 12.3816 10.2345 12.3816 10.1734C12.3816 9.9573 12.294 9.76164 12.1523 9.62008L12.5212 9.25117C12.2852 9.01516 11.9591 8.86914 11.5989 8.86914C11.2387 8.86914 10.9126 9.01511 10.6766 9.25117L11.0455 9.62008C10.9039 9.76169 10.8163 9.95734 10.8163 10.1734C10.8163 10.2525 10.8282 10.3286 10.85 10.4006L10.2946 10.956H11.3041C11.3041 10.956 10.8867 11.5829 10.6589 12.0977C10.431 12.6125 10.662 13.2409 11.1886 13.475L11.4931 13.6104L11.9996 14.0864V14.6081L11.4779 15.1299H12.5214V14.0864L12.9975 13.6103H13.9822C13.987 13.6005 13.9919 13.5909 13.9964 13.5809C14.2304 13.0543 13.9932 12.4376 13.4666 12.2036Z" fill="black"/>
</g>
<defs>
<clipPath id="clip0_2941_30288">
<rect width="24" height="24" fill="white"/>
</clipPath>
</defs>
</svg>
