<svg width="24" height="24" viewBox="0 0 24 24" fill="none" xmlns="http://www.w3.org/2000/svg">
<g clip-path="url(#clip0_2941_28701)">
<path d="M22.8088 17.2165C23.5717 15.6389 23.9995 13.869 23.9995 11.9991C23.9995 10.1293 23.5717 8.35939 22.8088 6.78177L11.9995 5.73828L1.19023 6.78177C0.42734 8.35939 -0.000488281 10.1293 -0.000488281 11.9991C-0.000488281 13.869 0.42734 15.6389 1.19023 17.2165L11.9995 18.26L22.8088 17.2165Z" fill="#0052B4"/>
<path d="M11.9997 24.0004C16.7572 24.0004 20.868 21.2317 22.809 17.2178H1.19046C3.13146 21.2317 7.24221 24.0004 11.9997 24.0004Z" fill="#D80027"/>
<path d="M20.7818 14.3557L20.148 14.851L20.4231 15.6067L19.7562 15.157L19.1224 15.6522L19.344 14.879L18.6772 14.4292L19.481 14.4011L19.7029 13.6279L19.978 14.3837L20.7818 14.3557Z" fill="#F0F0F0"/>
<path d="M19.1589 11.5444L18.7328 12.2266L19.2498 12.8426L18.4693 12.6483L18.043 13.3303L17.9868 12.5279L17.2064 12.3333L17.9523 12.0319L17.8962 11.2295L18.4132 11.8458L19.1589 11.5444Z" fill="#F0F0F0"/>
<path d="M16.6724 9.45801L16.5053 10.2448L17.2018 10.647L16.4019 10.7313L16.2347 11.5179L15.9075 10.7832L15.1075 10.8671L15.7053 10.3289L15.3782 9.59418L16.0747 9.99627L16.6724 9.45801Z" fill="#F0F0F0"/>
<path d="M13.6221 8.34766L13.7342 9.1442L14.5262 9.2838L13.8033 9.63658L13.9153 10.4331L13.3566 9.85445L12.6335 10.207L13.0112 9.49675L12.4524 8.91822L13.2446 9.05786L13.6221 8.34766Z" fill="#F0F0F0"/>
<path d="M10.3765 8.34766L10.7542 9.05786L11.5462 8.91812L10.9876 9.49689L11.3651 10.2071L10.6422 9.85445L10.0833 10.4329L10.1954 9.63658L9.47244 9.28398L10.2646 9.1442L10.3765 8.34766Z" fill="#F0F0F0"/>
<path d="M7.3262 9.45801L7.92405 9.99627L8.62047 9.59418L8.29342 10.3292L8.89113 10.8673L8.0912 10.7832L7.76392 11.5179L7.59691 10.7312L6.79694 10.6472L7.4935 10.2449L7.3262 9.45801Z" fill="#F0F0F0"/>
<path d="M4.83964 11.5443L5.58556 11.8456L6.1024 11.2295L6.04648 12.032L6.79216 12.3334L6.01174 12.5279L5.95554 13.3302L5.52945 12.6482L4.74893 12.8427L5.26596 12.2265L4.83964 11.5443Z" fill="#F0F0F0"/>
<path d="M3.21674 14.3556L4.02074 14.3836L4.2957 13.6279L4.51766 14.4012L5.32142 14.4293L4.65458 14.8791L4.8762 15.6522L4.24245 15.157L3.57556 15.6067L3.85067 14.8509L3.21674 14.3556Z" fill="#F0F0F0"/>
<path d="M22.809 6.78262C20.868 2.76867 16.7572 0 11.9997 0C7.24221 0 3.13146 2.76867 1.19046 6.78262H22.809Z" fill="#FFDA44"/>
</g>
<defs>
<clipPath id="clip0_2941_28701">
<rect width="24" height="24" fill="white"/>
</clipPath>
</defs>
</svg>
