<svg width="24" height="24" viewBox="0 0 24 24" fill="none" xmlns="http://www.w3.org/2000/svg">
<g clip-path="url(#clip0_2941_28824)">
<path d="M24 12C24 18.6274 18.6274 24 12 24C5.37262 24 0 18.6274 0 12C0 12.0029 12 0.0013125 12 0C18.6274 0 24 5.37262 24 12Z" fill="#0052B4"/>
<path d="M11.9682 12.0009H12.0003C12.0003 11.9901 12.0003 11.9796 12.0003 11.9688C11.9896 11.9795 11.9789 11.9902 11.9682 12.0009Z" fill="#F0F0F0"/>
<path d="M11.9998 6.26184C11.9998 4.15035 11.9998 2.76684 11.9998 0.000976562H11.9978C5.37127 0.00210156 -0.000183105 5.37421 -0.000183105 12.001H6.26067V8.47546L9.78619 12.001H11.9677C11.9784 11.9903 11.9891 11.9796 11.9999 11.9689C11.9999 11.1604 11.9999 10.4391 11.9999 9.78745L8.47425 6.26184H11.9998Z" fill="#F0F0F0"/>
<path d="M6.0706 1.56445C4.19377 2.63316 2.63345 4.19344 1.56479 6.07027V11.9993H4.69524V4.695V4.69491H11.9996C11.9996 3.70758 11.9996 2.76698 11.9996 1.56445H6.0706Z" fill="#D80027"/>
<path d="M17.2179 12L13.9745 15.2434C14.5824 16.4158 15.8062 17.2174 17.2179 17.2174C18.6297 17.2174 19.8535 16.4158 20.4614 15.2434L17.2179 12Z" fill="#FFDA44"/>
<path d="M11.9998 10.5242L7.73624 6.26074H6.26062V6.26084L11.9997 11.9998H11.9998C11.9998 11.9998 11.9998 10.9823 11.9998 10.5242Z" fill="#D80027"/>
<path d="M13.5652 6.26074V11.9998V11.9999C13.5653 14.7955 17.2174 15.6521 17.2174 15.6521C17.2174 15.6521 20.8695 14.7955 20.8696 11.9999V11.9998V6.26074H13.5652Z" fill="#6DA544"/>
<path d="M18 8.87012H16.4348V13.044H18V8.87012Z" fill="#F0F0F0"/>
<path d="M17.2173 9.65217C17.6495 9.65217 17.9999 9.30177 17.9999 8.86954C17.9999 8.43731 17.6495 8.08691 17.2173 8.08691C16.7851 8.08691 16.4347 8.43731 16.4347 8.86954C16.4347 9.30177 16.7851 9.65217 17.2173 9.65217Z" fill="#A2001D"/>
<path d="M15.6529 7.30469H14.6094V8.34817H15.6529V7.30469Z" fill="#FFDA44"/>
<path d="M15.6522 9.65234H14.6088V10.6958H15.6522V9.65234Z" fill="#FFDA44"/>
<path d="M15.6522 12H14.6088V13.0435H15.6522V12Z" fill="#FFDA44"/>
<path d="M19.8262 7.30566H18.7827V8.34915H19.8262V7.30566Z" fill="#FFDA44"/>
<path d="M19.8262 9.65234H18.7827V10.6958H19.8262V9.65234Z" fill="#FFDA44"/>
<path d="M19.8262 12H18.7827V13.0435H19.8262V12Z" fill="#FFDA44"/>
</g>
<defs>
<clipPath id="clip0_2941_28824">
<rect width="24" height="24" fill="white"/>
</clipPath>
</defs>
</svg>
