<svg width="24" height="24" viewBox="0 0 24 24" fill="none" xmlns="http://www.w3.org/2000/svg">
<g clip-path="url(#clip0_2941_28675)">
<path d="M24.0003 11.9999C24.0003 11.4695 23.9655 10.9471 23.8987 10.4347H10.435C7.98339 7.98328 3.51485 3.51502 3.51504 3.51465C-1.17123 8.20092 -1.17123 15.7989 3.51504 20.4852L10.4351 13.5652H23.8987C23.9654 13.0528 24.0003 12.5304 24.0003 11.9999Z" fill="black"/>
<path d="M23.9967 12.2725C23.9962 12.2956 23.9957 12.3189 23.995 12.3421C23.9956 12.3188 23.9962 12.2956 23.9967 12.2725Z" fill="#F0F0F0"/>
<path d="M23.9852 12.6006C23.9841 12.6235 23.9825 12.6464 23.9813 12.6693C23.9825 12.6464 23.984 12.6235 23.9852 12.6006Z" fill="#F0F0F0"/>
<path d="M23.9682 12.8633C23.9658 12.897 23.9634 12.9308 23.9607 12.9644C23.9634 12.9308 23.9657 12.897 23.9682 12.8633Z" fill="#F0F0F0"/>
<path d="M23.9285 10.6924C23.9329 10.7326 23.9374 10.7727 23.9413 10.813C23.9374 10.7726 23.9329 10.7326 23.9285 10.6924Z" fill="#F0F0F0"/>
<path d="M23.9805 11.3301C23.9818 11.353 23.9833 11.3758 23.9844 11.3988C23.9833 11.3758 23.9818 11.3529 23.9805 11.3301Z" fill="#F0F0F0"/>
<path d="M23.9945 11.6572C23.9952 11.6804 23.9956 11.7037 23.9962 11.7269C23.9957 11.7036 23.9951 11.6804 23.9945 11.6572Z" fill="#F0F0F0"/>
<path d="M23.961 11.0361C23.9638 11.0698 23.9661 11.1035 23.9685 11.1373C23.9661 11.1035 23.9638 11.0698 23.961 11.0361Z" fill="#F0F0F0"/>
<path d="M23.8987 10.4347C23.9041 10.4758 23.9089 10.5172 23.9138 10.5584C23.2016 4.6108 18.1397 0 12.0003 0C8.68651 0 5.68647 1.3432 3.51489 3.51487L10.4348 10.4348H23.8987V10.4347Z" fill="#D80027"/>
<path d="M23.8987 13.5651H10.4348L3.51489 20.485C5.68647 22.6566 8.68651 23.9998 12.0003 23.9998C18.1397 23.9998 23.2016 19.389 23.9138 13.4414C23.9089 13.4826 23.904 13.524 23.8987 13.5651Z" fill="#6DA544"/>
<path d="M23.9412 13.1875C23.9372 13.2278 23.9328 13.2679 23.9284 13.3081C23.9328 13.2679 23.9373 13.2278 23.9412 13.1875Z" fill="#F0F0F0"/>
<path d="M23.9685 11.1367C23.9731 11.2009 23.9772 11.2653 23.9807 11.3297C23.9771 11.2653 23.9731 11.2009 23.9685 11.1367Z" fill="black"/>
<path d="M23.9132 10.5586C23.9186 10.6031 23.9237 10.6477 23.9285 10.6924C23.9236 10.6477 23.9185 10.6032 23.9132 10.5586Z" fill="black"/>
<path d="M23.9412 10.8125C23.9485 10.887 23.9551 10.9618 23.9611 11.0368C23.9552 10.9618 23.9486 10.887 23.9412 10.8125Z" fill="black"/>
<path d="M24.0005 12C24.0005 12.0913 23.9991 12.1823 23.9971 12.2731C23.9991 12.1823 24.0005 12.0913 24.0005 12Z" fill="black"/>
<path d="M23.9808 12.6689C23.9773 12.7334 23.9731 12.7978 23.9686 12.862C23.9731 12.7978 23.9772 12.7334 23.9808 12.6689Z" fill="black"/>
<path d="M23.9611 12.9639C23.9551 13.0388 23.9485 13.1136 23.9412 13.188C23.9486 13.1136 23.9552 13.0388 23.9611 12.9639Z" fill="black"/>
<path d="M23.9285 13.3086C23.9237 13.3533 23.9186 13.3978 23.9132 13.4424C23.9185 13.3979 23.9236 13.3533 23.9285 13.3086Z" fill="black"/>
<path d="M23.9971 11.7275C23.9991 11.8184 24.0005 11.9094 24.0005 12.0006C24.0005 11.9094 23.9991 11.8184 23.9971 11.7275Z" fill="black"/>
<path d="M23.9856 11.3984C23.9898 11.4844 23.993 11.5707 23.9954 11.6571C23.993 11.5706 23.9899 11.4844 23.9856 11.3984Z" fill="black"/>
<path d="M23.9953 12.3418C23.9929 12.4282 23.9897 12.5145 23.9855 12.6005C23.9898 12.5145 23.9929 12.4282 23.9953 12.3418Z" fill="black"/>
<path d="M23.989 11.4737H9.99423L2.80563 4.28613C2.57327 4.53119 2.32141 4.87338 2.16565 5.11708L9.04028 11.9953L2.15988 18.8759C2.2961 19.1182 2.59287 19.4769 2.80122 19.7103L9.99437 12.5171H23.9907C23.9981 12.3441 24.0005 12.1703 24.0005 11.9954C24.0004 11.7611 23.9939 11.5884 23.989 11.4737Z" fill="#FFDA44"/>
<path d="M2.9153 14.5574V13.5523C3.91833 13.5523 4.73428 12.7362 4.73428 11.7333C4.73428 11.0237 4.15692 10.4464 3.44733 10.4464C2.96391 10.4464 2.57058 10.8396 2.57058 11.3232C2.57058 11.6323 2.82206 11.8838 3.13125 11.8838C3.306 11.8838 3.44817 11.7416 3.44817 11.5668H4.45326C4.45326 12.2959 3.8602 12.8889 3.1313 12.8889C2.26791 12.889 1.56558 12.1865 1.56558 11.3232C1.56558 10.2856 2.4098 9.44141 3.44738 9.44141C4.71122 9.44141 5.73947 10.4697 5.73947 11.7335C5.73942 13.2905 4.47253 14.5574 2.9153 14.5574Z" fill="#FFDA44"/>
</g>
<defs>
<clipPath id="clip0_2941_28675">
<rect width="24" height="24" fill="white"/>
</clipPath>
</defs>
</svg>
