<svg width="24" height="24" viewBox="0 0 24 24" fill="none" xmlns="http://www.w3.org/2000/svg">
<g clip-path="url(#clip0_2941_29921)">
<path d="M24 12C24 18.6274 18.6274 24 12 24C5.37262 24 0 18.6274 0 12C4.12172 7.87828 7.61737 4.38263 12 0C18.6274 0 24 5.37262 24 12Z" fill="#D80027"/>
<path d="M12 12C12 5.37262 12 4.59131 12 0C5.37262 0 0 5.37262 0 12H12Z" fill="#0052B4"/>
<path d="M9.61153 7.82617L9.80582 8.42406H10.4344L9.92582 8.79348L10.1201 9.39137L9.61153 9.02186L9.10293 9.39137L9.29723 8.79348L8.78864 8.42406H9.41723L9.61153 7.82617Z" fill="#F0F0F0"/>
<path d="M6.45448 3.13086L6.77824 4.12738H7.826L6.97831 4.74308L7.30217 5.73955L6.45448 5.12366L5.60684 5.73955L5.93065 4.74308L5.08301 4.12738H6.13067L6.45448 3.13086Z" fill="#F0F0F0"/>
<path d="M9.5854 4.1748L9.90917 5.17137H10.9569L10.1092 5.78707L10.433 6.78354L9.5854 6.16765L8.73776 6.78354L9.06157 5.78707L8.21393 5.17137H9.26159L9.5854 4.1748Z" fill="#F0F0F0"/>
<path d="M7.1106 8.34863L7.43442 9.34515H8.48207L7.63443 9.96085L7.95824 10.9573L7.1106 10.3415L6.26296 10.9573L6.58678 9.96085L5.73914 9.34515H6.78684L7.1106 8.34863Z" fill="#F0F0F0"/>
<path d="M4.36764 5.73926L4.69145 6.73577H5.73916L4.89147 7.35148L5.21528 8.34795L4.36764 7.7321L3.52004 8.34795L3.84381 7.35148L2.99622 6.73577H4.04387L4.36764 5.73926Z" fill="#F0F0F0"/>
</g>
<defs>
<clipPath id="clip0_2941_29921">
<rect width="24" height="24" fill="white"/>
</clipPath>
</defs>
</svg>
