<svg width="24" height="24" viewBox="0 0 24 24" fill="none" xmlns="http://www.w3.org/2000/svg">
<g clip-path="url(#clip0_2941_30042)">
<path d="M12 24C18.6274 24 24 18.6274 24 12C24 5.37258 18.6274 0 12 0C5.37258 0 0 5.37258 0 12C0 18.6274 5.37258 24 12 24Z" fill="#F0F0F0"/>
<path d="M3.51422 20.4853C-1.17206 15.7989 -1.17206 8.20098 3.51422 3.51465C3.51389 3.51516 10.4343 12 10.4343 12L3.51422 20.4853Z" fill="black"/>
<path d="M10.4349 12.0004L1.59168 6.02441C1.31751 6.50099 1.07573 6.99843 0.867981 7.5133L5.34496 12.0004L0.868122 16.4878C1.07568 17.0023 1.31723 17.4994 1.59122 17.9756L10.4349 12.0004Z" fill="#FFDA44"/>
<path d="M23.8986 10.4346H10.4346L3.51476 3.51465C2.76908 4.26034 2.12122 5.10366 1.59172 6.02387L7.55604 11.9998L1.59125 17.9749C2.12075 18.8954 2.76889 19.739 3.51476 20.4848L10.4346 13.565H23.8986C23.9653 13.0526 24.0002 12.5303 24.0002 11.9998C24.0002 11.4693 23.9653 10.9469 23.8986 10.4346Z" fill="#6DA544"/>
<path d="M4.69366 21.5177C6.71721 23.0731 9.2502 23.9985 11.9997 23.9985C17.544 23.9985 22.2093 20.2381 23.5863 15.1289H11.0825L4.69366 21.5177Z" fill="#0052B4"/>
<path d="M23.5863 8.86857C22.2093 3.75938 17.544 -0.000976562 11.9997 -0.000976562C9.2502 -0.000976562 6.71721 0.924383 4.69366 2.47979L11.0824 8.86857H23.5863Z" fill="#D80027"/>
</g>
<defs>
<clipPath id="clip0_2941_30042">
<rect width="24" height="24" fill="white"/>
</clipPath>
</defs>
</svg>
