<svg width="24" height="24" viewBox="0 0 24 24" fill="none" xmlns="http://www.w3.org/2000/svg">
<g clip-path="url(#clip0_2941_28748)">
<path d="M12 24C18.6274 24 24 18.6274 24 12C24 5.37258 18.6274 0 12 0C5.37258 0 0 5.37258 0 12C0 18.6274 5.37258 24 12 24Z" fill="#F0F0F0"/>
<path d="M22.8522 6.8727C22.2426 5.58486 21.4105 4.42315 20.4055 3.43667L12.0008 2.60938L3.5961 3.43672C3.56929 3.46301 3.54313 3.48992 3.5166 3.5165L6.87285 6.87275L12.0008 7.02936L22.8522 6.8727Z" fill="#FFDA44"/>
<path d="M3.51599 20.4859C3.56015 20.5301 3.60421 20.5743 3.64902 20.6178L12.0003 21.3929L20.3515 20.6178C21.3669 19.6334 22.2091 18.4716 22.8274 17.1818L7.30462 16.6973C5.96901 18.0329 4.42851 19.5733 3.51599 20.4859Z" fill="#FFDA44"/>
<path d="M23.8805 10.3081L9.9129 9.91309L11.9999 12.0001C11.3817 12.6182 10.459 13.541 9.9129 14.087L23.8732 13.7442C23.9562 13.1747 23.9999 12.5925 23.9999 12.0001C23.9999 11.4256 23.9586 10.861 23.8805 10.3081Z" fill="black"/>
<path d="M12 0.000976562C8.72684 0.000976562 5.76031 1.31207 3.59534 3.43701H20.4047C18.2397 1.31207 15.2732 0.000976562 12 0.000976562Z" fill="#6DA544"/>
<path d="M10.3076 10.3081H23.8802C23.709 9.09502 23.3567 7.9403 22.851 6.87207H6.87158L10.3076 10.3081Z" fill="#D80027"/>
<path d="M6.81946 17.1811H22.8267C23.3383 16.1137 23.6962 14.9589 23.873 13.7451H10.2555C8.92485 15.0758 7.79713 16.2035 6.81946 17.1811Z" fill="#D80027"/>
<path d="M12 24.0001C15.2463 24.0001 18.191 22.7104 20.3512 20.6162H3.6488C5.80899 22.7104 8.75368 24.0001 12 24.0001Z" fill="#6DA544"/>
<path d="M4.28516 2.80957C4.0184 3.03373 3.76101 3.26871 3.51477 3.51485L12.0001 12.0002L3.51477 20.4855C3.76096 20.7317 4.0184 20.9666 4.28516 21.1908L13.4758 12.0002L4.28516 2.80957Z" fill="black"/>
<path d="M4.82461 8.86914L5.60156 11.2605H8.11617L6.08189 12.7386L6.85889 15.13L4.82461 13.652L2.79028 15.13L3.56738 12.7386L1.53314 11.2605H4.04761L4.82461 8.86914Z" fill="#D80027"/>
<path d="M6.96209 12.195L4.93718 11.4776C4.93718 11.4776 4.78756 10.074 4.77851 10.0264C4.70979 9.66442 4.39165 9.39062 4.00962 9.39062C3.57743 9.39062 3.22699 9.74102 3.22699 10.1732C3.22699 10.2449 3.23745 10.314 3.25549 10.38L2.68774 10.9515C2.68774 10.9515 3.36209 10.9515 3.69724 10.9515C3.69724 11.9993 2.91537 11.9993 2.91537 13.0428L3.3491 14.0863H5.95779L6.3926 13.0428H6.39242C6.43596 12.9427 6.4624 12.8394 6.47332 12.7362C6.84813 12.5846 6.96209 12.195 6.96209 12.195Z" fill="#FFDA44"/>
</g>
<defs>
<clipPath id="clip0_2941_28748">
<rect width="24" height="24" fill="white"/>
</clipPath>
</defs>
</svg>
